<svg width="609" height="761" viewBox="0 0 609 761" fill="none" xmlns="http://www.w3.org/2000/svg">
<path d="M539.4 600.88C516.89 634.82 490.78 662.89 473.3 680.09L430.93 638.07L435.37 633.91C582.51 496.13 583.16 261.34 435.4 122.83L304.32 0L173.24 122.83C25.68 261.15 25.85 495.82 173.24 633.91L177.68 638.07L135.35 680.09C117.87 662.89 91.76 634.82 69.25 600.88H0C53.6 700.56 138.95 760.56 138.95 760.56L221.2 678.83L308.39 760.56H395.29L213.89 590.57C155.44 535.8 121.92 458.47 121.92 378.39C121.92 298.31 155.44 220.95 213.89 166.18L304.32 81.45L394.75 166.22C453.2 220.96 486.68 298.32 486.68 378.4C486.68 516.95 388.73 596.21 388.74 596.21L346.51 554.33C346.51 554.33 427.26 490.82 427.26 378.4C427.26 314.68 400.62 253.12 354.13 209.57L304.32 162.9L254.51 209.57C208.02 253.12 181.35 314.68 181.35 378.4C181.35 442.12 208.02 503.65 254.51 547.2L387.45 678.84L469.7 760.57C469.7 760.57 553.91 702.71 608.65 600.89H539.4V600.88ZM313.49 503.85L304.33 512.45L295.17 503.85C260.6 471.48 240.78 425.72 240.78 378.39C240.78 331.06 260.6 285.3 295.17 252.9L304.33 244.34L313.49 252.9C348.06 285.3 367.85 331.03 367.85 378.39C367.85 425.75 348.07 471.48 313.49 503.85Z" fill="white"/>
</svg>
