<svg width="426" height="532" viewBox="0 0 426 532" fill="none" xmlns="http://www.w3.org/2000/svg">
<path d="M377.531 420.301C361.776 444.041 343.502 463.675 331.267 475.706L301.612 446.314L304.72 443.404C407.704 347.031 408.159 182.801 304.741 85.9166L212.997 0L121.252 85.9166C17.9737 182.668 18.0927 346.814 121.252 443.404L124.36 446.314L94.7328 475.706C82.4984 463.675 64.2237 444.041 48.4687 420.301H0C37.5152 490.024 97.2525 531.993 97.2525 531.993L154.82 474.825L215.845 531.993H276.667L149.704 413.089C108.794 374.779 85.333 320.688 85.333 264.674C85.333 208.661 108.794 154.549 149.704 116.239L212.997 56.9723L276.289 116.267C317.199 154.556 340.632 208.668 340.632 264.681C340.632 361.594 272.076 417.034 272.083 417.034L242.526 387.74C242.526 387.74 299.043 343.317 299.043 264.681C299.043 220.111 280.398 177.051 247.859 146.589L212.997 113.945L178.134 146.589C145.595 177.051 126.929 220.111 126.929 264.681C126.929 309.252 145.595 352.291 178.134 382.753L271.18 474.832L328.748 532C328.748 532 387.687 491.528 426 420.308H377.531V420.301ZM219.415 352.431L213.004 358.446L206.592 352.431C182.396 329.789 168.524 297.781 168.524 264.674C168.524 231.568 182.396 199.56 206.592 176.897L213.004 170.91L219.415 176.897C243.611 199.56 257.462 231.547 257.462 264.674C257.462 297.802 243.618 329.789 219.415 352.431Z" fill="#3243DA"/>
</svg>
