<svg preserveAspectRatio="none" width="100%" height="100%" overflow="visible" style="display: block;" viewBox="0 0 18 18" fill="none" xmlns="http://www.w3.org/2000/svg">
<g id="Group 136">
<path id="Vector" d="M4.42283 4.60107C4.0022 4.60107 3.66187 4.94373 3.66187 5.3656C3.66187 5.78748 4.0022 6.13014 4.42283 6.13014H11.7464C12.167 6.13014 12.5074 5.78748 12.5074 5.3656C12.5074 4.94373 12.167 4.60107 11.7464 4.60107H4.42283Z" fill="var(--fill-0, #3F4448)"/>
<path id="Vector_2" d="M4.42283 7.36182C4.0022 7.36182 3.66187 7.70447 3.66187 8.12635C3.66187 8.54823 4.0022 8.89088 4.42283 8.89088H9.0001C9.4207 8.89088 9.76099 8.54823 9.76099 8.12635C9.76099 7.70447 9.4207 7.36182 9.0001 7.36182H4.42283Z" fill="var(--fill-0, #3F4448)"/>
<path id="Vector_3" fill-rule="evenodd" clip-rule="evenodd" d="M9.9596 1.4417e-07H8.04037C6.57676 -7.85583e-06 5.41796 -1.37985e-05 4.49454 0.0978302C3.54831 0.19808 2.76203 0.40792 2.08102 0.88725C1.61466 1.21549 1.20906 1.62321 0.882539 2.09195C0.405769 2.77639 0.197059 3.56659 0.0973288 4.51762C-1.2219e-06 5.44578 8.83094e-06 6.61054 1.88309e-05 8.08181L8.81735e-06 10.2924C-0.000125183 11.2702 -0.000209227 11.8908 0.119009 12.4235C0.532829 14.2724 1.96934 15.7166 3.80919 16.1327C4.33924 16.2526 4.95679 16.2525 5.92937 16.2523H6.0412C6.3035 16.2523 6.36799 16.2538 6.42379 16.2609C6.65339 16.2902 6.8674 16.3935 7.03367 16.5556C7.07409 16.5949 7.11553 16.6447 7.27938 16.8506L7.38466 16.9829C7.51828 17.1508 7.64074 17.3047 7.75106 17.426C7.86761 17.5541 8.01244 17.6941 8.20387 17.7979C8.70076 18.0674 9.2992 18.0674 9.7961 17.7979C9.9876 17.6941 10.1324 17.5541 10.2489 17.426C10.3593 17.3046 10.4818 17.1506 10.6156 16.9826L10.7206 16.8506C10.8845 16.6447 10.9259 16.5949 10.9663 16.5556C11.1326 16.3935 11.3466 16.2902 11.5762 16.2609C11.632 16.2538 11.6965 16.2523 11.9588 16.2523H12.0706C13.0432 16.2525 13.6608 16.2526 14.1908 16.1327C16.0307 15.7166 17.4672 14.2724 17.881 12.4235C18.0002 11.8908 18.0001 11.2701 18 10.2923V8.0819C18 6.61059 18 5.4458 17.9027 4.51762C17.8029 3.56659 17.5942 2.77639 17.1175 2.09195C16.7909 1.62321 16.3853 1.21549 15.919 0.88725C15.238 0.40792 14.4517 0.19808 13.5055 0.0978302C12.582 -1.37985e-05 11.4232 -7.85583e-06 9.9596 1.4417e-07ZM4.65416 1.61846C5.48847 1.53006 6.56709 1.52907 8.08455 1.52907H9.9154C11.4329 1.52907 12.5115 1.53006 13.3458 1.61846C14.1666 1.70542 14.6628 1.87003 15.0457 2.13958C15.3667 2.36546 15.6458 2.64606 15.8706 2.96869C16.1388 3.35375 16.3026 3.85269 16.3891 4.67782C16.4771 5.51654 16.4781 6.60084 16.4781 8.12617V10.1801C16.4781 11.3063 16.4734 11.743 16.3961 12.088C16.1112 13.3609 15.1224 14.3547 13.8566 14.6409C13.5134 14.7186 13.0792 14.7233 11.9588 14.7233H11.9194C11.7147 14.7232 11.548 14.7231 11.3845 14.744C10.828 14.815 10.3095 15.0655 9.9068 15.4579C9.7885 15.5732 9.6844 15.704 9.5566 15.8647L9.4407 16.0104C9.2887 16.2013 9.1977 16.315 9.1254 16.3946C9.0921 16.4311 9.0724 16.4495 9.0636 16.4571C9.0232 16.4755 8.97681 16.4755 8.93638 16.4571C8.92764 16.4495 8.90788 16.4311 8.87462 16.3946C8.80228 16.315 8.71127 16.2013 8.55934 16.0104L8.4434 15.8647C8.31562 15.704 8.21155 15.5732 8.09322 15.4579C7.69052 15.0655 7.172 14.815 6.6155 14.744C6.45196 14.7231 6.28528 14.7232 6.08063 14.7233H6.0412C4.92083 14.7233 4.48656 14.7186 4.1434 14.6409C2.87757 14.3547 1.88876 13.3609 1.60387 12.088C1.52663 11.743 1.52195 11.3063 1.52195 10.1801V8.12617C1.52195 6.60084 1.52294 5.51654 1.61089 4.67782C1.69741 3.85269 1.86121 3.35375 2.12944 2.96869C2.35418 2.64606 2.63333 2.36546 2.95426 2.13958C3.33722 1.87003 3.83342 1.70542 4.65416 1.61846Z" fill="var(--fill-0, #3F4448)"/>
</g>
</svg>
