<svg preserveAspectRatio="none" width="100%" height="100%" overflow="visible" style="display: block;" viewBox="0 0 24 24" fill="none" xmlns="http://www.w3.org/2000/svg">
<g id="users" clip-path="url(#clip0_1102_1847)">
<path id="Vector" fill-rule="evenodd" clip-rule="evenodd" d="M8.38272 2.4C5.93593 2.4 3.73397 4.12691 3.73397 6.50462C3.73397 8.88234 5.93593 10.6092 8.38272 10.6092C10.8295 10.6092 13.0315 8.88234 13.0315 6.50462C13.0315 4.12691 10.8295 2.4 8.38272 2.4ZM5.56357 6.50462C5.56357 5.34006 6.70678 4.19798 8.38272 4.19798C10.0587 4.19798 11.2019 5.34006 11.2019 6.50462C11.2019 7.66919 10.0587 8.81126 8.38272 8.81126C6.70678 8.81126 5.56357 7.66919 5.56357 6.50462ZM17.5426 5.66287C15.4825 5.66287 13.594 7.12058 13.594 9.16644C13.594 11.2123 15.4825 12.67 17.5426 12.67C19.6026 12.67 21.4912 11.2123 21.4912 9.16644C21.4912 7.12058 19.6026 5.66287 17.5426 5.66287ZM15.4236 9.16644C15.4236 8.33354 16.2536 7.46086 17.5426 7.46086C18.8315 7.46086 19.6616 8.33354 19.6616 9.16644C19.6616 9.99935 18.8315 10.872 17.5426 10.872C16.2536 10.872 15.4236 9.99935 15.4236 9.16644ZM3.09023 12.7464C1.17115 13.8971 2.09843e-05 15.9452 2.09843e-05 18.1531L9.5221e-06 18.6587C-6.36548e-05 18.8521 -0.000126088 19.0172 0.016615 19.167C0.158945 20.4404 1.1834 21.4444 2.47872 21.5837C2.63112 21.6001 2.79916 21.6 2.99642 21.6H13.7689C13.9662 21.6 14.1343 21.6001 14.2867 21.5837C15.582 21.4444 16.6066 20.4404 16.7489 19.167C16.7656 19.0172 16.7656 18.8521 16.7654 18.6587V18.1531C16.7654 15.9452 15.5944 13.8971 13.6752 12.7464C10.4262 10.7982 6.3393 10.7982 3.09023 12.7464ZM1.82963 18.1531C1.82963 16.573 2.66779 15.1058 4.04318 14.2812C6.70711 12.684 10.0583 12.684 12.7223 14.2812C14.0976 15.1058 14.9358 16.573 14.9358 18.1531V18.6144C14.9358 18.8753 14.9345 18.9325 14.9302 18.9707C14.8817 19.4045 14.5322 19.7485 14.0876 19.7964C14.0484 19.8006 13.9897 19.802 13.724 19.802H3.04144C2.77573 19.802 2.71709 19.8006 2.67785 19.7964C2.2332 19.7485 1.88376 19.4045 1.83528 18.9707C1.83102 18.9325 1.82963 18.8753 1.82963 18.6144V18.1531ZM21.4932 14.3131C20.2486 13.6042 18.8432 13.2601 17.4452 13.2768C17.3212 13.2784 17.197 13.2827 17.073 13.2899C16.57 13.3189 16.1838 13.7432 16.2137 14.2403C16.2436 14.7372 16.6777 15.1138 17.1806 15.0847C17.2762 15.0792 17.3719 15.0758 17.4676 15.0746C18.547 15.0618 19.626 15.3277 20.5758 15.8687C21.581 16.4413 22.1704 17.4434 22.1704 18.4987V18.8128C22.1705 18.9457 22.1693 18.9964 22.1652 19.031C22.1216 19.4011 21.7944 19.7467 21.3096 19.7963C21.2627 19.8011 21.1996 19.802 21.059 19.802H18.0968C17.593 19.802 17.1821 20.2031 17.1821 20.701C17.1821 21.1988 17.593 21.6 18.0968 21.6H21.0767C21.1907 21.6001 21.3467 21.6002 21.4988 21.5846C22.7716 21.4546 23.8333 20.5069 23.9826 19.2376C24.0002 19.088 24.0001 18.9356 24 18.8303V18.8288V18.8117V18.4987C24 16.7713 23.0354 15.1915 21.4932 14.3131Z" fill="var(--fill-0, #49454F)"/>
</g>
<defs>
<clipPath id="clip0_1102_1847">
<rect width="24" height="24" fill="white"/>
</clipPath>
</defs>
</svg>
