<svg preserveAspectRatio="none" width="100%" height="100%" overflow="visible" style="display: block;" viewBox="0 0 24 24" fill="none" xmlns="http://www.w3.org/2000/svg">
<g id="user">
<path id="Vector" fill-rule="evenodd" clip-rule="evenodd" d="M6.34938 5.16456C6.34938 2.20174 8.99485 0 11.9999 0C15.005 0 17.6504 2.20174 17.6504 5.16456C17.6504 8.12737 15.005 10.3291 11.9999 10.3291C8.99485 10.3291 6.34938 8.12737 6.34938 5.16456ZM11.9999 1.82279C9.74908 1.82279 8.13377 3.42946 8.13377 5.16456C8.13377 6.89965 9.74908 8.50633 11.9999 8.50633C14.2508 8.50633 15.8662 6.89965 15.8662 5.16456C15.8662 3.42946 14.2508 1.82279 11.9999 1.82279ZM5.91918 13.4502C9.65202 11.09 14.3479 11.09 18.0808 13.4502C20.2674 14.8327 21.6 17.2922 21.6 19.9416V20.5583C21.6 20.8007 21.6001 20.9939 21.5816 21.1676C21.4248 22.6474 20.295 23.8183 18.8611 23.981C18.6928 24.0001 18.5058 24 18.2716 24H5.72839C5.49424 24 5.30724 24.0001 5.1389 23.981C3.70498 23.8183 2.57515 22.6474 2.41831 21.1676C2.39989 20.9939 2.39994 20.8007 2.40001 20.5582V19.9416C2.40001 17.2922 3.73265 14.8327 5.91918 13.4502ZM17.1416 15.0329C13.9852 13.037 10.0149 13.037 6.85835 15.0329C5.20643 16.0774 4.198 17.9368 4.198 19.9416V20.5084C4.198 20.824 4.19935 20.9065 4.20563 20.9658C4.2711 21.5836 4.74203 22.0688 5.33537 22.1362C5.3922 22.1426 5.47163 22.144 5.77676 22.144H18.2232C18.5284 22.144 18.6078 22.1426 18.6647 22.1362C19.258 22.0688 19.7288 21.5836 19.7944 20.9658C19.8006 20.9065 19.802 20.824 19.802 20.5084V19.9416C19.802 17.9368 18.7936 16.0774 17.1416 15.0329Z" fill="var(--fill-0, #49454F)"/>
</g>
</svg>
