<svg preserveAspectRatio="none" width="100%" height="100%" overflow="visible" style="display: block;" viewBox="0 0 17 14" fill="none" xmlns="http://www.w3.org/2000/svg">
<g id="Group 134">
<path id="Vector" fill-rule="evenodd" clip-rule="evenodd" d="M5.93774 0C4.2046 0 2.64488 1.22322 2.64488 2.90744C2.64488 4.59165 4.2046 5.81487 5.93774 5.81487C7.67089 5.81487 9.23064 4.59165 9.23064 2.90744C9.23064 1.22322 7.67089 0 5.93774 0ZM3.94085 2.90744C3.94085 2.08254 4.75062 1.27357 5.93774 1.27357C7.12487 1.27357 7.93464 2.08254 7.93464 2.90744C7.93464 3.73233 7.12487 4.5413 5.93774 4.5413C4.75062 4.5413 3.94085 3.73233 3.94085 2.90744Z" fill="var(--fill-0, #3F4448)"/>
<path id="Vector_2" fill-rule="evenodd" clip-rule="evenodd" d="M12.426 2.31135C10.9668 2.31135 9.62904 3.34389 9.62904 4.79304C9.62904 6.24218 10.9668 7.27469 12.426 7.27469C13.8852 7.27469 15.2229 6.24218 15.2229 4.79304C15.2229 3.34389 13.8852 2.31135 12.426 2.31135ZM10.925 4.79304C10.925 4.20307 11.513 3.58492 12.426 3.58492C13.3389 3.58492 13.927 4.20307 13.927 4.79304C13.927 5.38301 13.3389 6.00116 12.426 6.00116C11.513 6.00116 10.925 5.38301 10.925 4.79304Z" fill="var(--fill-0, #3F4448)"/>
<path id="Vector_3" fill-rule="evenodd" clip-rule="evenodd" d="M2.18891 7.32859C0.82956 8.14366 1.48638e-05 9.59443 1.48638e-05 11.1583L6.7448e-06 11.5164C-4.50888e-05 11.6535 -8.93124e-05 11.7704 0.0117689 11.8765C0.112586 12.7785 0.838242 13.4896 1.75576 13.5883C1.86371 13.6 1.98273 13.5999 2.12246 13.5999H9.75297C9.89271 13.5999 10.0118 13.6 10.1197 13.5883C11.0372 13.4896 11.763 12.7785 11.8638 11.8765C11.8756 11.7704 11.8756 11.6535 11.8755 11.5164V11.1583C11.8755 9.59443 11.046 8.14366 9.68658 7.32859C7.38518 5.94866 4.49033 5.94866 2.18891 7.32859ZM1.29598 11.1583C1.29598 10.0391 1.88968 8.99986 2.86392 8.41574C4.75086 7.28439 7.12464 7.28439 9.0116 8.41574C9.98578 8.99986 10.5795 10.0391 10.5795 11.1583V11.4851C10.5795 11.6699 10.5786 11.7104 10.5755 11.7374C10.5412 12.0447 10.2936 12.2884 9.97873 12.3223C9.95093 12.3253 9.90937 12.3263 9.72118 12.3263H2.15435C1.96614 12.3263 1.9246 12.3253 1.89681 12.3223C1.58185 12.2884 1.33433 12.0447 1.29999 11.7374C1.29697 11.7104 1.29598 11.6699 1.29598 11.4851V11.1583Z" fill="var(--fill-0, #3F4448)"/>
<path id="Vector_4" d="M15.2243 8.43841C14.3427 7.93623 13.3473 7.69253 12.357 7.70435C12.2691 7.70545 12.1812 7.70851 12.0934 7.71361C11.7371 7.73418 11.4635 8.03474 11.4847 8.38681C11.5059 8.7388 11.8134 9.00553 12.1696 8.98496C12.2373 8.98105 12.3051 8.97867 12.3728 8.97782C13.1374 8.96872 13.9017 9.15708 14.5745 9.54026C15.2866 9.94588 15.704 10.6557 15.704 11.4032V11.6256C15.7041 11.7198 15.7032 11.7557 15.7003 11.7803C15.6695 12.0424 15.4377 12.2872 15.0943 12.3223C15.0611 12.3257 15.0163 12.3264 14.9168 12.3264H12.8186C12.4617 12.3264 12.1706 12.6105 12.1706 12.9631C12.1706 13.3158 12.4617 13.5999 12.8186 13.5999H14.9293C15.0101 13.6 15.1206 13.6001 15.2283 13.5891C16.1298 13.4969 16.8819 12.8257 16.9877 11.9265C17.0002 11.8206 17.0001 11.7127 17 11.6381V11.637V11.6249V11.4032C17 10.1796 16.3168 9.06061 15.2243 8.43841Z" fill="var(--fill-0, #3F4448)"/>
</g>
</svg>
