<svg preserveAspectRatio="none" width="100%" height="100%" overflow="visible" style="display: block;" viewBox="0 0 17 20" fill="none" xmlns="http://www.w3.org/2000/svg">
<g id="Group 132">
<path id="Vector" fill-rule="evenodd" clip-rule="evenodd" d="M3.91659 0.210716C4.22661 0.50284 4.23992 0.989709 3.94632 1.29817C3.2163 2.06513 2.6767 3.0097 2.39811 4.05571C2.28873 4.46637 1.86548 4.71105 1.45275 4.60223C1.04001 4.4934 0.794086 4.07228 0.903456 3.66162C1.24977 2.36135 1.9198 1.18988 2.82364 0.240294C3.11724 -0.0681654 3.60657 -0.0814081 3.91659 0.210716Z" fill="var(--fill-0, black)"/>
<path id="Vector_2" fill-rule="evenodd" clip-rule="evenodd" d="M13.123 0.210716C12.813 0.50284 12.7997 0.989709 13.0933 1.29817C13.8233 2.06513 14.3629 3.0097 14.6415 4.05571C14.7508 4.46637 15.1741 4.71105 15.5868 4.60223C15.9996 4.4934 16.2455 4.07228 16.1361 3.66162C15.7898 2.36135 15.1198 1.18988 14.2159 0.240294C13.9223 -0.0681654 13.433 -0.0814081 13.123 0.210716Z" fill="var(--fill-0, black)"/>
<path id="Vector_3" fill-rule="evenodd" clip-rule="evenodd" d="M8.4766 0C5.40886 0 2.92197 2.47439 2.92197 5.5267V8.60393C2.92197 9.08702 2.71987 9.54832 2.36416 9.87713L0.885838 11.2436C-0.559977 12.5801 -0.174541 14.9413 1.59504 15.779C2.48113 16.1985 3.39734 16.5333 4.33146 16.7833C4.35579 16.8386 4.38313 16.8987 4.41356 16.9629C4.56595 17.2841 4.8008 17.7166 5.13025 18.1537C5.7804 19.0163 6.88395 19.9999 8.5193 19.9999C10.1547 19.9999 11.2583 19.0163 11.9084 18.1537C12.2379 17.7166 12.4727 17.2841 12.6251 16.9629C12.655 16.8999 12.6818 16.8409 12.7058 16.7864C13.6314 16.5387 14.5394 16.207 15.418 15.7911C17.2056 14.9449 17.5518 12.5613 16.0783 11.2461L14.5401 9.87322C14.1741 9.54662 13.9689 9.07794 13.9776 8.5889L14.0304 5.62461C14.0854 2.53447 11.5828 0 8.4766 0ZM10.7031 17.1882C9.2538 17.3845 7.78319 17.3835 6.33398 17.186C6.34495 17.2009 6.35605 17.2158 6.36729 17.2307C6.87667 17.9066 7.57705 18.4614 8.5193 18.4614C9.4616 18.4614 10.162 17.9066 10.6714 17.2307C10.682 17.2165 10.6926 17.2023 10.7031 17.1882ZM14.7537 14.4019C10.8107 16.2685 6.20515 16.2577 2.25935 14.3898C1.46361 14.0131 1.30281 12.9581 1.93827 12.3707L3.41659 11.0042C4.08719 10.3843 4.4682 9.51468 4.4682 8.60393V5.5267C4.4682 3.32406 6.26282 1.53846 8.4766 1.53846C10.7182 1.53846 12.5241 3.36741 12.4844 5.59735L12.4316 8.56165C12.4149 9.49714 12.8076 10.3936 13.5076 11.0184L15.0458 12.3913C15.6976 12.9731 15.5445 14.0276 14.7537 14.4019Z" fill="var(--fill-0, black)"/>
</g>
</svg>
