<svg preserveAspectRatio="none" width="100%" height="100%" overflow="visible" style="display: block;" viewBox="0 0 24 24" fill="none" xmlns="http://www.w3.org/2000/svg">
<g id="clipboard-text" clip-path="url(#clip0_1102_1810)">
<path id="Vector" fill-rule="evenodd" clip-rule="evenodd" d="M8.19326 9.97668C7.69542 9.97668 7.29427 10.3876 7.29427 10.8915C7.29427 11.3954 7.69542 11.8063 8.19326 11.8063H15.8066C16.3044 11.8063 16.7056 11.3954 16.7056 10.8915C16.7056 10.3876 16.3044 9.97668 15.8066 9.97668H8.19326ZM8.19326 14.4108C7.69542 14.4108 7.29427 14.8217 7.29427 15.3256C7.29427 15.8294 7.69542 16.2403 8.19326 16.2403H15.8066C16.3044 16.2403 16.7056 15.8294 16.7056 15.3256C16.7056 14.8217 16.3044 14.4108 15.8066 14.4108H8.19326ZM14.745 7.75122e-07H9.25496C9.02372 -1.16564e-05 8.80721 -2.32916e-05 8.62453 0.01268C8.42695 0.0264196 8.20424 0.0580265 7.9764 0.154218C7.48939 0.359816 7.10292 0.753967 6.90154 1.2495C6.84359 1.39207 6.8096 1.53258 6.78888 1.66643C6.27274 1.67531 5.85833 1.70525 5.48438 1.80737C4.04767 2.19973 2.92634 3.3432 2.54178 4.806C2.39953 5.34708 2.39974 5.97517 2.40002 6.8718L2.40006 16.5007C2.40004 18.012 2.40001 19.2383 2.52751 20.2049C2.6603 21.2116 2.94606 22.0721 3.61853 22.7575C4.29119 23.4431 5.1361 23.7346 6.12454 23.87C7.07311 24 8.27664 24 9.75911 24H14.2409C15.7234 24 16.9268 24 17.8754 23.87C18.8639 23.7346 19.7088 23.4431 20.3815 22.7575C21.0539 22.0721 21.3397 21.2116 21.4724 20.2049C21.6 19.2383 21.6 18.012 21.5999 16.5008L21.6 6.87184C21.6002 5.97526 21.6005 5.34707 21.4582 4.806C21.0737 3.3432 19.9523 2.19973 18.5156 1.80737C18.1416 1.70524 17.7272 1.67531 17.211 1.66643C17.1904 1.53258 17.1563 1.39207 17.0984 1.2495C16.897 0.753967 16.5106 0.359816 16.0235 0.154218C15.7957 0.0580265 15.573 0.0264196 15.3754 0.01268C15.1927 -2.32894e-05 14.9762 -1.16564e-05 14.745 7.75122e-07ZM8.74711 1.83803C8.86102 1.83011 9.01514 1.82962 9.28092 1.82962H14.719C14.9848 1.82962 15.139 1.83011 15.2528 1.83803C15.305 1.84166 15.3325 1.84608 15.3434 1.84822C15.3824 1.86718 15.4142 1.89944 15.4331 1.93986C15.4351 1.95098 15.4396 1.9791 15.4432 2.03323C15.451 2.1495 15.4514 2.30676 15.4514 2.57759C15.4514 2.84842 15.451 3.00568 15.4432 3.12194C15.4396 3.17608 15.4351 3.20419 15.4331 3.21532C15.4142 3.25574 15.3824 3.28801 15.3434 3.30696C15.3325 3.3091 15.305 3.31351 15.2528 3.31715C15.139 3.32507 14.9848 3.32556 14.719 3.32556H9.28092C9.01514 3.32556 8.86102 3.32507 8.74711 3.31715C8.69484 3.31351 8.66746 3.3091 8.65646 3.30696C8.61744 3.28801 8.58568 3.25574 8.56688 3.21532C8.56478 3.20419 8.56037 3.17608 8.55674 3.12194C8.54896 3.00568 8.54848 2.84842 8.54848 2.57759C8.54848 2.30676 8.54896 2.1495 8.55674 2.03323C8.56037 1.9791 8.56478 1.95098 8.56688 1.93987C8.58568 1.89944 8.61744 1.86716 8.65646 1.84822C8.66746 1.84608 8.69484 1.84166 8.74711 1.83803ZM5.95044 3.57444C6.12899 3.52568 6.34736 3.50516 6.7902 3.49721C6.81104 3.62851 6.84481 3.7661 6.90154 3.90568C7.10292 4.4012 7.48939 4.79536 7.9764 5.00096C8.20424 5.09716 8.42695 5.12875 8.62453 5.14249C8.80722 5.1552 9.02369 5.15519 9.25496 5.15518H14.745C14.9762 5.15519 15.1927 5.1552 15.3754 5.14249C15.573 5.12875 15.7957 5.09716 16.0235 5.00096C16.5106 4.79536 16.897 4.4012 17.0984 3.90568C17.1551 3.7661 17.1889 3.62851 17.2097 3.49721C17.6526 3.50516 17.871 3.52567 18.0496 3.57444C18.8648 3.79709 19.5025 4.44641 19.7213 5.27885C19.7942 5.55622 19.8019 5.92152 19.8019 7.01167V16.4341C19.8019 18.0276 19.8001 19.1309 19.6904 19.9614C19.5844 20.7658 19.3924 21.1762 19.109 21.4648C18.8261 21.7534 18.424 21.9487 17.6354 22.0568C16.8209 22.1684 15.7388 22.1704 14.1752 22.1704H9.82476C8.26114 22.1704 7.17906 22.1684 6.3645 22.0568C5.57598 21.9487 5.17394 21.7534 4.8909 21.4648C4.60765 21.1762 4.4156 20.7658 4.3095 19.9614C4.19993 19.1309 4.19803 18.0276 4.19803 16.4341V7.01166C4.19803 5.92152 4.20575 5.55622 4.27867 5.27885C4.49752 4.44641 5.13518 3.79709 5.95044 3.57444Z" fill="var(--fill-0, #49454F)"/>
</g>
<defs>
<clipPath id="clip0_1102_1810">
<rect width="24" height="24" fill="white"/>
</clipPath>
</defs>
</svg>
