<svg preserveAspectRatio="none" width="100%" height="100%" overflow="visible" style="display: block;" viewBox="0 0 17 17" fill="none" xmlns="http://www.w3.org/2000/svg">
<g id="Group 135">
<path id="Vector" fill-rule="evenodd" clip-rule="evenodd" d="M6.27078 0.685158L6.1456 0.741475C5.33801 1.10446 4.63089 1.42949 3.79449 1.81394L3.39848 1.99593C2.64708 2.34114 2.01197 2.63294 1.51923 2.95695C0.986604 3.30719 0.57951 3.71935 0.303515 4.321C-0.221905 5.46637 0.026537 6.36961 0.360503 7.58382L0.391291 7.69584C1.5879 12.0547 4.71571 14.8498 6.59224 16.1955L6.66126 16.245C7.22821 16.6524 7.7137 17.0012 8.50029 17C9.28683 16.9989 9.7719 16.6484 10.3383 16.2391L10.4074 16.1892C12.2804 14.8382 15.4057 12.0367 16.6059 7.6964L16.6367 7.58517C16.9726 6.3727 17.2225 5.47067 16.6974 4.32315C16.1715 3.17372 15.1407 2.7011 13.7383 2.05805L13.2068 1.81396C12.3704 1.42948 11.6633 1.10449 10.8557 0.741475L10.7305 0.685167C9.84434 0.28628 9.20825 0 8.50067 0C7.79307 0 7.15703 0.286271 6.27078 0.685158ZM6.72893 2.08404C7.79072 1.6068 8.13468 1.46782 8.50067 1.46782C8.86664 1.46782 9.21061 1.6068 10.2724 2.08404C11.0741 2.44439 11.7754 2.76675 12.6123 3.15142L12.962 3.31211C13.7934 3.69416 14.3317 3.95095 14.6982 4.18968C15.0614 4.42619 15.2517 4.64227 15.3891 4.94253C15.5315 5.25368 15.58 5.50551 15.5489 5.84484C15.5172 6.18936 15.4036 6.62308 15.2167 7.29897C14.1469 11.1677 11.3333 13.7219 9.57262 14.9918C9.24716 15.2266 9.05261 15.3613 8.90055 15.4381C8.75331 15.5126 8.64763 15.532 8.49828 15.5322C8.34887 15.5325 8.24318 15.5134 8.09597 15.4394C7.94396 15.3631 7.74936 15.2293 7.4238 14.9958C5.66209 13.7325 2.84773 11.1859 1.78125 7.30109C1.59528 6.62363 1.48222 6.1888 1.45094 5.84373C1.42014 5.50385 1.46889 5.25206 1.61129 4.94164C1.74709 4.6456 1.94144 4.42719 2.30276 4.18959C2.69388 3.93239 3.22912 3.6844 4.03938 3.31211L4.38892 3.15146C5.22584 2.76677 5.9272 2.4444 6.72893 2.08404Z" fill="var(--fill-0, #3F4448)"/>
<path id="Vector_2" fill-rule="evenodd" clip-rule="evenodd" d="M11.7408 5.60047C12.0481 5.83757 12.1051 6.27895 11.868 6.5863L8.78979 10.5766C8.78327 10.585 8.77676 10.5935 8.77005 10.6021C8.66324 10.7408 8.54253 10.8974 8.42209 11.0149C8.28009 11.1535 8.0516 11.3261 7.72147 11.3425C7.39134 11.3588 7.14692 11.2096 6.99193 11.0858C6.8605 10.9807 6.72484 10.8367 6.60486 10.7093C6.59743 10.7014 6.59005 10.6936 6.58274 10.6858L5.17713 9.19508C4.91084 8.9126 4.92392 8.46777 5.20636 8.20147C5.4888 7.93517 5.93364 7.94825 6.19994 8.23069L7.60555 9.72152C7.61866 9.7354 7.63119 9.74872 7.6432 9.76137C7.65391 9.74758 7.66507 9.73313 7.67674 9.71793L10.755 5.72767C10.992 5.42031 11.4335 5.36336 11.7408 5.60047Z" fill="var(--fill-0, #3F4448)"/>
</g>
</svg>
