<svg preserveAspectRatio="none" width="100%" height="100%" overflow="visible" style="display: block;" viewBox="0 0 25 25" fill="none" xmlns="http://www.w3.org/2000/svg">
<g id="Group 61">
<path id="Vector" d="M12.7692 5.41505C12.6195 5.36548 12.458 5.36548 12.3084 5.41505C12.1184 5.47799 11.9951 5.63766 11.8966 5.80327C11.7967 5.9714 11.6902 6.20383 11.5595 6.48919L11.5532 6.50281C11.4649 6.69573 11.4441 6.73174 11.4191 6.75601C11.4024 6.77237 11.3833 6.78621 11.3625 6.79715C11.3317 6.81334 11.2911 6.82198 11.0803 6.84642L11.0271 6.85259C10.7317 6.88684 10.491 6.91473 10.3094 6.9548C10.1307 6.99421 9.94959 7.05649 9.83124 7.20396C9.71933 7.34342 9.66227 7.51901 9.67084 7.69762C9.67991 7.88648 9.78985 8.04335 9.91124 8.18026C10.0346 8.31941 10.2129 8.48344 10.4318 8.68477L10.4422 8.69438C10.6054 8.84456 10.6347 8.8771 10.6501 8.90939C10.6626 8.93544 10.6703 8.96349 10.673 8.99224C10.6763 9.02789 10.668 9.07081 10.605 9.28349L10.5908 9.33117C10.488 9.67828 10.4047 9.95981 10.3666 10.1785C10.3293 10.3929 10.3202 10.6216 10.4542 10.8054C10.5241 10.9013 10.6163 10.9787 10.7228 11.0311C10.9269 11.1315 11.1506 11.0832 11.3554 11.0095C11.5643 10.9344 11.8272 10.8038 12.1515 10.6428L12.2453 10.5963C12.4472 10.496 12.4879 10.4808 12.5255 10.4784C12.5351 10.4778 12.5448 10.4777 12.5545 10.4783C12.592 10.4803 12.6329 10.4952 12.8356 10.5939L12.9399 10.6447C13.2608 10.8008 13.5212 10.9275 13.7281 11.0002C13.931 11.0715 14.1523 11.1178 14.3541 11.0188C14.4634 10.9651 14.5577 10.8851 14.6283 10.7859C14.7587 10.6027 14.7488 10.3769 14.7112 10.165C14.673 9.94916 14.5899 9.67169 14.4879 9.32978L14.474 9.2836C14.4104 9.07085 14.4019 9.02788 14.4052 8.99221C14.4077 8.96328 14.4155 8.93507 14.428 8.90888C14.4435 8.87656 14.4727 8.84396 14.6362 8.69362L14.6466 8.68403C14.8651 8.48302 15.0431 8.31924 15.1663 8.18031C15.2876 8.04363 15.3974 7.88703 15.4067 7.69849C15.4155 7.51928 15.3583 7.34308 15.2458 7.20327C15.1274 7.0562 14.9466 6.99408 14.7681 6.95474C14.5867 6.91476 14.3465 6.88691 14.0516 6.85271L13.9973 6.84642C13.7865 6.82198 13.7458 6.81334 13.7151 6.79715C13.6942 6.78621 13.6752 6.77237 13.6584 6.75601C13.6335 6.73174 13.6127 6.69573 13.5244 6.50281L13.5181 6.4892C13.3874 6.20384 13.2809 5.9714 13.1809 5.80327C13.0824 5.63766 12.9592 5.47799 12.7692 5.41505Z" fill="var(--fill-0, #3E5354)"/>
<path id="Vector_2" fill-rule="evenodd" clip-rule="evenodd" d="M3.55236 2.82591C3.87776 1.23226 5.2659 0 6.96951 0H18.0292C19.7328 0 21.1209 1.23226 21.4463 2.82591H22.5673C24.1012 2.82591 25.2515 4.25346 24.9506 5.78352L24.2302 9.44833C23.961 10.8176 23.1715 12.0234 22.033 12.8036L20.1341 14.1051C20.1022 14.325 20.0709 14.5075 20.0285 14.6824C19.6477 16.2553 18.5806 17.5646 17.1316 18.2365C16.8795 18.3535 16.6041 18.4468 16.204 18.5825L13.541 19.4856V22.8806H16.666C17.2413 22.8806 17.7077 23.355 17.7077 23.9403C17.7077 24.5256 17.2413 25 16.666 25H8.33266C7.75737 25 7.29099 24.5256 7.29099 23.9403C7.29099 23.355 7.75737 22.8806 8.33266 22.8806H11.4577L11.4577 19.4856L8.79476 18.5825C8.39459 18.4468 8.11921 18.3535 7.86706 18.2365C6.41816 17.5646 5.35099 16.2553 4.97019 14.6824C4.92786 14.5075 4.89658 14.325 4.86467 14.1051L2.96568 12.8036C1.8273 12.0234 1.03769 10.8176 0.768496 9.44833L0.0480246 5.78352C-0.252774 4.25346 0.897594 2.82591 2.43138 2.82591H3.55236ZM3.63555 4.94536H2.43138C2.21227 4.94536 2.04793 5.14929 2.0909 5.36787L2.81138 9.03267C2.9729 9.85424 3.44666 10.5777 4.12969 11.0458L4.48601 11.29L3.63555 4.94536ZM12.4993 17.6047L15.4913 16.59C15.9655 16.4293 16.1287 16.3724 16.2676 16.3081C17.1369 15.9049 17.7772 15.1193 18.0056 14.1756C18.0422 14.0249 18.0669 13.8511 18.1344 13.3474L19.4217 3.74246C19.5369 2.88394 18.8809 2.11944 18.0292 2.11944H6.96951C6.11781 2.11944 5.46185 2.88394 5.57692 3.74246L6.86437 13.3474C6.93191 13.8511 6.9566 14.0249 6.99308 14.1756C7.22155 15.1193 7.86185 15.9049 8.7312 16.3081C8.86998 16.3724 9.03326 16.4293 9.50742 16.59L12.4993 17.6047ZM21.3631 4.94536L20.5127 11.29L20.8691 11.0458C21.552 10.5777 22.0258 9.85424 22.1873 9.03267L22.9078 5.36787C22.9508 5.14929 22.7865 4.94536 22.5673 4.94536H21.3631Z" fill="var(--fill-0, #3E5354)"/>
</g>
</svg>
