<svg width="512" height="512" viewBox="0 0 512 512" fill="none" xmlns="http://www.w3.org/2000/svg">
<g clip-path="url(#clip0_814_2)">
<path d="M512 0H0V512H512V0Z" fill="url(#paint0_linear_814_2)"/>
<path d="M338.266 333.15C330.388 345.02 321.251 354.838 315.134 360.853L300.306 346.157L301.86 344.702C353.352 296.515 353.58 214.4 301.87 165.958L255.998 123L210.126 165.958C158.487 214.334 158.546 296.407 210.126 344.702L211.68 346.157L196.866 360.853C190.749 354.838 181.612 345.02 173.734 333.15H149.5C168.258 368.012 198.126 388.997 198.126 388.997L226.91 360.412L257.423 388.997H287.834L224.352 329.545C203.897 310.389 192.167 283.344 192.167 255.337C192.167 227.33 203.897 200.275 224.352 181.119L255.998 151.486L287.645 181.133C308.1 200.278 319.816 227.334 319.816 255.341C319.816 303.797 285.538 331.517 285.541 331.517L270.763 316.87C270.763 316.87 299.022 294.658 299.022 255.341C299.022 233.055 289.699 211.526 273.43 196.295L255.998 179.972L238.567 196.295C222.298 211.526 212.964 233.055 212.964 255.341C212.964 277.626 222.298 299.145 238.567 314.376L285.09 360.416L313.874 389C313.874 389 343.343 368.764 362.5 333.154H338.266V333.15ZM259.207 299.215L256.002 302.223L252.796 299.215C240.698 287.894 233.762 271.89 233.762 255.337C233.762 238.784 240.698 222.78 252.796 211.449L256.002 208.455L259.207 211.449C271.305 222.78 278.231 238.774 278.231 255.337C278.231 271.901 271.309 287.894 259.207 299.215Z" fill="white"/>
</g>
<defs>
<linearGradient id="paint0_linear_814_2" x1="512" y1="1.86861e-05" x2="-115" y2="674.75" gradientUnits="userSpaceOnUse">
<stop stop-color="#3243DA"/>
<stop offset="0.933346" stop-color="#1B2474"/>
</linearGradient>
<clipPath id="clip0_814_2">
<rect width="512" height="512" rx="150" fill="white"/>
</clipPath>
</defs>
</svg>
