<svg preserveAspectRatio="none" width="100%" height="100%" overflow="visible" style="display: block;" viewBox="0 0 25 25" fill="none" xmlns="http://www.w3.org/2000/svg">
<g id="Group 137">
<path id="Vector" fill-rule="evenodd" clip-rule="evenodd" d="M12.5001 0C12.099 0 11.7507 0.0998899 11.4267 0.231933C11.1331 0.351573 10.8035 0.522283 10.446 0.707451L2.53286 4.80538C1.91796 5.12373 1.35294 5.41624 0.950599 5.70555C0.534039 6.0051 0.00220122 6.50416 6.75232e-06 7.30041C-0.00217938 8.09669 0.526914 8.59858 0.941807 8.90033C1.34255 9.19178 1.90594 9.48731 2.51907 9.80892L10.4247 13.9569C10.7858 14.1464 11.1185 14.321 11.415 14.4435C11.7422 14.5785 12.0943 14.6807 12.5001 14.6807C12.906 14.6807 13.258 14.5785 13.5853 14.4435C13.8817 14.3211 14.2144 14.1464 14.5754 13.9569L22.481 9.80899C23.0942 9.48735 23.6577 9.19181 24.0584 8.90033C24.4733 8.59858 25.0025 8.09669 25.0002 7.30041C24.998 6.50416 24.4662 6.0051 24.0497 5.70555C23.6473 5.41623 23.0823 5.12371 22.4673 4.80536L14.5542 0.707437C14.1968 0.522283 13.8672 0.351573 13.5736 0.231933C13.2496 0.0998899 12.9012 0 12.5001 0ZM12.2525 2.19949C12.4229 2.13003 12.4798 2.12919 12.5001 2.12919C12.5204 2.12919 12.5773 2.13003 12.7478 2.19949C12.9385 2.27724 13.1797 2.40098 13.5861 2.61144L21.3927 6.65416C21.9547 6.94523 22.3349 7.14411 22.597 7.30683C22.3359 7.47094 21.9567 7.67186 21.3963 7.96591L13.5974 12.058C13.1869 12.2733 12.9432 12.3999 12.7504 12.4795C12.578 12.5507 12.5205 12.5515 12.5001 12.5515C12.4797 12.5515 12.4222 12.5507 12.2498 12.4795C12.057 12.3999 11.8133 12.2733 11.403 12.058L3.60394 7.96591C3.04352 7.67185 2.66439 7.47094 2.40322 7.30683C2.6653 7.14412 3.04553 6.94523 3.60757 6.65417L11.4141 2.61144C11.8205 2.40098 12.0617 2.27724 12.2525 2.19949Z" fill="var(--fill-0, #645147)"/>
<path id="Vector_2" d="M1.59407 12.0201C1.06962 11.7425 0.414809 11.935 0.131598 12.4529C-0.152121 12.9716 0.0459447 13.6176 0.571269 13.8958L10.4099 19.1053C10.7734 19.2978 11.1083 19.4751 11.4068 19.5994C11.7361 19.7365 12.0908 19.8404 12.5 19.8404C12.9091 19.8404 13.2639 19.7365 13.5932 19.5994C13.8918 19.4751 14.2267 19.2978 14.5901 19.1053L24.4288 13.8958C24.9541 13.6176 25.1522 12.9716 24.8684 12.4529C24.5852 11.935 23.9305 11.7425 23.406 12.0201L13.605 17.2097C13.1919 17.4284 12.9464 17.5572 12.7522 17.6382C12.5785 17.7104 12.5205 17.7112 12.5 17.7112C12.4794 17.7112 12.4215 17.7104 12.2479 17.6382C12.0536 17.5572 11.8081 17.4284 11.395 17.2097L1.59407 12.0201Z" fill="var(--fill-0, #645147)"/>
<path id="Vector_3" d="M1.59407 17.1797C1.06962 16.902 0.414809 17.0946 0.131598 17.6124C-0.152121 18.1312 0.0459447 18.7772 0.571269 19.0552L10.4099 24.2649C10.7734 24.4574 11.1083 24.6347 11.4068 24.759C11.7361 24.8961 12.0908 25 12.5 25C12.9091 25 13.2639 24.8961 13.5932 24.759C13.8917 24.6347 14.2265 24.4574 14.59 24.2649L24.4288 19.0552C24.9541 18.7772 25.1522 18.1312 24.8684 17.6124C24.5852 17.0946 23.9305 16.902 23.406 17.1797L13.605 22.3693C13.1919 22.588 12.9464 22.7168 12.7522 22.7978C12.5785 22.87 12.5205 22.8708 12.5 22.8708C12.4794 22.8708 12.4215 22.87 12.2479 22.7978C12.0536 22.7168 11.8081 22.588 11.395 22.3693L1.59407 17.1797Z" fill="var(--fill-0, #645147)"/>
</g>
</svg>
