<svg preserveAspectRatio="none" width="100%" height="100%" overflow="visible" style="display: block;" viewBox="0 0 24 25" fill="none" xmlns="http://www.w3.org/2000/svg">
<g id="Group 30">
<path id="Vector" fill-rule="evenodd" clip-rule="evenodd" d="M13.5675 1.94641C13.3904 1.92445 13.1488 1.92295 12.7221 1.923L10.9614 1.92321C10.5348 1.92326 10.2932 1.92483 10.1163 1.94683C10.0373 1.95663 9.9969 1.968 9.97806 1.9747C9.96444 1.97954 9.95968 1.98329 9.95968 1.98329C9.95586 1.98618 9.95179 1.98934 9.94329 2.00101C9.93228 2.01614 9.91055 2.0502 9.87832 2.12147C9.80524 2.28306 9.73041 2.51242 9.59839 2.92606C9.56269 3.03791 9.52586 3.15441 9.48808 3.27518C9.18037 4.25916 8.48694 4.99209 7.71799 5.44292C6.97711 5.87729 6.07635 6.10177 5.1599 5.89518C4.99909 5.85893 4.84496 5.82486 4.6984 5.79301C4.27904 5.70185 4.04135 5.65177 3.86164 5.63563C3.71754 5.62269 3.68314 5.63983 3.67563 5.64356C3.67563 5.64356 3.6411 5.65152 3.5446 5.78214C3.43119 5.93565 3.30115 6.15929 3.07506 6.55331L2.29975 7.90448C2.07342 8.29892 1.94642 8.5233 1.87159 8.69748C1.83819 8.7752 1.82727 8.8166 1.82368 8.8343C1.82305 8.83736 1.82242 8.84128 1.82242 8.84128L1.82416 8.84568C1.82952 8.85852 1.84559 8.89207 1.88951 8.95494C1.98972 9.09834 2.14792 9.2764 2.43739 9.59761C2.5353 9.70626 2.6386 9.8201 2.74685 9.93845C3.40459 10.6575 3.67169 11.61 3.67169 12.5001C3.67169 13.3899 3.40468 14.3417 2.74733 15.0604C2.63872 15.1791 2.5351 15.2933 2.43691 15.4022C2.14739 15.7235 1.98917 15.9016 1.88894 16.045C1.84501 16.1079 1.82893 16.1414 1.82358 16.1543L1.82183 16.1587C1.82183 16.1587 1.82246 16.1626 1.82309 16.1658C1.82668 16.1834 1.83762 16.2249 1.87102 16.3026C1.94588 16.4767 2.07292 16.7012 2.29931 17.0956L3.07475 18.4467C3.30085 18.8406 3.43089 19.0642 3.5443 19.2178C3.63954 19.3466 3.67435 19.3558 3.67435 19.3558C3.68185 19.3596 3.71719 19.3771 3.86127 19.3642C4.04096 19.348 4.2786 19.298 4.6979 19.2068C4.8443 19.175 4.99823 19.1409 5.15886 19.1047C6.0756 18.8981 6.97664 19.1228 7.71773 19.5572C8.48681 20.0081 9.1804 20.7413 9.48816 21.7254C9.52589 21.846 9.56268 21.9625 9.59833 22.0742C9.73037 22.4879 9.8052 22.7172 9.8783 22.8789C9.91053 22.9501 9.93227 22.9842 9.94328 22.9993C9.95178 23.011 9.95556 23.0139 9.95937 23.0168C9.95937 23.0168 9.96443 23.0208 9.97804 23.0256C9.99689 23.0324 10.0373 23.0437 10.1163 23.0535C10.2932 23.0755 10.5348 23.0771 10.9615 23.0771H12.7221C13.1488 23.0771 13.3904 23.0755 13.5675 23.0535C13.6463 23.0437 13.6868 23.0324 13.7056 23.0256C13.7192 23.0208 13.7241 23.0171 13.7241 23.0171C13.7279 23.0142 13.732 23.011 13.7404 22.9993C13.7514 22.9842 13.7731 22.9501 13.8054 22.8789C13.8785 22.7172 13.9533 22.4879 14.0854 22.0742C14.1209 21.9626 14.1578 21.8464 14.1954 21.7259C14.5033 20.7414 15.1971 20.0081 15.9664 19.557C16.7078 19.1222 17.6092 18.8974 18.5264 19.1041C18.6866 19.1403 18.8401 19.1742 18.9862 19.2059C18.9885 19.2064 18.991 19.207 18.9935 19.2075C18.9974 19.2083 19.0012 19.2091 19.0049 19.21C19.4126 19.2985 19.6458 19.3474 19.8227 19.3633C19.9668 19.3762 20.0013 19.3591 20.0088 19.3553C20.0088 19.3553 20.0446 19.3455 20.1399 19.2167C20.2533 19.0633 20.3833 18.8397 20.6093 18.4458L21.3849 17.0947C21.6113 16.7003 21.7383 16.4758 21.8131 16.3016C21.8466 16.2239 21.8575 16.1825 21.861 16.1647C21.8617 16.1617 21.8624 16.1578 21.8624 16.1578L21.8606 16.1534C21.8552 16.1405 21.8392 16.107 21.7952 16.0441C21.695 15.9006 21.5368 15.7226 21.2474 15.4013C21.1488 15.292 21.0447 15.1774 20.9358 15.0583C20.2788 14.3403 20.012 13.3891 20.012 12.5001C20.012 11.6105 20.2789 10.6585 20.9363 9.93993C21.0449 9.82127 21.1484 9.70713 21.2467 9.5982C21.5362 9.2769 21.6945 9.09877 21.7947 8.95532C21.8387 8.89245 21.8547 8.85888 21.86 8.84603L21.8618 8.84161C21.8618 8.84161 21.8612 8.83769 21.8605 8.83461C21.857 8.8169 21.846 8.77549 21.8126 8.69774C21.7377 8.52353 21.6106 8.29911 21.3842 7.90463L20.6085 6.55363C20.3824 6.15976 20.2524 5.93621 20.1389 5.78277C20.0438 5.65397 20.0089 5.64472 20.0089 5.64472C20.0014 5.64098 19.966 5.6234 19.822 5.63634C19.6424 5.65248 19.4047 5.70255 18.9855 5.79367C18.8392 5.82547 18.6854 5.85947 18.5249 5.89565C17.6081 6.10229 16.7071 5.87768 15.966 5.44315C15.197 4.99221 14.5034 4.25912 14.1956 3.27497C14.1579 3.1542 14.1212 3.03771 14.0854 2.92588C13.9534 2.51212 13.8785 2.2827 13.8054 2.12106C13.7731 2.04977 13.7514 2.01571 13.7404 2.00058C13.732 1.98891 13.7281 1.98597 13.7243 1.98308C13.7243 1.98308 13.7193 1.9791 13.7056 1.97426C13.6868 1.96756 13.6464 1.95621 13.5675 1.94641ZM13.78 0.0365762C14.1142 0.078038 14.4605 0.173727 14.7868 0.421188C15.1092 0.665552 15.3051 0.974078 15.4492 1.29254C15.5755 1.57187 15.6846 1.91405 15.7979 2.26902L15.8116 2.31185C15.8484 2.4273 15.8864 2.54752 15.9254 2.67214C16.0593 3.10043 16.3879 3.4908 16.8505 3.76206C17.2887 4.01901 17.7421 4.10577 18.1445 4.01506C18.3096 3.97787 18.4678 3.94291 18.6181 3.91019L18.66 3.9011C19.0222 3.8223 19.3672 3.74727 19.6675 3.72029C20.0077 3.68972 20.363 3.71171 20.7304 3.87902C21.1029 4.04869 21.3633 4.31338 21.575 4.59981C21.7626 4.85372 21.9481 5.17701 22.1439 5.518L22.9646 6.94759C23.1601 7.2879 23.346 7.6116 23.4713 7.90314C23.6121 8.23088 23.7166 8.60438 23.6739 9.03888C23.6317 9.46952 23.4621 9.80836 23.2605 10.0969C23.0841 10.3493 22.8442 10.6153 22.597 10.8897L22.5663 10.9237C22.4651 11.036 22.3584 11.1535 22.2466 11.2758C21.9856 11.5611 21.8334 11.9942 21.8334 12.5001C21.8334 13.0053 21.9854 13.4376 22.2459 13.7224C22.3581 13.8451 22.4654 13.9631 22.567 14.0759L22.5976 14.1099C22.8449 14.3842 23.0847 14.6501 23.261 14.9025C23.4626 15.191 23.6324 15.5299 23.6746 15.9604C23.7172 16.3949 23.6127 16.7683 23.472 17.096C23.3467 17.3875 23.1609 17.7112 22.9655 18.0514L22.1449 19.4812C21.9492 19.8222 21.7637 20.1456 21.5759 20.3996C21.3643 20.686 21.1039 20.9508 20.7313 21.1205C20.3639 21.2879 20.0087 21.3099 19.6684 21.2793C19.368 21.2524 19.023 21.1772 18.6608 21.0984L18.6001 21.0852C18.4556 21.0538 18.3039 21.0203 18.1462 20.9847C17.7433 20.8939 17.2895 20.9808 16.8509 21.238C16.3879 21.5095 16.0591 21.9001 15.925 22.3288C15.8862 22.4531 15.8483 22.573 15.8114 22.6881L15.7979 22.731C15.6846 23.0859 15.5755 23.4281 15.4492 23.7074C15.3051 24.0258 15.1092 24.3343 14.787 24.5787C14.4606 24.8262 14.1143 24.9218 13.7803 24.9633C13.4839 25.0001 13.1333 25.0001 12.765 25H10.9187C10.5504 25.0001 10.1997 25.0001 9.90347 24.9633C9.56932 24.9218 9.22306 24.8262 8.89674 24.5787C8.57451 24.3343 8.37855 24.0258 8.23455 23.7074C8.10823 23.4281 7.99909 23.0859 7.88588 22.731L7.8722 22.6881C7.83539 22.5729 7.79743 22.4527 7.75849 22.3283C7.62456 21.9 7.29598 21.5096 6.83334 21.2383C6.39511 20.9814 5.94173 20.8946 5.53922 20.9854C5.3741 21.0226 5.21581 21.0576 5.06525 21.0903L5.0234 21.0993C4.6611 21.1781 4.31613 21.2533 4.01575 21.2802C3.67546 21.3108 3.32021 21.2888 2.95279 21.1214C2.58021 20.9517 2.31983 20.687 2.10813 20.4005C1.92047 20.1466 1.73496 19.8233 1.53927 19.4822L0.718696 18.0525C0.523328 17.7122 0.337485 17.3885 0.212222 17.097C0.0714067 16.7692 -0.0330012 16.3958 0.00964346 15.9613C0.0519066 15.5308 0.221551 15.192 0.423143 14.9034C0.599485 14.651 0.839327 14.385 1.08664 14.1106L1.11725 14.0767C1.21846 13.9645 1.32521 13.8468 1.43709 13.7245C1.69806 13.4392 1.85021 13.006 1.85021 12.5001C1.85021 11.9936 1.69792 11.56 1.4366 11.2743C1.32508 11.1524 1.21866 11.0351 1.11773 10.9231C1.10752 10.9118 1.09733 10.9005 1.08713 10.8891C0.839854 10.6149 0.600051 10.3488 0.423735 10.0965C0.222157 9.80806 0.052525 9.46931 0.0102488 9.03876C-0.0324157 8.60436 0.0719592 8.23093 0.212722 7.90323C0.337946 7.61175 0.523735 7.28809 0.719038 6.94781C0.726617 6.93461 0.734209 6.92139 0.741814 6.90813L1.51714 5.55696C1.5246 5.54394 1.53205 5.53096 1.53948 5.518C1.73516 5.17689 1.92067 4.8535 2.10833 4.5995C2.32002 4.31296 2.5804 4.04816 2.95302 3.87841C3.32047 3.71101 3.67575 3.68901 4.01607 3.71958C4.31648 3.74656 4.6615 3.82162 5.02385 3.90043C5.03777 3.90346 5.05173 3.9065 5.06571 3.90954C5.06571 3.90954 5.06269 3.90626 5.09948 3.9183L5.13327 3.92708L5.06571 3.90954C5.21644 3.9423 5.37492 3.97733 5.54025 4.01459C5.94252 4.10527 6.39567 4.01858 6.83365 3.76177C7.29611 3.49064 7.62455 3.10043 7.75843 2.67233C7.7974 2.54768 7.83541 2.42746 7.87226 2.31201C7.87682 2.29772 7.88138 2.28345 7.88593 2.26918C7.99914 1.91431 8.10827 1.57221 8.23457 1.29295C8.37856 0.974552 8.57449 0.666092 8.89668 0.421746C9.22294 0.174304 9.56916 0.0785656 9.90327 0.037038C10.1995 0.000218309 10.5501 0.000227516 10.9184 0.000236727C10.9326 0.000238042 10.9469 0.000238025 10.9612 0.000235393L12.7646 1.03859e-05C13.133 -8.9614e-05 13.4837 -0.000185652 13.78 0.0365762Z" fill="var(--fill-0, #3F4448)"/>
<path id="Vector_2" fill-rule="evenodd" clip-rule="evenodd" d="M11.8445 9.76799C10.3356 9.76799 9.1123 10.9914 9.1123 12.5007C9.1123 14.0099 10.3356 15.2333 11.8445 15.2333C13.3535 15.2333 14.5767 14.0099 14.5767 12.5007C14.5767 10.9914 13.3535 9.76799 11.8445 9.76799ZM7.29082 12.5007C7.29082 9.9853 9.32958 7.94621 11.8445 7.94621C14.3595 7.94621 16.3983 9.9853 16.3983 12.5007C16.3983 15.0159 14.3595 17.0551 11.8445 17.0551C9.32958 17.0551 7.29082 15.0159 7.29082 12.5007Z" fill="var(--fill-0, #3F4448)"/>
</g>
</svg>
