<svg preserveAspectRatio="none" width="100%" height="100%" overflow="visible" style="display: block;" viewBox="0 0 25 25" fill="none" xmlns="http://www.w3.org/2000/svg">
<g id="Group 60">
<path id="Vector" fill-rule="evenodd" clip-rule="evenodd" d="M13.8332 2.00248e-07H11.1668C9.13259 -1.09109e-05 7.52257 -1.92991e-05 6.23969 0.135903C4.92533 0.275167 3.834 0.566556 2.88897 1.23171C2.24155 1.68739 1.67847 2.2534 1.22519 2.90414C0.563582 3.85392 0.273748 4.95072 0.135221 6.27176C-1.63499e-06 7.56122 1.22675e-05 9.17954 2.61564e-05 11.2244L1.22486e-05 14.2951C-0.000173862 15.6547 -0.000290511 16.5165 0.165221 17.256C0.739707 19.8228 2.73394 21.8276 5.28809 22.4053C6.02394 22.5717 6.88146 22.5715 8.23387 22.5714H8.38829C8.75258 22.5714 8.84275 22.5733 8.92083 22.5833C9.24139 22.6242 9.54016 22.7685 9.77229 22.9947C9.82886 23.0497 9.88676 23.1193 10.1143 23.4053L10.2604 23.5887C10.4461 23.8222 10.6164 24.0362 10.7695 24.2046C10.9313 24.3824 11.1319 24.5762 11.3969 24.72C12.0854 25.0933 12.9146 25.0933 13.6031 24.72C13.8681 24.5762 14.0687 24.3824 14.2306 24.2046C14.3836 24.0361 14.5537 23.8224 14.7396 23.5889L14.8857 23.4053C15.1132 23.1193 15.1711 23.0497 15.2276 22.9947C15.4599 22.7685 15.7586 22.6242 16.0792 22.5833C16.1572 22.5733 16.2474 22.5714 16.6117 22.5714H16.7661C18.1186 22.5715 18.9761 22.5717 19.7119 22.4053C22.2661 21.8276 24.2603 19.8228 24.8347 17.256C25.0003 16.5165 25.0001 15.6546 25 14.295V11.2246C25 9.17965 25 7.56126 24.8647 6.27176C24.7262 4.95072 24.4364 3.85392 23.7749 2.90414C23.3215 2.2534 22.7585 1.68739 22.111 1.23171C21.166 0.566556 20.0747 0.275167 18.7603 0.135903C17.4775 -1.92991e-05 15.8674 -1.09109e-05 13.8332 2.00248e-07ZM6.46005 2.23536C7.6199 2.11247 9.11925 2.1111 11.2278 2.1111H13.7722C15.8807 2.1111 17.3801 2.11247 18.54 2.23536C19.6811 2.35626 20.3719 2.58522 20.9054 2.96075C21.3521 3.27511 21.7406 3.66561 22.0533 4.11462C22.4271 4.65108 22.6549 5.34574 22.7751 6.49296C22.8975 7.65893 22.8987 9.16615 22.8987 11.2857V14.14C22.8987 15.7046 22.8924 16.3124 22.7849 16.7928C22.3883 18.5643 21.0122 19.9474 19.2506 20.3457C18.7726 20.4537 18.1682 20.4603 16.6117 20.4603H16.5572C16.2726 20.4601 16.0414 20.4601 15.8144 20.489C15.0426 20.5875 14.3235 20.935 13.7649 21.4792C13.6008 21.639 13.4564 21.8206 13.2787 22.044L13.1178 22.2464C12.9067 22.5115 12.78 22.6697 12.6793 22.7806C12.6321 22.8325 12.6042 22.8582 12.5922 22.8686C12.5336 22.8957 12.4663 22.8957 12.4078 22.8686C12.3958 22.8582 12.368 22.8325 12.3207 22.7806C12.2199 22.6697 12.0933 22.5115 11.8822 22.2464L11.7213 22.044C11.5436 21.8206 11.3992 21.639 11.2351 21.4792C10.6765 20.935 9.95734 20.5875 9.1855 20.489C8.95866 20.4601 8.7274 20.4601 8.44278 20.4603H8.38827C6.83175 20.4603 6.22729 20.4537 5.74948 20.3457C3.9878 19.9474 2.61168 18.5643 2.21521 16.7928C2.10766 16.3124 2.10119 15.7046 2.10119 14.14V11.2857C2.10119 9.16615 2.10257 7.65893 2.22483 6.49296C2.34512 5.34574 2.57294 4.65108 2.94664 4.11462C3.25941 3.66561 3.6479 3.27511 4.09454 2.96075C4.62808 2.58522 5.31893 2.35626 6.46005 2.23536Z" fill="var(--fill-0, black)"/>
<path id="Vector_2" d="M7.37729 13.3124C8.145 13.3124 8.76736 12.6892 8.76736 11.9206C8.76736 11.1519 8.145 10.5287 7.37729 10.5287C6.60957 10.5287 5.98721 11.1519 5.98721 11.9206C5.98721 12.6892 6.60957 13.3124 7.37729 13.3124Z" fill="var(--fill-0, black)"/>
<path id="Vector_3" d="M12.5 13.3124C13.2678 13.3124 13.8901 12.6892 13.8901 11.9206C13.8901 11.1519 13.2678 10.5287 12.5 10.5287C11.7323 10.5287 11.1099 11.1519 11.1099 11.9206C11.1099 12.6892 11.7323 13.3124 12.5 13.3124Z" fill="var(--fill-0, black)"/>
<path id="Vector_4" d="M17.6282 13.3124C18.3958 13.3124 19.0182 12.6892 19.0182 11.9206C19.0182 11.1519 18.3958 10.5287 17.6282 10.5287C16.8604 10.5287 16.2381 11.1519 16.2381 11.9206C16.2381 12.6892 16.8604 13.3124 17.6282 13.3124Z" fill="var(--fill-0, black)"/>
</g>
</svg>
