<svg preserveAspectRatio="none" width="100%" height="100%" overflow="visible" style="display: block;" viewBox="0 0 18 19" fill="none" xmlns="http://www.w3.org/2000/svg">
<g id="Group 46">
<path id="Vector" fill-rule="evenodd" clip-rule="evenodd" d="M10.3113 1.47927C10.1767 1.46258 9.9931 1.46144 9.6688 1.46148L8.33068 1.46164C8.00643 1.46168 7.82284 1.46287 7.68836 1.47959C7.62838 1.48704 7.59765 1.49568 7.58333 1.50077C7.57298 1.50445 7.56936 1.5073 7.56936 1.5073C7.56646 1.5095 7.56337 1.5119 7.55691 1.52077C7.54854 1.53227 7.53202 1.55815 7.50753 1.61232C7.45199 1.73513 7.39512 1.90944 7.29478 2.22381C7.26765 2.30881 7.23966 2.39735 7.21095 2.48914C6.97709 3.23696 6.45008 3.79399 5.86568 4.13662C5.30261 4.46674 4.61803 4.63735 3.92153 4.48034C3.79931 4.45279 3.68217 4.4269 3.57079 4.40269C3.25207 4.33341 3.07143 4.29535 2.93485 4.28308C2.82533 4.27325 2.79919 4.28627 2.79348 4.28911C2.79348 4.28911 2.76724 4.29516 2.6939 4.39443C2.60771 4.5111 2.50888 4.68106 2.33705 4.98052L1.74781 6.00741C1.5758 6.30718 1.47928 6.47771 1.42241 6.61009C1.39703 6.66916 1.38873 6.70062 1.386 6.71407C1.38552 6.7164 1.38504 6.71938 1.38504 6.71938L1.38636 6.72272C1.39044 6.73248 1.40265 6.75798 1.43603 6.80576C1.51219 6.91474 1.63242 7.05007 1.85242 7.29419C1.92683 7.37676 2.00534 7.46328 2.08761 7.55323C2.58749 8.09969 2.79049 8.8236 2.79049 9.5001C2.79049 10.1763 2.58756 10.8997 2.08797 11.4459C2.00543 11.5361 1.92668 11.6229 1.85205 11.7057C1.63202 11.9499 1.51177 12.0852 1.4356 12.1942C1.40221 12.242 1.38999 12.2675 1.38592 12.2773L1.38459 12.2806C1.38459 12.2806 1.38507 12.2836 1.38555 12.286C1.38828 12.2994 1.39659 12.3309 1.42198 12.39C1.47887 12.5223 1.57542 12.6929 1.74748 12.9927L2.33681 14.0195C2.50865 14.3189 2.60748 14.4888 2.69367 14.6055C2.76605 14.7034 2.79251 14.7104 2.79251 14.7104C2.79821 14.7133 2.82507 14.7266 2.93457 14.7168C3.07113 14.7045 3.25174 14.6665 3.57041 14.5972C3.68167 14.573 3.79866 14.5471 3.92074 14.5196C4.61746 14.3626 5.30225 14.5333 5.86548 14.8635C6.44998 15.2062 6.97711 15.7634 7.21101 16.5113C7.23968 16.603 7.26764 16.6915 7.29474 16.7764C7.39509 17.0908 7.45196 17.2651 7.50751 17.388C7.53201 17.4421 7.54853 17.468 7.5569 17.4795C7.56336 17.4884 7.56623 17.4906 7.56913 17.4928C7.56913 17.4928 7.57297 17.4958 7.58332 17.4995C7.59764 17.5046 7.62838 17.5132 7.68836 17.5207C7.82287 17.5374 8.00648 17.5386 8.33077 17.5386H9.6688C9.9931 17.5386 10.1767 17.5374 10.3113 17.5207C10.3712 17.5132 10.402 17.5046 10.4163 17.4995C10.4266 17.4958 10.4303 17.493 10.4303 17.493C10.4332 17.4908 10.4363 17.4884 10.4427 17.4795C10.4511 17.468 10.4676 17.4421 10.4921 17.388C10.5477 17.2651 10.6045 17.0908 10.7049 16.7764C10.7319 16.6916 10.7599 16.6033 10.7885 16.5117C11.0225 15.7635 11.5498 15.2062 12.1345 14.8633C12.6979 14.5329 13.383 14.362 14.0801 14.5191C14.2018 14.5466 14.3185 14.5724 14.4295 14.5965C14.4313 14.5969 14.4332 14.5973 14.4351 14.5977C14.438 14.5983 14.4409 14.5989 14.4437 14.5996C14.7536 14.6669 14.9308 14.704 15.0653 14.7161C15.1748 14.7259 15.201 14.7129 15.2067 14.71C15.2067 14.71 15.2339 14.7026 15.3063 14.6047C15.3925 14.4881 15.4913 14.3182 15.6631 14.0188L16.2525 12.992C16.4246 12.6922 16.5211 12.5216 16.578 12.3892C16.6034 12.3302 16.6117 12.2987 16.6144 12.2852C16.6149 12.2829 16.6154 12.2799 16.6154 12.2799L16.6141 12.2766C16.61 12.2668 16.5978 12.2413 16.5644 12.1935C16.4882 12.0845 16.368 11.9492 16.148 11.705C16.0731 11.6219 15.994 11.5348 15.9112 11.4443C15.4119 10.8986 15.2091 10.1757 15.2091 9.5001C15.2091 8.82397 15.412 8.1005 15.9116 7.55435C15.9941 7.46417 16.0728 7.37742 16.1475 7.29464C16.3675 7.05045 16.4878 6.91507 16.564 6.80605C16.5974 6.75827 16.6096 6.73275 16.6136 6.72299L16.615 6.71963C16.615 6.71963 16.6145 6.71665 16.614 6.71431C16.6113 6.70085 16.603 6.66938 16.5776 6.61029C16.5207 6.47789 16.4241 6.30733 16.252 6.00752L15.6625 4.98076C15.4906 4.68142 15.3918 4.51152 15.3056 4.39491C15.2333 4.29702 15.2068 4.28999 15.2068 4.28999C15.2011 4.28715 15.1742 4.27379 15.0647 4.28362C14.9282 4.29589 14.7476 4.33394 14.429 4.40319C14.3178 4.42736 14.2009 4.4532 14.0789 4.4807C13.3822 4.63774 12.6974 4.46704 12.1342 4.1368C11.5497 3.79408 11.0226 3.23693 10.7887 2.48898C10.76 2.39719 10.7321 2.30866 10.7049 2.22367C10.6046 1.90921 10.5477 1.73485 10.4921 1.61201C10.4676 1.55783 10.4511 1.53194 10.4427 1.52044C10.4363 1.51157 10.4334 1.50934 10.4305 1.50714C10.4305 1.50714 10.4267 1.50412 10.4163 1.50044C10.402 1.49535 10.3713 1.48672 10.3113 1.47927ZM10.4728 0.0277979C10.7268 0.0593089 10.99 0.132033 11.238 0.320103C11.483 0.50582 11.6319 0.7403 11.7414 0.98233C11.8374 1.19462 11.9203 1.45468 12.0064 1.72446L12.0168 1.75701C12.0448 1.84475 12.0737 1.93612 12.1033 2.03083C12.2051 2.35633 12.4548 2.65301 12.8064 2.85917C13.1394 3.05445 13.484 3.12039 13.7898 3.05145C13.9153 3.02318 14.0355 2.99661 14.1498 2.97175L14.1816 2.96484C14.4569 2.90495 14.7191 2.84793 14.9473 2.82742C15.2059 2.80419 15.4759 2.8209 15.7551 2.94806C16.0382 3.07701 16.2361 3.27817 16.397 3.49586C16.5396 3.68883 16.6806 3.93453 16.8294 4.19368L17.4531 5.28017C17.6017 5.53881 17.743 5.78482 17.8382 6.00639C17.9452 6.25547 18.0246 6.53933 17.9922 6.86955C17.9601 7.19684 17.8312 7.45436 17.678 7.67365C17.5439 7.86546 17.3616 8.06767 17.1737 8.27619L17.1504 8.30201C17.0735 8.38733 16.9924 8.4767 16.9074 8.56961C16.7091 8.78643 16.5934 9.11559 16.5934 9.5001C16.5934 9.884 16.7089 10.2126 16.9069 10.429C16.9922 10.5223 17.0737 10.612 17.1509 10.6977L17.1742 10.7235C17.3621 10.932 17.5444 11.1341 17.6784 11.3259C17.8316 11.5452 17.9606 11.8027 17.9927 12.1299C18.0251 12.4601 17.9457 12.7439 17.8387 12.993C17.7435 13.2145 17.6023 13.4605 17.4538 13.7191L16.8301 14.8057C16.6814 15.0649 16.5404 15.3107 16.3977 15.5037C16.2369 15.7214 16.039 15.9226 15.7558 16.0516C15.4766 16.1788 15.2066 16.1955 14.948 16.1723C14.7197 16.1518 14.4575 16.0947 14.1822 16.0348L14.1361 16.0248C14.0263 16.0009 13.911 15.9754 13.7911 15.9484C13.4849 15.8794 13.14 15.9454 12.8067 16.1409C12.4548 16.3472 12.2049 16.6441 12.103 16.9699C12.0735 17.0644 12.0447 17.1555 12.0167 17.243L12.0064 17.2756C11.9203 17.5453 11.8374 17.8054 11.7414 18.0176C11.6319 18.2596 11.483 18.4941 11.2381 18.6798C10.9901 18.8679 10.7269 18.9406 10.473 18.9721C10.2478 19.0001 9.9813 19.0001 9.7014 19H8.29825C8.0183 19.0001 7.75181 19.0001 7.52664 18.9721C7.27269 18.9406 7.00953 18.8679 6.76153 18.6798C6.51663 18.4941 6.3677 18.2596 6.25826 18.0176C6.16226 17.8054 6.07931 17.5453 5.99327 17.2756L5.98288 17.243C5.9549 17.1554 5.92605 17.0641 5.89646 16.9695C5.79467 16.644 5.54495 16.3473 5.19334 16.1411C4.86029 15.9459 4.51572 15.8799 4.20981 15.9489C4.08432 15.9772 3.96402 16.0038 3.84959 16.0286L3.81779 16.0355C3.54244 16.0954 3.28026 16.1525 3.05197 16.173C2.79335 16.1962 2.52336 16.1795 2.24412 16.0523C1.96096 15.9233 1.76307 15.7221 1.60218 15.5044C1.45956 15.3114 1.31857 15.0657 1.16985 14.8065L0.546209 13.7199C0.397729 13.4613 0.256489 13.2153 0.161289 12.9937C0.0542691 12.7446 -0.025081 12.4608 0.00732903 12.1306C0.039449 11.8034 0.168379 11.5459 0.321589 11.3266C0.455609 11.1348 0.637889 10.9326 0.825849 10.7241L0.849109 10.6983C0.926029 10.613 1.00716 10.5236 1.09219 10.4306C1.29053 10.2138 1.40616 9.8846 1.40616 9.5001C1.40616 9.11514 1.29042 8.78557 1.09182 8.56846C1.00706 8.4758 0.926179 8.38666 0.849479 8.30156C0.841719 8.29295 0.833969 8.28435 0.826219 8.27575C0.638289 8.0673 0.456039 7.86513 0.322039 7.67337C0.168839 7.45413 0.0399191 7.19668 0.00778906 6.86946C-0.0246359 6.53932 0.0546891 6.25551 0.161669 6.00646C0.256839 5.78493 0.398039 5.53895 0.546469 5.28034C0.552229 5.27031 0.557999 5.26026 0.563779 5.25018L1.15303 4.22329C1.1587 4.2134 1.16436 4.20353 1.17001 4.19368C1.31872 3.93444 1.45971 3.68866 1.60233 3.49562C1.76322 3.27785 1.96111 3.0766 2.2443 2.94759C2.52356 2.82037 2.79357 2.80365 3.05222 2.82688C3.28053 2.84739 3.54274 2.90443 3.81813 2.96433C3.82871 2.96663 3.83932 2.96894 3.84994 2.97125C3.84994 2.97125 3.84765 2.96876 3.87561 2.97791L3.90129 2.98458L3.84994 2.97125C3.9645 2.99615 4.08494 3.02277 4.21059 3.05109C4.51632 3.12001 4.86071 3.05412 5.19358 2.85895C5.54505 2.65289 5.79466 2.35633 5.89641 2.03097C5.92603 1.93624 5.95492 1.84487 5.98292 1.75713C5.98639 1.74627 5.98985 1.73542 5.99331 1.72458C6.07935 1.45488 6.16229 1.19488 6.25828 0.98264C6.36771 0.74066 6.51662 0.50623 6.76148 0.320527C7.00944 0.132471 7.27257 0.0597099 7.52649 0.0281489C7.75162 0.000165915 8.01808 0.000172912 8.29799 0.000179912C8.30881 0.000180912 8.31965 0.000180899 8.33052 0.000178899L9.7011 7.89329e-06C9.9811 -6.81067e-05 10.2476 -0.000141095 10.4728 0.0277979Z" fill="var(--fill-0, black)"/>
<path id="Vector_2" fill-rule="evenodd" clip-rule="evenodd" d="M9.0018 7.42367C7.85503 7.42367 6.92535 8.35349 6.92535 9.5005C6.92535 10.6475 7.85503 11.5773 9.0018 11.5773C10.1487 11.5773 11.0783 10.6475 11.0783 9.5005C11.0783 8.35349 10.1487 7.42367 9.0018 7.42367ZM5.54102 9.5005C5.54102 7.58883 7.09048 6.03912 9.0018 6.03912C10.9132 6.03912 12.4627 7.58883 12.4627 9.5005C12.4627 11.4121 10.9132 12.9619 9.0018 12.9619C7.09048 12.9619 5.54102 11.4121 5.54102 9.5005Z" fill="var(--fill-0, black)"/>
</g>
</svg>
