<svg preserveAspectRatio="none" width="100%" height="100%" overflow="visible" style="display: block;" viewBox="0 0 30 30" fill="none" xmlns="http://www.w3.org/2000/svg">
<g id="&#216;&#178;&#216;&#177; &#216;&#167;&#217;&#132;&#216;&#165;&#216;&#177;&#216;&#179;&#216;&#167;&#217;&#132;">
<circle id="Ellipse 13" cx="15" cy="15" r="15" fill="var(--fill-0, #274D50)"/>
<path id="Vector" fill-rule="evenodd" clip-rule="evenodd" d="M15.7503 9.49404C16.0525 9.17022 16.5731 9.14106 16.9131 9.42889L22.8004 14.4136C22.9764 14.5625 23.0769 14.7759 23.0769 15C23.0769 15.224 22.9764 15.4374 22.8004 15.5863L16.9131 20.571C16.5731 20.8589 16.0525 20.8297 15.7503 20.5059C15.4481 20.1821 15.4787 19.6862 15.8187 19.3984L20.0872 15.7845H8.51592C8.06105 15.7845 7.69232 15.4332 7.69232 15C7.69232 14.5667 8.06105 14.2155 8.51592 14.2155H20.0872L15.8187 10.6016C15.4787 10.3137 15.4481 9.81786 15.7503 9.49404Z" fill="var(--fill-0, #F8F8F8)"/>
</g>
</svg>
