<svg preserveAspectRatio="none" width="100%" height="100%" overflow="visible" style="display: block;" viewBox="0 0 89 166" fill="none" xmlns="http://www.w3.org/2000/svg">
<g id="Group">
<path id="Vector" d="M58.6749 127.498H30.2898L33.1294 165.349H55.8353L58.6749 127.498Z" fill="var(--fill-0, #263238)"/>
<path id="Vector_2" d="M42.8244 50.4084V133.246L45.7272 130.344V82.1668L54.7109 60.9295L45.165 78.7363L44.8093 53.0301L42.8244 50.4084Z" fill="var(--fill-0, #263238)"/>
<g id="Group_2">
<path id="Vector_3" d="M37.1738 46.7598L20.6521 36.2961L30.5651 47.0352L14.5942 43.1801L25.884 48.6874H6.60867L22.5796 51.1656L3.85506 54.7453L18.9999 54.1946L4.9565 59.9772L20.1014 57.4989L0 71.267L23.9564 59.7018L11.2898 72.3684L22.855 64.9337L14.5942 79.5278L26.7101 65.4844L20.6521 78.151L31.3912 64.6583V74.0206L36.3477 62.7308V69.0641L41.3042 55.8468V62.4554L44.8093 53.0301L45.71 50.6149L34.9709 36.0208L38.2752 44.8323L34.9709 42.0787L37.1738 46.7598Z" fill="var(--fill-0, #376D71)"/>
<path id="Vector_4" d="M35.0799 72.6611L15.6727 75.0705L30.1521 77.0726L15.3686 84.2378L27.5878 81.3235L12.6953 93.5656L26.6068 85.3335L14.4163 99.9907L25.7635 89.9458L18.5927 103.335L28.7122 91.7987L21.9314 115.204L33.0893 91.053L31.3511 108.883L35.5618 95.7972L38.4531 112.313L38.8891 93.7722L42.2565 107.403L41.9812 90.1638L47.9301 97.392L44.5856 85.5228L48.607 90.4162L44.0464 77.0612L48.2399 82.1668L44.9642 72.6611L44.1267 70.2173L26.5609 65.7656L34.707 70.4754L30.4102 70.4468L35.0799 72.6611Z" fill="var(--fill-0, #376D71)"/>
<path id="Vector_5" d="M35.0799 72.6611L15.6727 75.0705L30.1521 77.0726L15.3686 84.2378L27.5878 81.3235L12.6953 93.5656L26.6068 85.3335L14.4163 99.9907L25.7635 89.9458L18.5927 103.335L28.7122 91.7987L21.9314 115.204L33.0893 91.053L31.3511 108.883L35.5618 95.7972L38.4531 112.313L38.8891 93.7722L42.2565 107.403L41.9812 90.1638L47.9301 97.392L44.5856 85.5228L48.607 90.4162L44.0464 77.0612L48.2399 82.1668L44.9642 72.6611L44.1267 70.2173L26.5609 65.7656L34.707 70.4754L30.4102 70.4468L35.0799 72.6611Z" fill="var(--fill-0, #376D71)"/>
<path id="Vector_6" d="M52.7718 41.6943L78.4264 38.0859L60.5967 45.6354L81.9774 49.7027L65.3467 50.1846L88.609 60.7115L67.9798 54.9805L88.6262 69.5288L70.6474 60.591L84.4384 75.2425L67.5152 63.9814L84.2548 91.5749L61.658 64.5321L70.0278 86.7388L60.1263 71.4506L62.1284 93.577L55.1755 70.0106L55.5714 88.6033L49.9781 66.4539L44.8667 77.7552L45.0445 61.4228L41.5853 69.0641L42.8244 50.4083L39.216 58.3823L40.1282 45.0962L40.3634 41.6886L61.2908 29.9341L52.4908 38.7686L57.9865 37.2484L52.7718 41.6943Z" fill="var(--fill-0, #376D71)"/>
<path id="Vector_7" d="M49.4388 37.1738L59.9026 20.6522L49.1635 30.5652L53.0185 14.5942L47.5113 25.884V6.60874L45.0331 22.5797L41.4534 3.85512L42.0041 19L36.2215 4.95656L38.6997 20.1014L24.9317 6.00855e-05L36.4969 23.9565L23.8302 11.2899L31.265 22.8551L16.6708 14.5942L30.7143 26.7101L18.0476 20.6522L31.5403 31.3913H22.1781L33.4679 36.3478H27.1346L40.3519 41.3043H33.7432L43.1629 44.8094L45.5838 45.71L60.1779 34.971L51.3664 38.2753L54.12 34.971L49.4388 37.1738Z" fill="var(--fill-0, #376D71)"/>
</g>
</g>
</svg>
