<svg width="121" height="121" viewBox="0 0 121 121" fill="none" xmlns="http://www.w3.org/2000/svg">
<path d="M60.5479 0C64.6087 5.2197e-05 68.6041 1.02265 72.166 2.97363C75.728 4.92471 78.742 7.74142 80.9297 11.1641C84.9104 10.2687 89.0529 10.3959 92.9717 11.5322C96.8904 12.6686 100.458 14.7779 103.343 17.6641C106.228 20.5502 108.337 24.1189 109.473 28.0391C110.609 31.9594 110.735 36.1037 109.84 40.0859C113.261 42.2744 116.077 45.2892 118.027 48.8525C119.978 52.416 121 56.4139 121 60.4766C121 64.5391 119.978 68.5363 118.027 72.0996C116.077 75.663 113.261 78.6777 109.84 80.8662C110.731 84.8424 110.604 88.9795 109.471 92.8936C108.338 96.8076 106.236 100.372 103.358 103.257C100.481 106.141 96.9219 108.252 93.0117 109.394C89.1016 110.535 84.9667 110.671 80.9902 109.788C78.8055 113.224 75.7896 116.053 72.2217 118.013C68.6537 119.972 64.6486 121 60.5781 121C56.5077 121 52.5026 119.972 48.9346 118.013C45.3665 116.053 42.3499 113.224 40.165 109.788C36.1905 110.679 32.055 110.552 28.1426 109.419C24.2302 108.285 20.6674 106.182 17.7842 103.304C14.9009 100.425 12.7907 96.8648 11.6494 92.9531C10.5082 89.0415 10.3721 84.9048 11.2549 80.9268C7.80747 78.7441 4.96779 75.7247 3 72.1494C1.0322 68.5739 6.26097e-05 64.5582 0 60.4766C0 56.3949 1.03219 52.3793 3 48.8037C4.96782 45.2282 7.80728 42.2081 11.2549 40.0254C10.3721 36.0474 10.5081 31.9107 11.6494 27.999C12.7907 24.0874 14.9009 20.5268 17.7842 17.6484C20.6674 14.7703 24.2303 12.6667 28.1426 11.5332C32.055 10.3997 36.1905 10.2727 40.165 11.1641C42.3527 7.74135 45.3667 4.92474 48.9287 2.97363C52.4907 1.0225 56.4868 0 60.5479 0ZM49.958 39.8838C38.0785 51.0194 38.0922 69.9112 49.958 81.0283L50.3154 81.3633L46.9072 84.7461C45.5 83.3614 43.398 81.1014 41.5859 78.3691H36.0107C40.3259 86.394 47.1973 91.2246 47.1973 91.2246L53.8184 84.6455L60.8379 91.2246H67.834L53.2305 77.54C48.5249 73.1308 45.8262 66.9049 45.8262 60.458C45.8262 54.0111 48.5249 47.7833 53.2305 43.374L60.5107 36.5527L67.79 43.377C72.4956 47.7839 75.1914 54.0121 75.1914 60.459C75.1912 71.5788 67.3538 77.9543 67.3066 77.9932L63.9072 74.6221C63.9477 74.5902 70.408 69.4809 70.4082 60.459C70.4082 55.3293 68.2631 50.3732 64.5205 46.8672L60.5107 43.1094L56.5 46.8672C52.7575 50.3732 50.6104 55.3293 50.6104 60.459C50.6105 65.5886 52.7575 70.5419 56.5 74.0479L67.2031 84.6455L73.8242 91.2256C73.8242 91.2256 80.6038 86.5672 85.0107 78.3701H79.4355V78.3691C77.6234 81.1014 75.5215 83.3614 74.1143 84.7461L70.7031 81.3633L71.0605 81.0283C82.906 69.9363 82.9587 51.0347 71.0635 39.8838L60.5107 29.9951L49.958 39.8838ZM61.249 50.3555C64.0319 52.9638 65.625 56.6454 65.625 60.458C65.6249 64.2705 64.0326 67.9517 61.249 70.5576L60.5107 71.25L59.7734 70.5576C56.9906 67.9517 55.3946 64.2681 55.3945 60.458C55.3945 56.6478 56.9906 52.9638 59.7734 50.3555L60.5107 49.666L61.249 50.3555Z" fill="#FEBA01"/>
</svg>
