<svg width="20" height="26" viewBox="0 0 20 26" fill="none" xmlns="http://www.w3.org/2000/svg">
<path d="M14.4844 6.79688C14.7135 6.79688 15.1042 6.83333 15.6562 6.90625C16.2083 6.97917 16.8125 7.1875 17.4688 7.53125C18.1354 7.86458 18.7396 8.42188 19.2812 9.20312C19.25 9.23438 19.099 9.34896 18.8281 9.54688C18.5573 9.73438 18.2552 10.0156 17.9219 10.3906C17.5885 10.7552 17.2969 11.224 17.0469 11.7969C16.7969 12.3594 16.6719 13.0312 16.6719 13.8125C16.6719 14.7083 16.8281 15.4688 17.1406 16.0938C17.4635 16.7188 17.8333 17.224 18.25 17.6094C18.6771 17.9844 19.0521 18.2604 19.375 18.4375C19.7083 18.6146 19.8854 18.7083 19.9062 18.7188C19.8958 18.7604 19.7604 19.1302 19.5 19.8281C19.25 20.526 18.8333 21.3021 18.25 22.1562C17.7396 22.8958 17.1875 23.5781 16.5938 24.2031C16.0104 24.8281 15.3073 25.1406 14.4844 25.1406C13.9323 25.1406 13.4792 25.0625 13.125 24.9062C12.7708 24.7396 12.4062 24.5781 12.0312 24.4219C11.6562 24.2552 11.151 24.1719 10.5156 24.1719C9.90104 24.1719 9.38542 24.2552 8.96875 24.4219C8.5625 24.5885 8.17188 24.7552 7.79688 24.9219C7.43229 25.0885 7 25.1719 6.5 25.1719C5.73958 25.1719 5.07292 24.8698 4.5 24.2656C3.92708 23.6615 3.33854 22.9375 2.73438 22.0938C2.03646 21.0938 1.4375 19.875 0.9375 18.4375C0.447917 16.9896 0.203125 15.5312 0.203125 14.0625C0.203125 12.4896 0.5 11.1719 1.09375 10.1094C1.6875 9.03646 2.44792 8.22917 3.375 7.6875C4.3125 7.13542 5.28125 6.85938 6.28125 6.85938C6.8125 6.85938 7.3125 6.94792 7.78125 7.125C8.25 7.29167 8.6875 7.46354 9.09375 7.64062C9.51042 7.81771 9.88542 7.90625 10.2188 7.90625C10.5417 7.90625 10.9167 7.8125 11.3438 7.625C11.7708 7.4375 12.25 7.25521 12.7812 7.07812C13.3125 6.89062 13.8802 6.79688 14.4844 6.79688ZM13.625 4.8125C13.2188 5.30208 12.7083 5.71354 12.0938 6.04688C11.4792 6.36979 10.8958 6.53125 10.3438 6.53125C10.2292 6.53125 10.1198 6.52083 10.0156 6.5C10.0052 6.46875 9.99479 6.41146 9.98438 6.32812C9.97396 6.24479 9.96875 6.15625 9.96875 6.0625C9.96875 5.4375 10.1042 4.83333 10.375 4.25C10.6458 3.65625 10.9531 3.16667 11.2969 2.78125C11.7344 2.26042 12.2865 1.82812 12.9531 1.48438C13.6198 1.14062 14.2552 0.958333 14.8594 0.9375C14.8906 1.07292 14.9062 1.23438 14.9062 1.42188C14.9062 2.04688 14.7865 2.65625 14.5469 3.25C14.3073 3.83333 14 4.35417 13.625 4.8125Z" fill="black"/>
</svg>
