<svg xmlns="http://www.w3.org/2000/svg" width="63.158" height="63.159" viewBox="0 0 63.158 63.159">
  <g id="Group_1216" data-name="Group 1216" transform="translate(-266.994 -14.104)">
    <g id="Group_1213" data-name="Group 1213">
      <path id="Path_484" data-name="Path 484" d="M324.271,58.447a17.258,17.258,0,0,1-1.1,5.857,9.779,9.779,0,0,1-2.367,3.636,9.886,9.886,0,0,1-3.637,2.367,17.392,17.392,0,0,1-5.857,1.1c-3.343.146-4.319.195-12.763.195s-9.445-.025-12.764-.195a17.257,17.257,0,0,1-5.857-1.1,9.779,9.779,0,0,1-3.636-2.367,9.887,9.887,0,0,1-2.367-3.636,17.405,17.405,0,0,1-1.1-5.857c-.147-3.343-.2-4.344-.2-12.763s.025-9.445.2-12.764a17.258,17.258,0,0,1,1.1-5.857,9.779,9.779,0,0,1,2.367-3.636,9.883,9.883,0,0,1,3.636-2.367,17.4,17.4,0,0,1,5.857-1.1c3.344-.146,4.344-.195,12.764-.195s9.444.025,12.763.195a17.251,17.251,0,0,1,5.857,1.1,9.783,9.783,0,0,1,3.637,2.367,9.887,9.887,0,0,1,2.367,3.636,17.405,17.405,0,0,1,1.1,5.857c.146,3.343.2,4.344.2,12.764S324.417,55.128,324.271,58.447Zm4.222-33.458a16.1,16.1,0,0,0-9.225-9.225,23.027,23.027,0,0,0-7.663-1.464c-3.368-.147-4.441-.2-13.032-.2s-9.664.025-13.032.2a22.91,22.91,0,0,0-7.663,1.464,16.1,16.1,0,0,0-9.224,9.225,23.05,23.05,0,0,0-1.465,7.663c-.146,3.367-.2,4.441-.2,13.032s.025,9.664.2,13.031a22.922,22.922,0,0,0,1.465,7.663,16.1,16.1,0,0,0,9.224,9.225,23.038,23.038,0,0,0,7.663,1.464c3.368.147,4.442.2,13.032.2s9.664-.025,13.032-.2a22.9,22.9,0,0,0,7.663-1.464,16.1,16.1,0,0,0,9.225-9.225,23.028,23.028,0,0,0,1.464-7.663c.147-3.367.2-4.441.2-13.031s-.024-9.665-.2-13.032A22.9,22.9,0,0,0,328.493,24.989Z" fill="#a2a2a2"/>
    </g>
    <g id="Group_1214" data-name="Group 1214">
      <path id="Path_485" data-name="Path 485" d="M298.549,56.226a10.543,10.543,0,1,1,10.543-10.542A10.546,10.546,0,0,1,298.549,56.226Zm0-26.771a16.228,16.228,0,1,0,16.229,16.229A16.237,16.237,0,0,0,298.549,29.455Z" fill="#a2a2a2"/>
    </g>
    <g id="Group_1215" data-name="Group 1215">
      <circle id="Ellipse_257" data-name="Ellipse 257" cx="3.783" cy="3.783" r="3.783" transform="translate(311.63 25.037)" fill="#a2a2a2"/>
    </g>
  </g>
</svg>
