<svg xmlns="http://www.w3.org/2000/svg" width="113.606" height="113.606" viewBox="0 0 113.606 113.606">
  <g id="Group_1217" data-name="Group 1217" transform="translate(-534.433 -482.32)">
    <g id="Group_1216" data-name="Group 1216">
      <g id="Group_1213" data-name="Group 1213">
        <path id="Path_483" data-name="Path 483" d="M637.459,562.081a31.057,31.057,0,0,1-1.975,10.536,18.869,18.869,0,0,1-10.8,10.8,31.318,31.318,0,0,1-10.535,1.976c-6.014.263-7.77.351-22.958.351s-16.988-.044-22.958-.351a31.073,31.073,0,0,1-10.536-1.976,17.571,17.571,0,0,1-6.54-4.258,17.768,17.768,0,0,1-4.258-6.54,31.307,31.307,0,0,1-1.976-10.536c-.263-6.014-.351-7.813-.351-22.958s.044-16.988.351-22.958A31.035,31.035,0,0,1,546.9,505.63a17.575,17.575,0,0,1,4.258-6.541,17.769,17.769,0,0,1,6.54-4.258,31.333,31.333,0,0,1,10.536-1.976c6.014-.263,7.813-.351,22.958-.351s16.988.044,22.958.351a31.06,31.06,0,0,1,10.535,1.976,17.576,17.576,0,0,1,6.541,4.258,17.777,17.777,0,0,1,4.258,6.541,31.3,31.3,0,0,1,1.975,10.535c.264,6.014.352,7.814.352,22.958S637.723,556.111,637.459,562.081Zm7.6-60.183A28.967,28.967,0,0,0,628.461,485.3a41.46,41.46,0,0,0-13.784-2.634c-6.058-.263-7.989-.351-23.441-.351s-17.384.044-23.441.351a41.225,41.225,0,0,0-13.784,2.634A28.966,28.966,0,0,0,537.418,501.9a41.433,41.433,0,0,0-2.634,13.784c-.263,6.058-.351,7.989-.351,23.441s.044,17.383.351,23.441a41.2,41.2,0,0,0,2.634,13.784,28.966,28.966,0,0,0,16.593,16.593,41.46,41.46,0,0,0,13.784,2.634c6.058.263,7.989.351,23.441.351s17.383-.044,23.441-.351a41.225,41.225,0,0,0,13.784-2.634,28.966,28.966,0,0,0,16.593-16.593,41.463,41.463,0,0,0,2.633-13.784c.264-6.058.352-7.989.352-23.441s-.044-17.383-.352-23.441A41.227,41.227,0,0,0,645.054,501.9Z" fill="#100e0b"/>
      </g>
      <g id="Group_1214" data-name="Group 1214">
        <path id="Path_484" data-name="Path 484" d="M591.192,558.087a18.964,18.964,0,1,1,18.963-18.964A18.969,18.969,0,0,1,591.192,558.087Zm0-48.156a29.192,29.192,0,1,0,29.191,29.192A29.208,29.208,0,0,0,591.192,509.931Z" fill="#100e0b"/>
      </g>
      <g id="Group_1215" data-name="Group 1215">
        <circle id="Ellipse_257" data-name="Ellipse 257" cx="6.804" cy="6.804" r="6.804" transform="translate(614.721 501.986)" fill="#100e0b"/>
      </g>
    </g>
  </g>
</svg>
