<svg xmlns="http://www.w3.org/2000/svg" width="48.4" height="37.82" viewBox="0 0 48.4 37.82">
  <path id="Path_483" data-name="Path 483" d="M-46.013,3.259h34.975A6.286,6.286,0,0,0-6.3,1.515,7.186,7.186,0,0,0-4.613-3.672V-27.631A6.99,6.99,0,0,0-6.38-32.806a7.126,7.126,0,0,0-5.232-1.756H-46.587a6.263,6.263,0,0,0-4.739,1.756,7.193,7.193,0,0,0-1.687,5.175V-3.672a6.983,6.983,0,0,0,1.767,5.187A7.155,7.155,0,0,0-46.013,3.259Zm-.046-3.741a3.3,3.3,0,0,1-2.4-.815,3.264,3.264,0,0,1-.838-2.444V-27.562a3.231,3.231,0,0,1,.838-2.421,3.3,3.3,0,0,1,2.4-.815h34.493a3.308,3.308,0,0,1,2.387.815,3.238,3.238,0,0,1,.849,2.444V-3.718A3.205,3.205,0,0,1-9.18-1.3a3.308,3.308,0,0,1-2.387.815ZM-28.778-9.8a5.708,5.708,0,0,0,2.318-.5,7.7,7.7,0,0,0,2.295-1.652L-6.632-29.191-9.065-31.67-26.231-14.733a4.968,4.968,0,0,1-1.308.987,2.835,2.835,0,0,1-1.239.3,2.75,2.75,0,0,1-1.239-.31,5.45,5.45,0,0,1-1.308-.975L-48.561-31.762l-2.456,2.479,17.6,17.327A8.036,8.036,0,0,0-31.108-10.3,5.681,5.681,0,0,0-28.778-9.8ZM-9.34.184l2.456-2.479-13.93-13.792-2.456,2.456ZM-50.695-2.295-48.239.184l13.953-13.815-2.456-2.456Z" transform="translate(53.013 34.562)" fill="#ffdd83"/>
</svg>
