<svg width="122" height="121" viewBox="0 0 122 121" fill="none" xmlns="http://www.w3.org/2000/svg">
<path d="M61.5371 0.00488281C65.5979 0.00493501 69.5934 1.02753 73.1553 2.97852C76.7172 4.92959 79.7313 7.74631 81.9189 11.1689C85.8996 10.2736 90.0422 10.4008 93.9609 11.5371C97.8796 12.6734 101.447 14.7828 104.332 17.6689C107.217 20.5551 109.326 24.1237 110.462 28.0439C111.598 31.9643 111.724 36.1086 110.829 40.0908C114.25 42.2793 117.066 45.2941 119.017 48.8574C120.967 52.4209 121.989 56.4188 121.989 60.4814C121.989 64.544 120.967 68.5412 119.017 72.1045C117.066 75.6679 114.25 78.6826 110.829 80.8711C111.72 84.8473 111.593 88.9844 110.46 92.8984C109.327 96.8125 107.225 100.377 104.348 103.262C101.47 106.146 97.9111 108.257 94.001 109.398C90.0909 110.54 85.9559 110.676 81.9795 109.793C79.7947 113.229 76.7789 116.058 73.2109 118.018C69.6429 119.977 65.6378 121.005 61.5674 121.005C57.4969 121.005 53.4919 119.977 49.9238 118.018C46.3557 116.058 43.3391 113.229 41.1543 109.793C37.1797 110.684 33.0443 110.557 29.1318 109.424C25.2195 108.29 21.6566 106.187 18.7734 103.309C15.8902 100.43 13.78 96.8697 12.6387 92.958C11.4974 89.0464 11.3614 84.9096 12.2441 80.9316C8.79673 78.749 5.95704 75.7296 3.98926 72.1543C2.02146 68.5788 0.98932 64.563 0.989258 60.4814C0.989258 56.3998 2.02144 52.3842 3.98926 48.8086C5.95707 45.2331 8.79654 42.213 12.2441 40.0303C11.3614 36.0522 11.4974 31.9156 12.6387 28.0039C13.78 24.0922 15.8902 20.5317 18.7734 17.6533C21.6566 14.7752 25.2195 12.6716 29.1318 11.5381C33.0443 10.4046 37.1798 10.2776 41.1543 11.1689C43.342 7.74623 46.356 4.92962 49.918 2.97852C53.48 1.02739 57.4761 0.00488281 61.5371 0.00488281ZM50.9473 39.8887C39.0678 51.0243 39.0815 69.9161 50.9473 81.0332L51.3047 81.3682L47.8965 84.751C46.4892 83.3663 44.3873 81.1063 42.5752 78.374H37C41.3151 86.3989 48.1865 91.2295 48.1865 91.2295L54.8076 84.6504L61.8271 91.2295H68.8232L54.2197 77.5449C49.5142 73.1357 46.8155 66.9097 46.8154 60.4629C46.8154 54.016 49.5142 47.7882 54.2197 43.3789L61.5 36.5576L68.7793 43.3818C73.4849 47.7887 76.1807 54.0169 76.1807 60.4639C76.1805 71.5836 68.343 77.9592 68.2959 77.998L64.8965 74.627C64.9369 74.5951 71.3973 69.4858 71.3975 60.4639C71.3975 55.3342 69.2523 50.3781 65.5098 46.8721L61.5 43.1143L57.4893 46.8721C53.7468 50.3781 51.5996 55.3342 51.5996 60.4639C51.5997 65.5935 53.7468 70.5468 57.4893 74.0527L68.1924 84.6504L74.8135 91.2305C74.8135 91.2305 81.5931 86.5721 86 78.375H80.4248V78.374C78.6127 81.1063 76.5108 83.3663 75.1035 84.751L71.6924 81.3682L72.0498 81.0332C83.8952 69.9411 83.948 51.0396 72.0527 39.8887L61.5 30L50.9473 39.8887ZM62.2383 50.3604C65.0211 52.9687 66.6143 56.6503 66.6143 60.4629C66.6142 64.2754 65.0218 67.9566 62.2383 70.5625L61.5 71.2549L60.7627 70.5625C57.9799 67.9566 56.3838 64.273 56.3838 60.4629C56.3838 56.6527 57.9798 52.9687 60.7627 50.3604L61.5 49.6709L62.2383 50.3604Z" fill="#FEBA01"/>
</svg>
