<svg xmlns="http://www.w3.org/2000/svg" width="72.496" height="58.915" viewBox="0 0 72.496 58.915">
  <path id="Path_483" data-name="Path 483" d="M232.749,27.007a29.56,29.56,0,0,1-8.543,2.341,14.9,14.9,0,0,0,6.54-8.229A29.762,29.762,0,0,1,221.3,24.73,14.885,14.885,0,0,0,195.959,38.3,42.234,42.234,0,0,1,165.3,22.756a14.892,14.892,0,0,0,4.6,19.858,14.836,14.836,0,0,1-6.738-1.862c0,.062,0,.125,0,.188A14.886,14.886,0,0,0,175.1,55.524a14.932,14.932,0,0,1-3.919.521,14.742,14.742,0,0,1-2.8-.268,14.888,14.888,0,0,0,13.893,10.329,30.009,30.009,0,0,1-22.019,6.159,42.089,42.089,0,0,0,22.8,6.683c27.359,0,42.318-22.663,42.318-42.318q0-.968-.041-1.926A30.138,30.138,0,0,0,232.749,27.007Z" transform="translate(-160.253 -20.033)" fill="#a2a2a2"/>
</svg>
