<svg preserveAspectRatio="none" width="100%" height="100%" overflow="visible" style="display: block;" viewBox="0 0 32 32" fill="none" xmlns="http://www.w3.org/2000/svg">
<g id="Group 61">
<path id="Vector" d="M15.9624 6.76913C15.7752 6.70716 15.5733 6.70716 15.3863 6.76913C15.1488 6.84781 14.9947 7.04741 14.8716 7.25443C14.7466 7.4646 14.6135 7.75515 14.4501 8.11188L14.4423 8.12891C14.3318 8.37007 14.3058 8.41509 14.2747 8.44542C14.2537 8.46587 14.2299 8.48318 14.2039 8.49684C14.1654 8.51709 14.1146 8.52789 13.8511 8.55844L13.7846 8.56615C13.4153 8.60897 13.1145 8.64383 12.8875 8.69392C12.6641 8.74319 12.4377 8.82104 12.2897 9.00539C12.1498 9.17973 12.0785 9.39922 12.0892 9.62249C12.1005 9.85858 12.238 10.0547 12.3897 10.2258C12.5439 10.3998 12.7668 10.6048 13.0404 10.8565L13.0535 10.8685C13.2575 11.0562 13.294 11.0969 13.3133 11.1373C13.3289 11.1698 13.3386 11.2049 13.342 11.2409C13.3461 11.2854 13.3357 11.3391 13.2569 11.6049L13.2393 11.6645C13.1108 12.0985 13.0065 12.4504 12.9589 12.7238C12.9123 12.9918 12.9009 13.2776 13.0684 13.5074C13.1559 13.6273 13.2711 13.7241 13.4042 13.7896C13.6594 13.9151 13.939 13.8547 14.195 13.7626C14.4561 13.6687 14.7848 13.5055 15.1902 13.3042L15.3074 13.246C15.5599 13.1206 15.6108 13.1016 15.6577 13.0986C15.6697 13.0979 15.6818 13.0978 15.694 13.0985C15.7409 13.1011 15.7919 13.1197 16.0454 13.243L16.1758 13.3065C16.5769 13.5017 16.9024 13.6601 17.1611 13.7509C17.4147 13.8401 17.6913 13.8979 17.9436 13.7742C18.0802 13.7071 18.1981 13.607 18.2863 13.483C18.4493 13.254 18.437 12.9718 18.39 12.7069C18.3422 12.4371 18.2384 12.0902 18.1108 11.6628L18.0934 11.6051C18.0139 11.3391 18.0033 11.2854 18.0075 11.2408C18.0106 11.2047 18.0203 11.1694 18.036 11.1367C18.0554 11.0963 18.0919 11.0555 18.2962 10.8676L18.3092 10.8556C18.5823 10.6043 18.8049 10.3996 18.9589 10.2259C19.1105 10.055 19.2478 9.85928 19.2595 9.62359C19.2704 9.39956 19.1989 9.17929 19.0582 9.00453C18.9103 8.82068 18.6843 8.74302 18.4612 8.69385C18.2344 8.64386 17.934 8.60905 17.5654 8.56631L17.4976 8.55844C17.234 8.52789 17.1831 8.51709 17.1448 8.49684C17.1187 8.48318 17.0949 8.46587 17.0739 8.44542C17.0429 8.41509 17.0168 8.37007 16.9064 8.12891L16.8986 8.11189C16.7352 7.75517 16.602 7.4646 16.477 7.25443C16.3539 7.04741 16.1999 6.84781 15.9624 6.76913Z" fill="var(--fill-0, #376D71)"/>
<path id="Vector_2" fill-rule="evenodd" clip-rule="evenodd" d="M4.44068 3.53258C4.84746 1.54041 6.58272 0 8.71235 0H22.5378C24.6674 0 26.4025 1.54041 26.8093 3.53258H28.2106C30.1281 3.53258 31.566 5.31711 31.1899 7.22979L30.2894 11.811C29.9529 13.5227 28.9659 15.0301 27.5427 16.0054L25.169 17.6324C25.129 17.9072 25.09 18.1354 25.037 18.3539C24.561 20.3202 23.227 21.9569 21.4156 22.7969C21.1005 22.9431 20.7562 23.0597 20.256 23.2294L16.9272 24.3583V28.6022H20.8337C21.5528 28.6022 22.1358 29.1953 22.1358 29.927C22.1358 30.6586 21.5528 31.2517 20.8337 31.2517H10.4164C9.69723 31.2517 9.11423 30.6586 9.11423 29.927C9.11423 29.1953 9.69723 28.6022 10.4164 28.6022H14.3229L14.3229 24.3583L10.994 23.2294C10.4938 23.0597 10.1496 22.9431 9.83435 22.7969C8.02313 21.9569 6.6891 20.3202 6.21307 18.3539C6.16015 18.1354 6.12105 17.9072 6.08117 17.6324L3.70729 16.0054C2.28425 15.0301 1.29718 13.5227 0.960672 11.811L0.0600339 7.22979C-0.315984 5.31711 1.12205 3.53258 3.03939 3.53258H4.44068ZM4.54468 6.18203H3.03939C2.76549 6.18203 2.56005 6.43696 2.61376 6.7102L3.51442 11.2914C3.71632 12.3185 4.30856 13.2229 5.16239 13.808L5.60781 14.1133L4.54468 6.18203ZM15.625 22.0071L19.3652 20.7386C19.9579 20.5377 20.1619 20.4666 20.3356 20.3862C21.4222 19.8821 22.2226 18.9002 22.5082 17.7204C22.5539 17.532 22.5848 17.3148 22.6692 16.6851L24.2785 4.67832C24.4224 3.60512 23.6024 2.64945 22.5378 2.64945H8.71235C7.64768 2.64945 6.82768 3.60512 6.97153 4.67832L8.58092 16.6851C8.66535 17.3148 8.69622 17.532 8.74181 17.7204C9.02742 18.9002 9.82784 19.8821 10.9146 20.3862C11.0881 20.4666 11.2922 20.5377 11.8849 20.7386L15.625 22.0071ZM26.7053 6.18203L25.6423 14.1133L26.0878 13.808C26.9415 13.2229 27.5337 12.3185 27.7356 11.2914L28.6363 6.7102C28.69 6.43696 28.4846 6.18203 28.2106 6.18203H26.7053Z" fill="var(--fill-0, #376D71)"/>
</g>
</svg>
