<svg preserveAspectRatio="none" width="100%" height="100%" overflow="visible" style="display: block;" viewBox="0 0 94 96" fill="none" xmlns="http://www.w3.org/2000/svg">
<g id="Group" opacity="0.3">
<path id="Vector" d="M93.2862 1H1V7.18988H93.2862V1Z" stroke="var(--stroke-0, black)" stroke-linecap="round" stroke-linejoin="round"/>
<path id="Vector_2" d="M91.3701 7.1958H2.92752V15.9729H91.3701V7.1958Z" stroke="var(--stroke-0, black)" stroke-linecap="round" stroke-linejoin="round"/>
<path id="Vector_3" d="M12.9954 79.4667L11.6358 38.0821C11.6358 38.0821 11.1711 22.3349 17.5159 15.9729H4.36168C4.01174 18.8929 3.3176 26.8841 4.31579 39.1147C5.24513 50.5021 7.83812 76.7417 8.27985 83.4709C8.72157 90.2 7.39639 90.2 5.41723 91.2498C3.43807 92.2996 3.87406 94.8238 3.87406 94.8238H12.9036C12.9036 94.8238 14.0051 92.7242 13.7871 90.4123C13.5691 88.1004 13.0011 79.4724 13.0011 79.4724L12.9954 79.4667Z" stroke="var(--stroke-0, black)" stroke-linecap="round" stroke-linejoin="round"/>
<path id="Vector_4" d="M80.3098 79.4667L81.6694 38.0821C81.6694 38.0821 82.1341 22.3349 75.7893 15.9729H88.9436C89.2935 18.8929 89.9876 26.8841 88.9894 39.1147C88.0601 50.5021 85.4671 76.7417 85.0254 83.4709C84.5837 90.2 85.9088 90.2 87.888 91.2498C89.8672 92.2996 89.4312 94.8238 89.4312 94.8238H80.4016C80.4016 94.8238 79.3002 92.7242 79.5182 90.4123C79.7362 88.1004 80.3041 79.4724 80.3041 79.4724L80.3098 79.4667Z" stroke="var(--stroke-0, black)" stroke-linecap="round" stroke-linejoin="round"/>
</g>
</svg>
