<svg preserveAspectRatio="none" width="100%" height="100%" overflow="visible" style="display: block;" viewBox="0 0 38 30" fill="none" xmlns="http://www.w3.org/2000/svg">
<g id="Group">
<path id="Vector" d="M33.2976 2.52588H5.45741C3.6274 2.52588 2.1416 4.01168 2.1416 5.84169V19.9884C2.1416 21.7495 3.51267 23.1837 5.24515 23.2927L3.61019 28.9262L10.9187 23.3042H33.2976C35.1276 23.3042 36.6134 21.8184 36.6134 19.9884V5.84169C36.6134 4.01168 35.1276 2.52588 33.2976 2.52588Z" fill="var(--fill-0, #263238)" stroke="var(--stroke-0, #263238)" stroke-linecap="round" stroke-linejoin="round"/>
<path id="Vector_2" d="M32.156 1H4.31581C2.4858 1 1 2.4858 1 4.31581V18.4625C1 20.2237 2.37107 21.6578 4.10355 21.7668L2.46859 27.4003L9.77715 21.7783H32.156C33.986 21.7783 35.4718 20.2925 35.4718 18.4625V4.31581C35.4718 2.4858 33.986 1 32.156 1Z" fill="var(--fill-0, white)" stroke="var(--stroke-0, #263238)" stroke-miterlimit="10"/>
<g id="Group_2">
<path id="Vector_3" d="M12.4906 11.0221C12.4906 11.6302 11.9973 12.1235 11.3892 12.1235C10.7811 12.1235 10.2877 11.6302 10.2877 11.0221C10.2877 10.414 10.7811 9.92065 11.3892 9.92065C11.9973 9.92065 12.4906 10.414 12.4906 11.0221Z" fill="var(--fill-0, #263238)"/>
<path id="Vector_4" d="M19.3345 11.022C19.3345 11.6301 18.8411 12.1235 18.233 12.1235C17.6249 12.1235 17.1316 11.6301 17.1316 11.022C17.1316 10.4139 17.6249 9.92059 18.233 9.92059C18.8411 9.92059 19.3345 10.4139 19.3345 11.022Z" fill="var(--fill-0, #263238)"/>
<path id="Vector_5" d="M26.1841 11.022C26.1841 11.6301 25.6907 12.1235 25.0826 12.1235C24.4745 12.1235 23.9812 11.6301 23.9812 11.022C23.9812 10.4139 24.4745 9.92059 25.0826 9.92059C25.6907 9.92059 26.1841 10.4139 26.1841 11.022Z" fill="var(--fill-0, #263238)"/>
</g>
</g>
</svg>
