<svg preserveAspectRatio="none" width="100%" height="100%" overflow="visible" style="display: block;" viewBox="0 0 18 13" fill="none" xmlns="http://www.w3.org/2000/svg">
<path id="Wifi" fill-rule="evenodd" clip-rule="evenodd" d="M8.57131 2.42061C11.0584 2.42071 13.4504 3.32572 15.2529 4.94858C15.3887 5.07387 15.6056 5.07229 15.7393 4.94504L17.0368 3.70497C17.1045 3.64042 17.1422 3.553 17.1417 3.46203C17.1411 3.37107 17.1023 3.28407 17.0338 3.22028C12.3028 -1.07343 4.83908 -1.07343 0.108064 3.22028C0.0395316 3.28402 0.000647399 3.37099 1.54569e-05 3.46196C-0.000616485 3.55292 0.0370559 3.64038 0.104696 3.70497L1.40256 4.94504C1.53616 5.07248 1.75328 5.07406 1.88893 4.94858C3.69167 3.32561 6.08396 2.4206 8.57131 2.42061ZM8.56952 6.56273C9.92684 6.56265 11.2357 7.06491 12.2418 7.97192C12.3779 8.10065 12.5923 8.09786 12.7249 7.96564L14.0122 6.67076C14.08 6.60284 14.1176 6.5107 14.1167 6.41496C14.1157 6.31921 14.0762 6.22785 14.007 6.16132C10.9432 3.32401 6.19846 3.32401 3.13463 6.16132C3.06542 6.22785 3.02593 6.31926 3.02502 6.41503C3.02412 6.51081 3.06186 6.60294 3.12979 6.67076L4.4167 7.96564C4.54936 8.09786 4.76372 8.10065 4.89981 7.97192C5.90526 7.06551 7.2131 6.56329 8.56952 6.56273ZM11.0916 9.30455C11.0935 9.40795 11.0565 9.50763 10.9892 9.58008L8.8125 11.9893C8.7487 12.0602 8.66171 12.1 8.57094 12.1C8.48017 12.1 8.39317 12.0602 8.32937 11.9893L6.15234 9.58008C6.08509 9.50758 6.04809 9.40786 6.05008 9.30446C6.05208 9.20106 6.09289 9.10315 6.16287 9.03384C7.55297 7.74428 9.5889 7.74428 10.979 9.03384C11.0489 9.1032 11.0897 9.20115 11.0916 9.30455Z" fill="var(--fill-0, black)"/>
</svg>
