<svg preserveAspectRatio="none" width="100%" height="100%" overflow="visible" style="display: block;" viewBox="0 0 32 32" fill="none" xmlns="http://www.w3.org/2000/svg">
<g id="Group 137">
<path id="Vector" fill-rule="evenodd" clip-rule="evenodd" d="M15.625 0C15.1236 0 14.6882 0.124861 14.2832 0.289913C13.9162 0.439462 13.5042 0.652847 13.0574 0.884305L3.16605 6.00666C2.39742 6.4046 1.69115 6.77024 1.18824 7.13187C0.667543 7.5063 0.00275149 8.13012 8.44031e-06 9.12543C-0.0027242 10.1208 0.658637 10.7481 1.17725 11.1253C1.67817 11.4896 2.3824 11.859 3.14881 12.261L13.0307 17.446C13.4821 17.6828 13.898 17.901 14.2687 18.0542C14.6776 18.2229 15.1177 18.3507 15.625 18.3507C16.1323 18.3507 16.5724 18.2229 16.9814 18.0542C17.3519 17.9012 17.7679 17.6828 18.2191 17.446L28.101 12.2611C28.8675 11.8591 29.5719 11.4896 30.0727 11.1253C30.5913 10.7481 31.2528 10.1208 31.25 9.12543C31.2472 8.13012 30.5825 7.5063 30.0618 7.13187C29.5588 6.77022 28.8526 6.40458 28.0838 6.00665L18.1925 0.884288C17.7458 0.652847 17.3339 0.439462 16.9668 0.289913C16.5618 0.124861 16.1264 0 15.625 0ZM15.3155 2.74934C15.5285 2.66252 15.5996 2.66146 15.625 2.66146C15.6503 2.66146 15.7215 2.66252 15.9345 2.74934C16.1729 2.84653 16.4745 3.0012 16.9825 3.26427L26.7406 8.31762C27.443 8.68145 27.9184 8.93005 28.246 9.13345C27.9196 9.33859 27.4457 9.58974 26.7451 9.95729L16.9965 15.0723C16.4835 15.3415 16.1788 15.4998 15.9378 15.5993C15.7224 15.6882 15.6505 15.6892 15.625 15.6892C15.5994 15.6892 15.5276 15.6882 15.3122 15.5993C15.0711 15.4998 14.7665 15.3415 14.2536 15.0723L4.50488 9.95729C3.80436 9.58972 3.33046 9.33859 3.004 9.13345C3.33159 8.93007 3.80688 8.68145 4.50942 8.31763L14.2675 3.26427C14.7755 3.0012 15.077 2.84653 15.3155 2.74934Z" fill="var(--fill-0, #326367)"/>
<path id="Vector_2" d="M1.99258 15.0249C1.33703 14.6778 0.518519 14.9185 0.164509 15.5658C-0.190137 16.2142 0.057443 17.0217 0.714092 17.3694L13.0123 23.8812C13.4667 24.1219 13.8852 24.3436 14.2583 24.4989C14.67 24.6703 15.1134 24.8002 15.6249 24.8002C16.1363 24.8002 16.5797 24.6703 16.9913 24.4989C17.3646 24.3436 17.7832 24.1219 18.2375 23.8812L30.5358 17.3694C31.1924 17.0217 31.4399 16.2142 31.0852 15.5658C30.7312 14.9185 29.9128 14.6778 29.2573 15.0249L17.0061 21.5118C16.4898 21.7852 16.1828 21.9462 15.9401 22.0474C15.7229 22.1377 15.6505 22.1387 15.6249 22.1387C15.5992 22.1387 15.5267 22.1377 15.3097 22.0474C15.0668 21.9462 14.76 21.7852 14.2437 21.5118L1.99258 15.0249Z" fill="var(--fill-0, #326367)"/>
<path id="Vector_3" d="M1.99258 21.4744C1.33703 21.1273 0.518519 21.3681 0.164509 22.0154C-0.190137 22.6638 0.057443 23.4713 0.714092 23.8188L13.0122 30.3308C13.4666 30.5714 13.8852 30.7931 14.2583 30.9485C14.67 31.1199 15.1134 31.2497 15.6249 31.2497C16.1363 31.2497 16.5797 31.1199 16.9913 30.9485C17.3644 30.7931 17.783 30.5714 18.2373 30.3308L30.5358 23.8188C31.1924 23.4713 31.4399 22.6638 31.0852 22.0154C30.7312 21.3681 29.9128 21.1273 29.2573 21.4744L17.0061 27.9614C16.4898 28.2348 16.1828 28.3957 15.9401 28.497C15.7229 28.5872 15.6505 28.5883 15.6249 28.5883C15.5992 28.5883 15.5267 28.5872 15.3097 28.497C15.0668 28.3957 14.76 28.2348 14.2437 27.9614L1.99258 21.4744Z" fill="var(--fill-0, #326367)"/>
</g>
</svg>
