<svg preserveAspectRatio="none" width="100%" height="100%" overflow="visible" style="display: block;" viewBox="0 0 70 93" fill="none" xmlns="http://www.w3.org/2000/svg">
<g id="Group" opacity="0.3">
<path id="Vector" d="M69.4961 1H1V92.1848H69.4961V1Z" stroke="var(--stroke-0, black)" stroke-linecap="round" stroke-linejoin="round"/>
<path id="Vector_2" d="M67.2589 3.97168H3.2316V89.2075H67.2589V3.97168Z" stroke="var(--stroke-0, black)" stroke-linecap="round" stroke-linejoin="round"/>
<path id="Vector_3" d="M3.2316 66.5648C10.4082 62.8474 25.926 52.9401 30.1654 35.0818C33.5156 20.9752 38.3689 10.6721 45.7807 3.97168" stroke="var(--stroke-0, black)" stroke-linecap="round" stroke-linejoin="round"/>
<path id="Vector_4" d="M34.3818 89.2132C29.9589 74.86 24.4057 47.0141 39.9063 28.5247C49.6873 16.8563 59.4741 10.1329 67.2646 6.26636" stroke="var(--stroke-0, black)" stroke-linecap="round" stroke-linejoin="round"/>
<path id="Vector_5" d="M7.48246 3.97729C10.4598 7.68894 13.6838 14.114 12.6627 23.9525C11.5727 34.4908 6.79405 40.4455 3.22583 43.5031" stroke="var(--stroke-0, black)" stroke-linecap="round" stroke-linejoin="round"/>
<path id="Vector_6" d="M59.5143 89.2131C54.5062 81.589 46.6526 82.7364 41.2945 75.6458C34.5367 66.7023 41.0938 53.3817 56.6 47.209C61.4476 45.2815 64.8609 42.4992 67.2588 39.585" stroke="var(--stroke-0, black)" stroke-linecap="round" stroke-linejoin="round"/>
<path id="Vector_7" d="M3.2316 83.7517C7.92995 76.5809 13.8215 69.8116 17.4357 73.8559C20.4474 77.2234 21.1702 83.4018 21.044 89.2131" stroke="var(--stroke-0, black)" stroke-linecap="round" stroke-linejoin="round"/>
<path id="Vector_8" d="M19.4492 3.97729C19.6098 12.2783 20.6138 27.6813 25.7883 21.1702C29.3966 16.6382 32.2535 9.65662 34.1696 3.97729" stroke="var(--stroke-0, black)" stroke-linecap="round" stroke-linejoin="round"/>
<path id="Vector_9" d="M67.2646 16.0415C58.8488 23.2984 44.2203 36.7911 54.0243 34.8865C59.2447 33.8712 63.7365 30.6586 67.2646 27.1191" stroke="var(--stroke-0, black)" stroke-linecap="round" stroke-linejoin="round"/>
</g>
</svg>
