<svg preserveAspectRatio="none" width="100%" height="100%" overflow="visible" style="display: block;" viewBox="0 0 252 236" fill="none" xmlns="http://www.w3.org/2000/svg">
<g id="Group">
<path id="Vector" d="M233.767 45.9816C232.883 44.513 231.971 43.0731 231.013 41.6676C218.26 22.9315 197.035 10.1043 176.405 4.29302C167.37 1.74592 158.088 0.409274 148.823 0.0708089C88.066 -2.13782 65.7445 47.9607 46.1709 60.874C26.5973 73.7931 -3.44579 95.8507 0.323216 142.197C3.18583 177.432 23.2298 211.13 59.8414 226.464C63.8743 228.156 68.1138 229.63 72.5482 230.847C80.7976 233.118 89.7468 234.541 99.3787 234.971C127.058 236.205 149.535 229.533 171.518 212.73C176.629 208.823 181.712 204.418 188.343 203.936C193.162 203.586 197.734 205.318 192.698 209.977C186.777 215.449 193.61 226.223 208.64 218.736C233.749 206.242 244.075 179.279 248.94 151.864C254.912 118.212 252.015 76.3631 233.767 45.9758V45.9816Z" fill="var(--fill-0, #376D71)"/>
<path id="Vector_2" opacity="0.7" d="M233.767 45.9816C232.883 44.513 231.971 43.0731 231.013 41.6676C218.26 22.9315 197.035 10.1043 176.405 4.29302C167.37 1.74592 158.088 0.409274 148.823 0.0708089C88.066 -2.13782 65.7445 47.9607 46.1709 60.874C26.5973 73.7931 -3.44579 95.8507 0.323216 142.197C3.18583 177.432 23.2298 211.13 59.8414 226.464C63.8743 228.156 68.1138 229.63 72.5482 230.847C80.7976 233.118 89.7468 234.541 99.3787 234.971C127.058 236.205 149.535 229.533 171.518 212.73C176.629 208.823 181.712 204.418 188.343 203.936C193.162 203.586 197.734 205.318 192.698 209.977C186.777 215.449 193.61 226.223 208.64 218.736C233.749 206.242 244.075 179.279 248.94 151.864C254.912 118.212 252.015 76.3631 233.767 45.9758V45.9816Z" fill="var(--fill-0, white)"/>
</g>
</svg>
