<svg preserveAspectRatio="none" width="100%" height="100%" overflow="visible" style="display: block;" viewBox="0 0 24 24" fill="none" xmlns="http://www.w3.org/2000/svg">
<g id="home">
<path id="Vector" fill-rule="evenodd" clip-rule="evenodd" d="M11.5421 20.874H12.4579C14.5255 20.874 15.9456 20.872 17.0376 20.7654C18.1013 20.6616 18.6598 20.4722 19.0607 20.2178C19.5749 19.8916 20.0113 19.4579 20.3396 18.9469C20.5957 18.5485 20.7862 17.9935 20.8907 16.9366C20.998 15.8515 21 14.4404 21 12.3859C21 9.90625 20.9716 9.13757 20.7198 8.48744C20.5786 8.12267 20.3864 7.77941 20.1491 7.46774C19.7261 6.91228 19.0838 6.48281 16.9638 5.1748L16.7476 5.04131C15.4945 4.26824 14.6466 3.74677 13.9462 3.39092C13.273 3.0489 12.8459 2.91911 12.4658 2.87696C12.1562 2.84263 11.8438 2.84263 11.5342 2.87696C11.1541 2.91911 10.727 3.0489 10.0538 3.39092C9.35335 3.74677 8.50544 4.26824 7.25249 5.04131L7.03614 5.1748C4.91615 6.48281 4.27394 6.91228 3.85091 7.46774C3.61355 7.77941 3.42143 8.12267 3.28018 8.48744C3.02843 9.13757 3 9.90625 3 12.3859C3 14.4404 3.00203 15.8515 3.1093 16.9366C3.21379 17.9935 3.40426 18.5485 3.66035 18.9469C3.98872 19.4579 4.42514 19.8916 4.93927 20.2178C5.34025 20.4722 5.89876 20.6616 6.96244 20.7654C8.05442 20.872 9.47447 20.874 11.5421 20.874ZM1.60025 7.84512C1.2 8.87872 1.2 10.0478 1.2 12.3859C1.2 16.4233 1.2 18.4421 2.14336 19.9097C2.61246 20.6395 3.23592 21.2591 3.97039 21.7252C5.44741 22.6626 7.47899 22.6626 11.5421 22.6626H12.4579C16.521 22.6626 18.5526 22.6626 20.0296 21.7252C20.7641 21.2591 21.3876 20.6395 21.8567 19.9097C22.8 18.4421 22.8 16.4233 22.8 12.3859C22.8 10.0478 22.8 8.87872 22.3998 7.84512C22.198 7.32401 21.9235 6.83364 21.5844 6.3884C20.9118 5.5053 19.9123 4.88862 17.9134 3.65526L17.697 3.52178C15.2411 2.00646 14.013 1.2488 12.6654 1.09938C12.2232 1.05034 11.7768 1.05034 11.3346 1.09938C9.98698 1.2488 8.75898 2.00646 6.30299 3.52178L6.08664 3.65526C4.08764 4.88862 3.08814 5.5053 2.41559 6.3884C2.0765 6.83364 1.80204 7.32401 1.60025 7.84512ZM7.5 16.8001C7.5 16.303 7.90295 15.9001 8.4 15.9001H15.6C16.097 15.9001 16.5 16.303 16.5 16.8001C16.5 17.2972 16.097 17.7001 15.6 17.7001H8.4C7.90295 17.7001 7.5 17.2972 7.5 16.8001Z" fill="var(--fill-0, #1D192B)"/>
</g>
</svg>
