<svg preserveAspectRatio="none" width="100%" height="100%" overflow="visible" style="display: block;" viewBox="0 0 32 25" fill="none" xmlns="http://www.w3.org/2000/svg">
<g id="Group 134">
<path id="Vector" fill-rule="evenodd" clip-rule="evenodd" d="M10.915 0C7.72908 0 4.86193 2.24858 4.86193 5.34457C4.86193 8.44056 7.72908 10.6891 10.915 10.6891C14.1009 10.6891 16.9681 8.44056 16.9681 5.34457C16.9681 2.24858 14.1009 0 10.915 0ZM7.24423 5.34457C7.24423 3.82821 8.73278 2.34113 10.915 2.34113C13.0972 2.34113 14.5858 3.82821 14.5858 5.34457C14.5858 6.86093 13.0972 8.34801 10.915 8.34801C8.73278 8.34801 7.24423 6.86093 7.24423 5.34457Z" fill="var(--fill-0, #326367)"/>
<path id="Vector_2" fill-rule="evenodd" clip-rule="evenodd" d="M22.8419 4.24854C20.1596 4.24854 17.7005 6.1466 17.7005 8.81048C17.7005 11.4744 20.1596 13.3724 22.8419 13.3724C25.5243 13.3724 27.9833 11.4744 27.9833 8.81048C27.9833 6.1466 25.5243 4.24854 22.8419 4.24854ZM20.0829 8.81048C20.0829 7.72598 21.1636 6.58966 22.8419 6.58966C24.5202 6.58966 25.6012 7.72598 25.6012 8.81048C25.6012 9.895 24.5202 11.0313 22.8419 11.0313C21.1636 11.0313 20.0829 9.895 20.0829 8.81048Z" fill="var(--fill-0, #326367)"/>
<path id="Vector_3" fill-rule="evenodd" clip-rule="evenodd" d="M4.02374 13.4718C1.52493 14.9701 2.73233e-05 17.637 2.73233e-05 20.5118L1.23986e-05 21.1701C-8.2884e-05 21.422 -0.000164178 21.637 0.0216341 21.832C0.20696 23.4901 1.54089 24.7973 3.2275 24.9787C3.42594 25.0001 3.64474 25 3.9016 25H17.9283C18.1852 25 18.4041 25.0001 18.6025 24.9787C20.2891 24.7973 21.6232 23.4901 21.8085 21.832C21.8302 21.637 21.8302 21.422 21.83 21.1701V20.5118C21.83 17.637 20.3052 14.9701 17.8063 13.4718C13.5757 10.9352 8.25431 10.9352 4.02374 13.4718ZM2.38233 20.5118C2.38233 18.4543 3.47369 16.544 5.26457 15.4703C8.73323 13.3906 13.0968 13.3906 16.5655 15.4703C18.3563 16.544 19.4477 18.4543 19.4477 20.5118V21.1125C19.4477 21.4522 19.446 21.5267 19.4403 21.5764C19.3772 22.1412 18.9222 22.5892 18.3433 22.6515C18.2922 22.657 18.2158 22.6589 17.8699 22.6589H3.96021C3.61424 22.6589 3.53788 22.657 3.48679 22.6515C2.90782 22.5892 2.45282 22.1412 2.38969 21.5764C2.38414 21.5267 2.38233 21.4522 2.38233 21.1125V20.5118Z" fill="var(--fill-0, #326367)"/>
<path id="Vector_4" d="M27.986 15.5118C26.3654 14.5886 24.5355 14.1407 22.7152 14.1624C22.5537 14.1644 22.3919 14.17 22.2305 14.1794C21.5755 14.2172 21.0727 14.7697 21.1116 15.4169C21.1505 16.0639 21.7158 16.5543 22.3707 16.5164C22.4951 16.5093 22.6198 16.5049 22.7443 16.5033C24.1498 16.4866 25.5548 16.8328 26.7915 17.5372C28.1004 18.2828 28.8677 19.5877 28.8677 20.9618V21.3707C28.8679 21.5438 28.8663 21.6097 28.861 21.6549C28.8043 22.1368 28.3782 22.5868 27.7469 22.6513C27.6859 22.6575 27.6037 22.6588 27.4207 22.6588H23.5637C22.9076 22.6588 22.3726 23.181 22.3726 23.8293C22.3726 24.4775 22.9076 24.9999 23.5637 24.9999H27.4437C27.5921 25 27.7952 25.0002 27.9934 24.9799C29.6505 24.8105 31.033 23.5766 31.2274 21.9238C31.2504 21.7291 31.2502 21.5307 31.2501 21.3935V21.3916V21.3693V20.9618C31.2501 18.7125 29.9941 16.6555 27.986 15.5118Z" fill="var(--fill-0, #326367)"/>
</g>
</svg>
