<svg preserveAspectRatio="none" width="100%" height="100%" overflow="visible" style="display: block;" viewBox="0 0 35 28" fill="none" xmlns="http://www.w3.org/2000/svg">
<g id="Group">
<path id="Vector" d="M4.11502 2.43408H30.2744C31.9954 2.43408 33.3894 3.8281 33.3894 5.54911V18.841C33.3894 20.4932 32.0986 21.8413 30.4751 21.9503L32.0126 27.2453L25.1457 21.9618H4.11502C2.39401 21.9618 1 20.5678 1 18.8468V5.55484C1 3.83383 2.39401 2.43982 4.11502 2.43982V2.43408Z" fill="var(--fill-0, #263238)" stroke="var(--stroke-0, #263238)" stroke-linecap="round" stroke-linejoin="round"/>
<path id="Vector_2" d="M5.18775 1.00002H31.3471C33.0681 1.00002 34.4621 2.39404 34.4621 4.11505V17.407C34.4621 19.0591 33.1714 20.4073 31.5479 20.5163L33.0853 25.8112L26.2185 20.5277H5.18775C3.46674 20.5277 2.07273 19.1337 2.07273 17.4127V4.12078C2.07273 2.39977 3.46674 1.00576 5.18775 1.00576V1.00002Z" fill="var(--fill-0, white)" stroke="var(--stroke-0, #263238)" stroke-miterlimit="10"/>
<g id="Group_2">
<path id="Vector_3" d="M23.6714 10.4197C23.6714 10.9934 24.1361 11.4523 24.704 11.4523C25.272 11.4523 25.7366 10.9877 25.7366 10.4197C25.7366 9.8518 25.272 9.38713 24.704 9.38713C24.1361 9.38713 23.6714 9.8518 23.6714 10.4197Z" fill="var(--fill-0, #263238)"/>
<path id="Vector_4" d="M17.2348 10.4197C17.2348 10.9934 17.6995 11.4523 18.2674 11.4523C18.8354 11.4523 19.3 10.9877 19.3 10.4197C19.3 9.8518 18.8354 9.38713 18.2674 9.38713C17.6995 9.38713 17.2348 9.8518 17.2348 10.4197Z" fill="var(--fill-0, #263238)"/>
<path id="Vector_5" d="M10.804 10.4198C10.804 10.9935 11.2687 11.4524 11.8366 11.4524C12.4045 11.4524 12.8692 10.9877 12.8692 10.4198C12.8692 9.85188 12.4045 9.38721 11.8366 9.38721C11.2687 9.38721 10.804 9.85188 10.804 10.4198Z" fill="var(--fill-0, #263238)"/>
</g>
</g>
</svg>
