<svg xmlns="http://www.w3.org/2000/svg" xmlns:xlink="http://www.w3.org/1999/xlink" width="1024" height="1024" viewBox="0 0 1024 1024">
  <defs>
    <linearGradient id="linear-gradient" x1="1" x2="0" y2="1" gradientUnits="objectBoundingBox">
      <stop offset="0" stop-color="#19535c"/>
      <stop offset="1" stop-color="#103c28"/>
    </linearGradient>
  </defs>
  <g id="Group_1238" data-name="Group 1238" transform="translate(-2661 11567)">
    <rect id="Rectangle_1726" data-name="Rectangle 1726" width="1024" height="1024" rx="247" transform="translate(2661 -11567)" fill="url(#linear-gradient)"/>
    <g id="Group_1236" data-name="Group 1236" transform="translate(2874.986 -11476.635)">
      <path id="Path_535" data-name="Path 535" d="M162.349,315.624a476.2,476.2,0,0,0-7.658,58.585c-1.17,16.689-.813,33.389-.76,50.093a101.865,101.865,0,0,0,66.757,95c4.831,1.751,9.1,3.991,11.543,8.787a15.936,15.936,0,0,1-19.573,22.26,129.719,129.719,0,0,1-46.612-27.468C136.881,495.9,122.178,462.4,122.024,422.7c-.1-26.681.6-53.359,3.569-79.9,1.867-16.7,4.162-33.359,10.413-49.147a47.151,47.151,0,0,1,2.9-6.038c5.661-9.9,13.838-12.419,23.961-7.366q34.69,17.319,69.354,34.694c8.334,4.171,16.732,8.224,24.976,12.566a15.67,15.67,0,0,1,8.185,17.313,16.178,16.178,0,0,1-14.047,12.623c-3.731.446-7.082-.783-10.372-2.436Q203.32,336.1,165.637,317.264C164.646,316.768,163.654,316.275,162.349,315.624Z" fill="#fff"/>
      <path id="Path_536" data-name="Path 536" d="M473.037,404.413c-.547-29.234-1.755-55.868-6.287-82.23-2.067-12.024-4.492-24.005-10.513-34.823-5.409-9.721-13.814-12.189-23.7-7.249-31.352,15.657-62.738,31.247-94.037,47.011-21.913,11.037-42.409,24.16-59.5,42.038-22.235,23.253-35.188,50.544-35.123,83.13.054,27.089,8.114,52.19,20.423,76.043,5.666,10.978,12.23,21.388,20.781,30.431a18.556,18.556,0,0,0,14.961,6.21c8.474-.3,16.937-.637,25.378-1.462,25.608-2.5,50.277-8.517,73.244-20.366,35.268-18.2,59.482-45.651,69.9-84.488C473.559,439.991,473.615,420.958,473.037,404.413ZM441.4,420.243c-.121,49.7-27.4,83.606-70.734,100.4-17.543,6.8-35.832,10.232-54.568,11.556-2.626.185-3.357-.343-3.333-3.067.48-52.981,34.276-103.245,83.334-123.558,6.008-2.488,11.262-5.527,12.912-12.306,1.506-6.184-.05-11.7-4.873-15.926-4.917-4.307-10.611-5.166-16.734-2.773a160.96,160.96,0,0,0-42.86,24.635c-30.976,25.011-50.762,56.942-59.055,95.933a7.446,7.446,0,0,1-.7,1.2,106.14,106.14,0,0,1-8.869-36.493c-2.261-33.185,12.694-58.232,37.143-78.808,14.685-12.358,31.447-21.327,48.531-29.8,22.6-11.206,45.13-22.54,67.692-33.815,1.1-.551,2.225-1.063,3.559-1.7,2.385,11.371,4.02,22.661,5.418,33.988C441.153,373.138,441.456,396.66,441.4,420.243Z" fill="#fff"/>
    </g>
  </g>
</svg>
