<svg width="600" height="450" viewBox="0 0 800 600" fill="none" xmlns="http://www.w3.org/2000/svg" data-reactroot="">
<path d="M683.69 141.686H684.041H95.7487L10 476.598H10.3515L11.0542 473.786H416.955H421.875H765.221H768.736L683.69 141.686Z" fill="#000000"></path>
<path d="M704.955 123.918H705.307H117.014L31.2656 458.83H31.6171L32.3199 456.019H438.221H443.141H786.487H790.001L704.955 123.918Z" fill="#FFE7C2"></path>
<g opacity="0.8">
<path d="M237.552 164.682H160.941L159.887 171.007H237.201L237.552 164.682Z" fill="#9E6B93"></path>
<path d="M349.305 186.822H156.371L154.965 193.148H348.954L349.305 186.822Z" fill="#9E6B93"></path>
<path d="M408.344 210.016H151.449L150.043 216.693H408.344V210.016Z" fill="#9E6B93"></path>
<path d="M264.259 233.912H146.531L145.125 240.941H263.908L264.259 233.912Z" fill="#9E6B93"></path>
<path d="M141.257 258.865L139.852 265.894H444.189L444.541 258.865" fill="#9E6B93"></path>
<path d="M344.385 284.871H135.988L134.23 292.251H344.034L344.385 284.871Z" fill="#9E6B93"></path>
<path d="M284.995 311.578H130.367L128.609 319.31H284.644L284.995 311.578Z" fill="#9E6B93"></path>
<path d="M386.911 339.693H124.394L122.637 347.776H386.56L386.911 339.693Z" fill="#9E6B93"></path>
<path d="M436.109 368.861H118.066L116.309 377.296H435.758L436.109 368.861Z" fill="#9E6B93"></path>
</g>
<path d="M531.139 137.744C529.235 136.298 526.473 137.134 525.692 139.394L521.53 151.43C520.633 154.024 522.922 156.599 525.603 156.012L541.133 152.611C544.061 151.969 544.893 148.192 542.506 146.379L531.139 137.744Z" fill="#9E6B93"></path>
<path d="M549.084 308.977C548.041 305.78 549.987 302.382 553.271 301.663C556.109 301.041 558.958 302.66 559.878 305.416L572.184 342.29C575.975 353.649 587.721 360.32 599.419 357.759L621.32 352.963C623.396 352.508 625.49 353.649 626.234 355.64C627.143 358.074 625.686 360.75 623.147 361.306L595.458 367.37C580.977 370.541 566.45 362.224 561.853 348.131L549.084 308.977Z" fill="#9E6B93"></path>
<path d="M555.173 168.59C552.609 161.553 545.235 157.498 537.919 159.1C529.216 161.006 524.098 170.05 526.944 178.492L580.588 337.585C583.357 345.8 591.864 350.614 600.332 348.76C610.384 346.558 616.191 336.001 612.667 326.333L555.173 168.59Z" fill="#9E6B93"></path>
</svg>
