<svg width="600" height="450" viewBox="0 0 800 600" fill="none" xmlns="http://www.w3.org/2000/svg" data-reactroot="">
<rect x="328.992" y="10" width="431.331" height="384.302" transform="rotate(34.4131 328.992 10)" fill="#FFE7C2"></rect>
<path d="M684.836 253.766L459.843 582.198L471.233 590.001L676.647 290.148L684.836 253.766Z" fill="#000000"></path>
<path d="M111.801 327.039L475.661 576.302L467.859 587.691L132.626 358.039L111.801 327.039Z" fill="#000000"></path>
<rect x="189.441" y="276.279" width="153.792" height="12.3276" transform="rotate(34.4131 189.441 276.279)" fill="#9E6B93"></rect>
<rect x="217.305" y="235.597" width="153.792" height="12.3276" transform="rotate(34.4131 217.305 235.597)" fill="#9E6B93"></rect>
<rect x="245.172" y="194.917" width="153.792" height="12.3276" transform="rotate(34.4131 245.172 194.917)" fill="#9E6B93"></rect>
<rect x="273.043" y="154.239" width="153.792" height="12.3276" transform="rotate(34.4131 273.043 154.239)" fill="#9E6B93"></rect>
<rect x="300.906" y="113.561" width="153.792" height="12.3276" transform="rotate(34.4131 300.906 113.561)" fill="#9E6B93"></rect>
<rect x="328.773" y="72.8809" width="153.792" height="12.3276" transform="rotate(34.4131 328.773 72.8809)" fill="#9E6B93"></rect>
<rect x="343.898" y="382.088" width="153.792" height="12.3276" transform="rotate(34.4131 343.898 382.088)" fill="#9E6B93"></rect>
<rect x="371.766" y="341.408" width="153.792" height="12.3276" transform="rotate(34.4131 371.766 341.408)" fill="#9E6B93"></rect>
<rect x="399.637" y="300.729" width="153.792" height="12.3276" transform="rotate(34.4131 399.637 300.729)" fill="#9E6B93"></rect>
<rect x="483.238" y="178.693" width="153.792" height="110.945" transform="rotate(34.4131 483.238 178.693)" fill="#9E6B93"></rect>
<path d="M303.66 413.545L261.17 429.365L302.059 457.376L303.66 413.545Z" fill="#000000"></path>
</svg>
