<svg preserveAspectRatio="none" width="100%" height="100%" overflow="visible" style="display: block;" viewBox="0 0 61 216" fill="none" xmlns="http://www.w3.org/2000/svg">
<g id="Group">
<path id="Vector" d="M20.884 119.326C20.884 119.326 24.3146 146.851 26.6264 153.815C28.9383 160.78 30.1201 177.456 31.8124 182.958C33.5047 188.465 33.4416 202.067 33.4302 202.549C33.4244 203.036 30.1144 207.247 27.5042 208.377C24.894 209.513 20.1727 210.97 19.358 211.452C18.5377 211.94 17.9812 213.489 19.6449 213.557C21.3085 213.626 25.9495 214.206 27.0796 214.206C28.2098 214.206 33.4416 214.745 34.7324 213.425C36.0232 212.1 38.1974 207.729 38.3867 206.111C38.576 204.493 38.7596 193.318 38.7596 193.318C38.7596 193.318 40.4232 180.686 37.4114 157.372C34.3997 134.058 31.4281 117.864 31.4281 117.864L20.8783 119.321L20.884 119.326Z" fill="var(--fill-0, #263238)" stroke="var(--stroke-0, #263238)" stroke-linecap="round" stroke-linejoin="round"/>
<path id="Vector_2" d="M22.4559 118.718C22.4559 118.718 25.221 143.243 28.032 152.33C30.8429 161.422 31.3019 171.989 32.9139 176.642C34.5259 181.294 34.8357 201.166 34.8185 202.222C34.8013 203.277 31.3707 206.025 29.4489 207.505C27.5214 208.985 25.5996 210.253 23.6835 211.096C21.7675 211.94 20.907 212.789 21.3143 213.632C21.7216 214.475 31.0036 215.743 34.8127 215.324C38.6276 214.9 45.6034 214.687 46.4525 214.481C47.3015 214.269 48.3743 213.213 48.4202 210.465C48.4661 207.717 47.3245 199.898 47.3245 199.898C47.3245 199.898 47.0262 192.286 48.053 181.294C49.0799 170.303 47.1007 162.271 46.1025 158.674C45.1044 155.077 48.6841 130.347 48.6841 130.347C48.6841 130.347 51.5754 121.678 51.8335 118.718C52.0917 115.758 51.9081 114.278 51.9081 114.278L22.4502 118.718H22.4559Z" fill="var(--fill-0, white)" stroke="var(--stroke-0, #263238)" stroke-linecap="round" stroke-linejoin="round"/>
<path id="Vector_3" d="M22.4559 118.718C22.4559 118.718 25.221 143.243 28.0319 152.33C30.8429 161.422 31.3018 171.989 32.9139 176.642C34.5259 181.294 34.8357 201.166 34.8184 202.222C34.8184 202.222 38.249 204.998 42.9932 206.966C45.0068 207.798 46.8483 208.05 48.3054 208.067C48.0243 204.671 47.3302 199.898 47.3302 199.898C47.3302 199.898 47.0319 192.286 48.0587 181.294C49.0856 170.303 47.1064 162.271 46.1083 158.674C45.1101 155.083 48.6898 130.347 48.6898 130.347C48.6898 130.347 51.5811 121.678 51.8392 118.718C52.0974 115.758 51.9138 114.278 51.9138 114.278L22.4559 118.718Z" fill="var(--fill-0, #376D71)" stroke="var(--stroke-0, #263238)" stroke-linecap="round" stroke-linejoin="round"/>
<path id="Vector_4" d="M34.8127 215.324C38.6276 214.9 45.6034 214.687 46.4525 214.481C47.072 214.326 47.8178 213.712 48.1849 212.318C45.1502 212.731 39.3045 213.431 34.7324 213.431C29.8103 213.431 24.0966 212.697 21.6412 212.347C21.2225 212.777 21.102 213.207 21.3085 213.632C21.7158 214.475 30.9978 215.743 34.807 215.324H34.8127Z" fill="var(--fill-0, white)" stroke="var(--stroke-0, #263238)" stroke-linecap="round" stroke-linejoin="round"/>
<path id="Vector_5" d="M23.0984 45.8505L21.6699 48.2255L21.211 52.0232L22.9378 49.9523C22.9378 49.9523 20.2931 53.8647 20.4079 55.8209C20.5226 57.7771 20.1784 62.269 20.1784 62.269L17.6485 75.6183L25.1292 57.4329L27.6591 45.4604L23.0984 45.8505Z" fill="var(--fill-0, #263238)" stroke="var(--stroke-0, #263238)" stroke-linecap="round" stroke-linejoin="round"/>
<path id="Vector_6" d="M22.1002 37.2171L25.307 45.65L38.8456 35.3182L35.874 29.616L34.566 26.7648C34.566 26.7648 39.316 22.0148 38.3637 18.2171C37.4114 14.4194 31.474 12.5149 29.3399 13.7024C27.2059 14.8899 26.4888 19.9955 26.4888 22.9671C26.4888 25.9387 26.1331 29.5012 25.7774 31.4001C25.4217 33.2989 25.1808 35.1978 25.1808 35.1978L22.0945 37.2171H22.1002Z" fill="var(--fill-0, white)" stroke="var(--stroke-0, #263238)" stroke-linecap="round" stroke-linejoin="round"/>
<g id="Group_2">
<path id="Vector_7" d="M17.6657 8.0057C17.6657 8.0057 17.5682 8.17207 17.4076 8.4589C16.6274 9.84145 14.3671 13.9604 14.6195 14.8037C14.9236 15.8191 15.5317 16.7312 15.1244 17.4426C14.7171 18.1539 12.7895 21.4984 12.4855 22.5138C12.1814 23.5292 12.3822 24.1373 12.9903 24.3381C13.5984 24.5389 14.3098 25.147 14.3098 25.147C14.3098 25.147 13.0936 30.1149 12.7895 33.4652C12.4855 36.8097 11.8774 38.9437 14.413 39.4485C16.9486 39.9534 24.5555 38.5364 27.5959 36.5056C30.6364 34.4748 30.7396 33.4652 30.3323 31.0271C29.925 28.5947 29.621 20.9878 29.8275 18.8538C30.0283 16.7255 31.3477 16.1174 32.0591 15.6068C32.7704 15.102 35.4036 16.7197 35.3061 19.1578C35.2085 21.5959 33.9866 23.2137 32.5696 24.0283L31.147 24.8372C31.147 24.8372 29.9308 25.038 31.755 28.0841C33.5793 31.1246 35.3061 31.4286 36.2182 30.9238C37.1303 30.419 38.4498 28.9963 38.4498 28.9963C38.4498 28.9963 36.0174 29.0995 36.8263 28.0841C37.6352 27.0687 40.6813 27.2753 42.2016 22.5081C43.7218 17.7409 42.8097 14.9012 40.5781 9.93323C38.3465 4.96526 31.3477 3.54256 29.7243 3.23851C28.1008 2.93447 25.4619 2.32637 25.4619 2.32637C25.4619 2.32637 21.6068 -0.00845897 17.7518 1.5175C13.8967 3.03773 14.304 5.47008 15.3194 6.78952C15.3194 6.78952 16.1283 8.21222 17.6542 8.0057H17.6657Z" fill="var(--fill-0, white)" stroke="var(--stroke-0, #263238)" stroke-linecap="round" stroke-linejoin="round"/>
<path id="Vector_8" d="M29.7357 3.23854C28.1123 2.93449 25.4734 2.3264 25.4734 2.3264C25.4734 2.3264 21.6183 -0.00843113 17.7632 1.51753C13.9082 3.03775 14.3155 5.47011 15.3309 6.78955C15.3309 6.78955 16.1398 8.20651 17.6657 8.00573C17.6657 8.00573 24.9685 7.5009 25.7774 8.10899C26.5863 8.71708 25.6742 8.51629 24.762 10.8454C23.8499 13.1802 23.4426 13.2778 25.3701 14.2931C27.2976 15.3085 27.8025 16.7255 27.8025 16.7255C27.8025 16.7255 27.2976 27.4761 26.8903 28.285C26.483 29.0938 24.8595 27.5736 22.5304 26.4607C20.1956 25.3478 14.3155 25.1412 14.3155 25.1412C14.3155 25.1412 13.0993 30.1092 12.7953 33.4594C12.4912 36.8039 11.8831 38.938 14.4188 39.4428C16.9544 39.9477 24.5612 38.5307 27.6017 36.4999C30.6421 34.4691 30.7454 33.4594 30.3381 31.0213C29.9308 28.589 29.6267 20.9821 29.8333 18.8481C30.034 16.7198 31.3535 16.1117 32.0648 15.6011C32.7762 15.0963 35.4093 16.714 35.3118 19.1521C35.2085 21.5845 33.9924 23.208 32.5754 24.0226L31.1527 24.8315C31.1527 24.8315 29.9365 25.0322 31.7608 28.0784C33.5851 31.1189 35.3118 31.4229 36.2239 30.9181C37.1361 30.4133 38.4555 28.9906 38.4555 28.9906C38.4555 28.9906 36.0232 29.0938 36.832 28.0784C37.6409 27.063 40.6871 27.2696 42.2073 22.5024C43.7275 17.7352 42.8154 14.8955 40.5838 9.92752C38.3522 4.95954 31.3535 3.53685 29.73 3.2328L29.7357 3.23854Z" fill="var(--fill-0, #263238)" stroke="var(--stroke-0, #263238)" stroke-linecap="round" stroke-linejoin="round"/>
<path id="Vector_9" d="M18.6811 18.2514C18.6811 18.8652 18.4115 19.3643 18.073 19.3643C17.7346 19.3643 17.4649 18.8652 17.4649 18.2514C17.4649 17.6376 17.7346 17.1385 18.073 17.1385C18.4115 17.1385 18.6811 17.6376 18.6811 18.2514Z" fill="var(--fill-0, #263238)"/>
<path id="Vector_10" d="M15.2334 16.2208C15.2334 16.2208 18.6811 14.9014 21.8248 15.9168C21.8248 15.9168 22.0256 19.0605 21.8248 20.3799C21.624 21.6994 19.5933 22.2042 17.9698 21.8026C16.3463 21.3953 15.939 19.6743 15.6349 18.8597C15.3309 18.0508 15.2276 16.2208 15.2276 16.2208H15.2334Z" stroke="var(--stroke-0, #263238)" stroke-linecap="round" stroke-linejoin="round"/>
<path id="Vector_11" d="M15.2334 16.2206C15.2334 16.2206 13.5066 16.0198 12.5945 16.3238C12.5945 16.3238 11.8831 17.9473 13.5066 19.5708" stroke="var(--stroke-0, #263238)" stroke-linecap="round" stroke-linejoin="round"/>
<path id="Vector_12" d="M16.3463 14.7005C16.3463 14.7005 17.6657 13.8916 18.8819 13.9891C20.0981 14.0867 21.4175 15.0045 20.5054 15.1021C19.5932 15.2053 18.1706 14.6948 17.1609 15.1021C16.1455 15.5094 16.2488 15.2053 16.352 14.6948L16.3463 14.7005Z" fill="var(--fill-0, #263238)"/>
<path id="Vector_13" d="M21.8248 15.9165L30.3438 16.8287L29.9365 18.0506L24.8653 17.236L24.1597 17.8441L21.8822 17.6892L21.8248 15.9165Z" fill="var(--fill-0, #263238)" stroke="var(--stroke-0, #263238)" stroke-linecap="round" stroke-linejoin="round"/>
<path id="Vector_14" d="M16.5298 28.9447L20.5455 27.1204C20.5455 27.1204 21.1307 28.8012 19.3007 29.8969C17.4764 30.9927 16.5241 28.9447 16.5241 28.9447H16.5298Z" fill="var(--fill-0, white)" stroke="var(--stroke-0, #263238)" stroke-linecap="round" stroke-linejoin="round"/>
</g>
<path id="Vector_15" d="M38.249 33.947L23.0984 45.8507L24.8309 49.4189L39.6545 36.3277L38.249 33.947Z" fill="var(--fill-0, white)" stroke="var(--stroke-0, #263238)" stroke-linecap="round" stroke-linejoin="round"/>
<path id="Vector_16" d="M13.1223 87.0343L17.2412 86.0017C17.2412 86.0017 17.4018 91.2336 17.4018 92.0252C17.4018 92.8169 12.0954 92.1056 12.0954 92.1056L13.128 87.0343H13.1223Z" fill="var(--fill-0, white)" stroke="var(--stroke-0, #263238)" stroke-linecap="round" stroke-linejoin="round"/>
<path id="Vector_17" d="M14.935 97.3892C14.935 97.3892 13.6558 118.07 15.0612 119.475C16.4667 120.881 21.188 119.986 21.188 119.986L17.7403 96.1099C17.7403 96.1099 16.0824 96.3623 14.9293 97.3892H14.935Z" fill="var(--fill-0, #263238)" stroke="var(--stroke-0, #263238)" stroke-linecap="round" stroke-linejoin="round"/>
<path id="Vector_18" d="M39.6545 35.0315L23.7466 49.9641C23.7466 49.9641 17.4707 75.1769 16.9314 77.0184C16.3922 78.8598 15.6349 82.7551 15.6349 82.7551C15.6349 82.7551 18.1246 119.114 18.9909 120.416C19.8571 121.713 28.2958 122.906 40.8534 121.501C53.4053 120.095 60.4385 115.546 60.4385 115.546C60.4385 115.546 55.786 98.5539 53.7266 91.8477C51.6671 85.1415 50.3706 80.9193 50.2616 80.0531C50.1526 79.1868 50.4796 57.9783 49.9346 54.6223C49.3954 51.2663 47.8809 47.0499 44.7429 41.7434C41.6049 36.4427 39.6545 35.0315 39.6545 35.0315Z" fill="var(--fill-0, #376D71)" stroke="var(--stroke-0, #263238)" stroke-linecap="round" stroke-linejoin="round"/>
<path id="Vector_19" d="M36.2583 45.3114L41.8287 39.0813" stroke="var(--stroke-0, #263238)" stroke-linecap="round" stroke-linejoin="round"/>
<path id="Vector_20" d="M19.6563 78.2974C21.6584 75.6642 24.2859 71.6715 25.9265 67.0936C28.8752 58.8787 30.034 54.0312 30.034 54.0312L24.5555 50.767L31.1928 50.9792L34.3939 47.3938" stroke="var(--stroke-0, #263238)" stroke-linecap="round" stroke-linejoin="round"/>
<path id="Vector_21" d="M16.8683 81.6306C16.8683 81.6306 17.4076 81.0741 18.2394 80.0759" stroke="var(--stroke-0, #263238)" stroke-linecap="round" stroke-linejoin="round"/>
<g id="Group_3">
<path id="Vector_22" d="M10.5867 83.552C10.5867 83.552 12.3306 84.9804 12.7264 85.296C13.1223 85.6115 13.2026 86.4031 13.2026 86.4031C13.2026 86.4031 12.0954 85.927 11.3783 86.0073C10.6612 86.0876 10.3457 85.6115 10.3457 85.6115L10.5809 83.552H10.5867Z" fill="var(--fill-0, white)" stroke="var(--stroke-0, #263238)" stroke-linecap="round" stroke-linejoin="round"/>
<path id="Vector_23" d="M14.0745 89.9657C14.0745 89.9657 13.8393 87.2695 13.2026 86.3975C12.5715 85.5255 11.8544 85.1297 11.4586 85.2903C11.0628 85.4509 10.3514 85.6058 10.3514 85.6058C10.3514 85.6058 7.25934 83.4661 6.15216 83.2308C5.04497 82.9956 4.25331 83.466 4.09269 84.2634C3.93206 85.0551 3.85748 85.8468 3.85748 85.8468C3.85748 85.8468 2.90519 86.2426 2.42905 87.8259C1.9529 89.4093 2.66425 91.0729 2.66425 91.0729C2.66425 91.0729 2.10779 94.0044 2.58393 94.9567C3.06008 95.9089 4.16727 96.4597 4.16727 96.4597C4.16727 96.4597 9.31881 97.2513 10.1105 97.2513C10.9021 97.2513 11.4586 96.9358 11.4586 96.9358C11.4586 96.9358 12.0151 91.0729 14.0745 89.9657Z" fill="var(--fill-0, white)" stroke="var(--stroke-0, #263238)" stroke-linecap="round" stroke-linejoin="round"/>
<path id="Vector_24" d="M8.36653 82.9153C8.36653 82.9153 7.49454 85.8468 7.25934 86.5581C7.02413 87.2695 7.65518 87.9063 8.52716 87.7456C9.39914 87.585 10.2711 85.8468 10.6669 84.579C11.0628 83.3112 9.55977 82.204 8.36653 82.9153Z" fill="var(--fill-0, white)" stroke="var(--stroke-0, #263238)" stroke-linecap="round" stroke-linejoin="round"/>
<path id="Vector_25" d="M5.67603 86.7992C5.67603 86.7992 4.24759 85.2158 3.53624 85.0552C2.82489 84.8946 2.03323 85.5314 2.42906 86.5582C2.82489 87.5908 4.25332 88.6177 5.1253 88.6177C5.99728 88.6177 6.47342 87.826 5.68176 86.7934L5.67603 86.7992Z" fill="var(--fill-0, white)" stroke="var(--stroke-0, #263238)" stroke-linecap="round" stroke-linejoin="round"/>
<path id="Vector_26" d="M1.31613 90.5222C1.31613 90.5222 0.604775 91.7901 1.31613 92.5014C2.02748 93.2128 4.48277 94.3257 4.80403 93.6086C5.11955 92.8972 4.56883 92.3408 3.93206 91.7843C3.30102 91.2279 2.10779 90.201 1.31613 90.5165V90.5222Z" fill="var(--fill-0, white)" stroke="var(--stroke-0, #263238)" stroke-linecap="round" stroke-linejoin="round"/>
<path id="Vector_27" d="M2.97979 95.5933C2.97979 95.5933 2.66427 96.3849 3.2953 97.0217C3.92634 97.6585 4.64343 97.8937 5.4351 97.5782C6.22676 97.2627 6.6226 97.0217 6.6226 97.0217L4.16729 96.4653L2.97979 95.5933Z" fill="var(--fill-0, white)" stroke="var(--stroke-0, #263238)" stroke-linecap="round" stroke-linejoin="round"/>
</g>
<g id="Group_4">
<g id="Vector_28">
<path d="M39.6545 46.7169C39.6545 46.7169 35.111 51.2603 34.566 55.7005C34.0268 60.135 35.4323 80.2651 35.4323 80.2651C35.4323 80.2651 34.348 80.1561 34.348 81.1313C34.348 82.1066 34.457 83.294 34.457 83.294C34.457 83.294 18.7672 89.1397 17.1437 89.461C15.5202 89.788 14.1147 88.9217 12.6002 90.0002C11.0857 91.0845 9.68025 95.192 10.7587 98.0087C11.843 100.82 16.2774 101.795 17.6829 101.904C19.0884 102.013 40.951 98.0087 44.9552 97.7907C48.9594 97.5727 48.7414 91.0787 48.7414 91.0787L51.4491 71.9239C51.4491 71.9239 52.0974 57.6395 50.4739 52.5511C48.8504 47.4626 47.2269 44.5427 43.871 44.0034" fill="var(--fill-0, #376D71)"/>
<path d="M39.6545 46.7169C39.6545 46.7169 35.111 51.2603 34.566 55.7005C34.0268 60.135 35.4323 80.2651 35.4323 80.2651C35.4323 80.2651 34.348 80.1561 34.348 81.1313C34.348 82.1066 34.457 83.294 34.457 83.294C34.457 83.294 18.7672 89.1397 17.1437 89.461C15.5202 89.788 14.1147 88.9217 12.6002 90.0002C11.0857 91.0845 9.68025 95.192 10.7587 98.0087C11.843 100.82 16.2774 101.795 17.6829 101.904C19.0884 102.013 40.951 98.0087 44.9552 97.7907C48.9594 97.5727 48.7414 91.0787 48.7414 91.0787L51.4491 71.9239C51.4491 71.9239 52.0974 57.6395 50.4739 52.5511C48.8504 47.4626 47.2269 44.5427 43.871 44.0034" stroke="var(--stroke-0, #263238)" stroke-linecap="round" stroke-linejoin="round"/>
</g>
<path id="Vector_29" d="M35.438 82.8581C35.438 82.8581 38.903 81.4527 41.2837 81.8829C43.6644 82.3132 44.2037 83.0761 44.2037 83.0761" stroke="var(--stroke-0, #263238)" stroke-linecap="round" stroke-linejoin="round"/>
<path id="Vector_30" d="M41.9319 80.3742C41.9319 80.3742 39.2242 79.6169 37.0615 80.3742" stroke="var(--stroke-0, #263238)" stroke-linecap="round" stroke-linejoin="round"/>
<path id="Vector_31" d="M42.0352 84.6996C42.0352 84.6996 43.7677 85.3479 44.307 85.0266C44.8462 84.7054 44.9552 82.7549 44.9552 82.7549" stroke="var(--stroke-0, #263238)" stroke-linecap="round" stroke-linejoin="round"/>
</g>
</g>
</svg>
