<svg preserveAspectRatio="none" width="100%" height="100%" overflow="visible" style="display: block;" viewBox="0 0 32 32" fill="none" xmlns="http://www.w3.org/2000/svg">
<g id="Group 135">
<path id="Vector" fill-rule="evenodd" clip-rule="evenodd" d="M11.5272 1.25948L11.2971 1.36301C9.81251 2.03026 8.51267 2.62775 6.97516 3.33445L6.24721 3.66898C4.86596 4.30357 3.69847 4.83995 2.79271 5.43556C1.81361 6.0794 1.06528 6.83704 0.557931 7.94302C-0.407914 10.0485 0.0487813 11.7088 0.662688 13.9409L0.719286 14.1468C2.91894 22.1594 8.66859 27.2974 12.1181 29.7711L12.245 29.8622C13.2872 30.611 14.1796 31.2521 15.6255 31.25C17.0714 31.248 17.963 30.6037 19.0042 29.8513L19.1313 29.7596C22.5743 27.2761 28.3193 22.1262 30.5256 14.1478L30.5822 13.9433C31.1997 11.7145 31.6591 10.0564 30.6938 7.94697C29.7269 5.83404 27.8322 4.96525 25.2542 3.78318L24.2773 3.33448C22.7398 2.62771 21.44 2.03032 19.9554 1.36301L19.7252 1.2595C18.0962 0.526251 16.9269 0 15.6262 0C14.3255 0 13.1563 0.526234 11.5272 1.25948ZM12.3694 3.83096C14.3212 2.95367 14.9535 2.6982 15.6262 2.6982C16.299 2.6982 16.9313 2.95367 18.883 3.83096C20.3568 4.49336 21.646 5.08595 23.1844 5.79305L23.8271 6.08843C25.3556 6.79074 26.345 7.26277 27.0188 7.70163C27.6863 8.13638 28.0361 8.53359 28.2888 9.08553C28.5506 9.6575 28.6398 10.1204 28.5825 10.7442C28.5243 11.3775 28.3155 12.1748 27.9719 13.4172C26.0054 20.5288 20.8332 25.224 17.5967 27.5585C16.9985 27.9901 16.6408 28.2377 16.3613 28.3789C16.0906 28.5158 15.8964 28.5514 15.6218 28.5518C15.3472 28.5523 15.1529 28.5172 14.8823 28.3813C14.6029 28.241 14.2451 27.995 13.6467 27.5658C10.4083 25.2436 5.2348 20.5624 3.27436 13.4211C2.9325 12.1758 2.72467 11.3765 2.66717 10.7422C2.61056 10.1174 2.70017 9.65453 2.96193 9.0839C3.21156 8.5397 3.56882 8.13822 4.23302 7.70145C4.95198 7.22866 5.93587 6.77279 7.42534 6.08843L8.06787 5.79312C9.60633 5.08598 10.8956 4.49337 12.3694 3.83096Z" fill="var(--fill-0, #326367)"/>
<path id="Vector_2" fill-rule="evenodd" clip-rule="evenodd" d="M21.5824 10.295C22.1473 10.7308 22.252 11.5422 21.8162 12.1072L16.1577 19.4423C16.1457 19.4578 16.1337 19.4734 16.1214 19.4892C15.9251 19.744 15.7032 20.0321 15.4818 20.248C15.2207 20.5027 14.8007 20.8201 14.1939 20.8501C13.587 20.8802 13.1377 20.6058 12.8528 20.3782C12.6112 20.1852 12.3618 19.9204 12.1413 19.6862C12.1276 19.6716 12.1141 19.6574 12.1006 19.643L9.51678 16.9027C9.02726 16.3834 9.05131 15.5657 9.57049 15.0762C10.0897 14.5867 10.9074 14.6108 11.3969 15.1299L13.9808 17.8704C14.0049 17.8959 14.0279 17.9204 14.05 17.9437C14.0697 17.9183 14.0902 17.8918 14.1116 17.8638L19.7702 10.5288C20.206 9.9638 21.0174 9.85911 21.5824 10.295Z" fill="var(--fill-0, #326367)"/>
</g>
</svg>
