<svg preserveAspectRatio="none" width="100%" height="100%" overflow="visible" style="display: block;" viewBox="0 0 20 12" fill="none" xmlns="http://www.w3.org/2000/svg">
<path id="Cellular Connection" fill-rule="evenodd" clip-rule="evenodd" d="M19.2 1.125C19.2 0.50368 18.7224 0 18.1333 0H17.0667C16.4776 0 16 0.50368 16 1.125V10.875C16 11.4963 16.4776 12 17.0667 12H18.1333C18.7224 12 19.2 11.4963 19.2 10.875V1.125ZM11.7667 2.4H12.8333C13.4224 2.4 13.9 2.91577 13.9 3.552V10.848C13.9 11.4842 13.4224 12 12.8333 12H11.7667C11.1776 12 10.7 11.4842 10.7 10.848V3.552C10.7 2.91577 11.1776 2.4 11.7667 2.4ZM7.43333 5H6.36667C5.77756 5 5.3 5.52233 5.3 6.16667V10.8333C5.3 11.4777 5.77756 12 6.36667 12H7.43333C8.02244 12 8.5 11.4777 8.5 10.8333V6.16667C8.5 5.52233 8.02244 5 7.43333 5ZM2.13333 7.4H1.06667C0.477563 7.4 0 7.91487 0 8.55V10.85C0 11.4851 0.477563 12 1.06667 12H2.13333C2.72244 12 3.2 11.4851 3.2 10.85V8.55C3.2 7.91487 2.72244 7.4 2.13333 7.4Z" fill="var(--fill-0, black)"/>
</svg>
