<svg xmlns="http://www.w3.org/2000/svg" width="189.906" height="242.726" viewBox="0 0 189.906 242.726">
  <path id="leaf" d="M245.443,7.733a7.111,7.111,0,0,0-6.058-5.505c-29.349-3.668-56.462-2.8-80.585,2.567-30.718,6.839-57.052,21.064-78.272,42.281A85.024,85.024,0,0,0,90.711,175.935v59.679a7.111,7.111,0,0,0,14.222,0V184.3a85.155,85.155,0,0,0,95.754-17.066c25.048-25.046,19.86-59.555,18.154-78.921-2.606-29.567-4.858-55.1,23.464-73.019a7.111,7.111,0,0,0,3.137-7.561ZM90.587,57.131c25.046-25.041,57.592-39.177,97.129-42.273A167.378,167.378,0,0,0,140.064,50.27,179.513,179.513,0,0,0,91.453,158.022,70.866,70.866,0,0,1,90.587,57.131ZM204.673,89.562c2.232,25.319,4.34,49.234-14.045,67.618a70.858,70.858,0,0,1-85.574,11.155A165.487,165.487,0,0,1,150.388,60.051a153.738,153.738,0,0,1,43.449-32.334,118.405,118.405,0,0,1,22.809-8.451A60.735,60.735,0,0,0,205.2,43.953c-3.254,14.717-1.87,30.421-.531,45.608Z" transform="translate(-55.708 0.001)" fill="#f7f7f7"/>
</svg>
