<svg width="600" height="450" viewBox="0 0 800 600" fill="none" xmlns="http://www.w3.org/2000/svg" data-reactroot="">
<path d="M494.304 577.395L496.487 579.015C499.503 579.015 503.568 574.95 503.568 571.934L500.85 557.226L488.014 558.996C488.014 558.996 491.288 577.395 494.304 577.395Z" fill="#E6B976"></path>
<path d="M504.099 571.558C505.384 571.156 506.707 571.996 506.777 573.34C506.983 577.271 507.474 586.629 506.022 588.565C503.922 591.365 440.309 589.672 440.309 586.872C440.309 584.072 485.69 569.073 489.89 570.473C493.403 571.644 499.527 572.991 504.099 571.558Z" fill="#FFE7C2"></path>
<path fill-rule="evenodd" clip-rule="evenodd" d="M462.331 570.374C462.608 569.896 463.22 569.734 463.697 570.011L479.751 579.326C480.229 579.603 480.391 580.215 480.114 580.693C479.837 581.17 479.225 581.333 478.748 581.056L462.694 571.741C462.216 571.463 462.053 570.851 462.331 570.374Z" fill="#9E6B93"></path>
<path fill-rule="evenodd" clip-rule="evenodd" d="M473.858 565.716C474.135 565.239 474.747 565.076 475.225 565.353L491.279 574.668C491.756 574.945 491.919 575.557 491.642 576.035C491.364 576.513 490.753 576.675 490.275 576.398L474.221 567.083C473.743 566.806 473.581 566.194 473.858 565.716Z" fill="#9E6B93"></path>
<path d="M342.14 113.028C344.562 121.478 347.99 117.137 356.713 118.229C359.289 118.551 371.855 128.552 373.531 132.481C375.206 136.411 375.238 143.06 375.238 143.06L355.59 155.489C355.59 155.489 346.026 151.371 340.204 144.278C335.284 138.284 333.816 129.483 335.093 126.224C337.882 119.108 341.819 111.906 341.819 111.906L342.14 113.028Z" fill="#E5B976"></path>
<path d="M411.166 226.759C404.571 224.547 400.173 219.626 396.746 215.794L394.948 213.792L353.926 161.197C348.393 152.597 352.102 149.232 360.703 143.699C369.305 138.166 376.359 137.567 381.891 146.168L409.928 181.34L442.529 122.633C449.747 115.387 463.451 116.217 470.695 123.436C477.942 130.653 481.155 145.191 473.938 152.437C473.938 152.437 428.034 227.767 411.166 226.759Z" fill="#FFE7C2"></path>
<path d="M458.1 70.0864L460.147 83.9406L452.547 89.8427L448.301 77.8646L451.353 71.4883L458.1 70.0864Z" fill="#E5B976"></path>
<path d="M466.968 67.7981C466.815 78.9864 467.911 90.6353 473.864 102.016C473.864 102.016 452.539 96.8117 434.943 108.093C436.032 100.862 437.325 95.8644 436.564 90.4113" fill="#E5B976"></path>
<path d="M452.577 75.5595L449.858 86.4537C446.85 88.9206 425.279 92.8645 423.578 90.8609C419.753 86.3544 417.774 58.2144 418.875 47.4672C419.336 42.9607 420.607 40.9015 421.162 36.8516L453.507 38.0776L467.711 41.1388L468.944 61.6332L467.711 65.8857L466.883 72.849" fill="#E5B976"></path>
<path d="M445.271 73.6176L445.357 73.5762C445.382 73.5762 445.398 73.5848 445.402 73.5865L445.353 73.7972L445.271 73.6176Z" fill="#231F20"></path>
<path d="M445.352 73.1538C445.18 73.1538 445.012 73.2384 444.904 73.3956C444.732 73.6468 444.798 73.9637 445.053 74.1286C445.148 74.1899 445.253 74.2193 445.356 74.2193C445.529 74.2193 445.697 74.1355 445.804 73.9784C445.976 73.7263 445.911 73.412 445.655 73.2462C445.56 73.184 445.455 73.1538 445.352 73.1538Z" fill="#13223E"></path>
<path d="M428.761 87.8166C428.592 88.0685 428.268 88.1426 428.011 87.9774C427.754 87.8119 427.696 87.4912 427.866 87.2393C428.036 86.9875 428.359 86.9121 428.616 87.0785C428.873 87.245 428.931 87.5644 428.761 87.8166Z" fill="#231F20"></path>
<path d="M428.321 86.9897C428.145 86.9897 427.975 87.0787 427.866 87.2393C427.697 87.4914 427.754 87.8117 428.011 87.9775C428.104 88.0371 428.206 88.0656 428.306 88.0656C428.482 88.0656 428.653 87.9775 428.761 87.8169C428.931 87.5639 428.874 87.2453 428.616 87.0787C428.523 87.0182 428.421 86.9897 428.321 86.9897Z" fill="#13223E"></path>
<path d="M421.691 76.0317L421.778 75.9919C421.806 75.9919 421.823 76.0006 421.827 76.004L421.774 76.2113L421.691 76.0317Z" fill="#231F20"></path>
<path d="M421.771 75.5674C421.6 75.5674 421.434 75.6511 421.327 75.8074C421.155 76.0578 421.219 76.3764 421.472 76.5422C421.568 76.6044 421.674 76.6346 421.777 76.6346C421.949 76.6346 422.116 76.5517 422.222 76.3954C422.394 76.1442 422.33 75.8273 422.076 75.6606C421.98 75.5976 421.875 75.5674 421.771 75.5674Z" fill="#13223E"></path>
<path d="M445.26 77.8899L445.362 77.75C445.386 77.75 445.401 77.7586 445.405 77.7621L445.437 77.9365L445.26 77.8899Z" fill="#231F20"></path>
<path d="M445.35 77.333C445.18 77.333 445.015 77.415 444.908 77.5705C444.736 77.8217 444.803 78.1369 445.057 78.3018C445.153 78.3648 445.259 78.395 445.364 78.395C445.534 78.395 445.701 78.3139 445.807 78.1576C445.979 77.9072 445.912 77.592 445.657 77.4263C445.561 77.3641 445.455 77.333 445.35 77.333Z" fill="#13223E"></path>
<path d="M423.41 84.2322C423.238 84.4831 422.913 84.5466 422.658 84.3822C422.403 84.2174 422.338 83.9004 422.51 83.6492C422.681 83.3979 423.007 83.3334 423.261 83.4989C423.516 83.6646 423.581 83.9809 423.41 84.2322Z" fill="#231F20"></path>
<path d="M422.958 83.4072C422.785 83.4072 422.617 83.4918 422.51 83.649C422.338 83.9003 422.403 84.2171 422.658 84.382C422.753 84.4434 422.858 84.4727 422.961 84.4727C423.134 84.4727 423.302 84.389 423.41 84.2318C423.582 83.9806 423.516 83.6645 423.261 83.4988C423.166 83.4366 423.062 83.4072 422.958 83.4072Z" fill="#13223E"></path>
<path d="M448.758 81.4609L448.846 81.4194C448.873 81.4194 448.889 81.4281 448.893 81.4315L448.84 81.6387L448.758 81.4609Z" fill="#231F20"></path>
<path d="M448.842 80.9956C448.67 80.9956 448.504 81.0785 448.397 81.2356C448.225 81.486 448.29 81.8046 448.544 81.9713C448.639 82.0335 448.744 82.0637 448.847 82.0637C449.019 82.0637 449.186 81.9808 449.293 81.8236C449.464 81.5724 449.401 81.2546 449.146 81.088C449.051 81.0258 448.946 80.9956 448.842 80.9956Z" fill="#13223E"></path>
<path d="M449.294 71.2461C449.123 71.4974 448.798 71.5622 448.543 71.3968C448.288 71.231 448.226 70.9119 448.397 70.6606C448.569 70.409 448.893 70.3433 449.148 70.5097C449.404 70.676 449.466 70.9949 449.294 71.2461Z" fill="#231F20"></path>
<path d="M448.846 70.4177C448.672 70.4177 448.505 70.5023 448.397 70.6604C448.226 70.9116 448.288 71.2311 448.544 71.3969C448.639 71.4582 448.743 71.4875 448.846 71.4875C449.019 71.4875 449.187 71.4038 449.295 71.2458C449.466 70.9945 449.404 70.6759 449.148 70.5092C449.053 70.4479 448.949 70.4177 448.846 70.4177Z" fill="#13223E"></path>
<path d="M425.236 89.1803L425.321 89.1406C425.349 89.1406 425.366 89.151 425.371 89.1527L425.32 89.3565L425.236 89.1803Z" fill="#231F20"></path>
<path d="M425.32 88.7124C425.147 88.7124 424.978 88.797 424.871 88.9559C424.699 89.2072 424.765 89.5275 425.02 89.6924C425.115 89.7546 425.22 89.7839 425.323 89.7839C425.495 89.7839 425.664 89.7002 425.77 89.5413C425.94 89.2892 425.876 88.9714 425.621 88.8039C425.526 88.7418 425.422 88.7124 425.32 88.7124Z" fill="#13223E"></path>
<path d="M433.117 88.3761L433.199 88.3381C433.227 88.3381 433.245 88.3485 433.249 88.3519L433.207 88.5505L433.117 88.3761Z" fill="#231F20"></path>
<path d="M433.206 87.9067C433.031 87.9067 432.861 87.9939 432.753 88.1528C432.582 88.4049 432.642 88.7261 432.897 88.8919C432.991 88.9532 433.096 88.9826 433.198 88.9826C433.372 88.9826 433.541 88.8962 433.649 88.7365C433.82 88.4844 433.76 88.1649 433.504 87.9974C433.409 87.9361 433.307 87.9067 433.206 87.9067Z" fill="#13223E"></path>
<path d="M439.705 86.3844L439.788 86.3464C439.815 86.3464 439.832 86.3551 439.837 86.3585L439.79 86.5606L439.705 86.3844Z" fill="#231F20"></path>
<path d="M439.79 85.9175C439.616 85.9175 439.448 86.003 439.34 86.1618C439.169 86.414 439.232 86.7334 439.488 86.8992C439.583 86.9605 439.687 86.9899 439.789 86.9899C439.963 86.9899 440.132 86.9053 440.24 86.7464C440.41 86.4934 440.348 86.1748 440.091 86.009C439.996 85.9468 439.893 85.9175 439.79 85.9175Z" fill="#13223E"></path>
<path d="M437.559 81.089C437.388 81.3403 437.063 81.4057 436.809 81.2394C436.554 81.0727 436.491 80.7545 436.663 80.5029C436.834 80.2516 437.158 80.1856 437.413 80.3526C437.668 80.5196 437.73 80.8375 437.559 81.089Z" fill="#231F20"></path>
<path d="M437.111 80.2612C436.938 80.2612 436.771 80.345 436.663 80.503C436.491 80.7551 436.554 81.0729 436.809 81.2395C436.904 81.3017 437.008 81.331 437.11 81.331C437.284 81.331 437.451 81.2473 437.558 81.0893C437.729 80.838 437.668 80.5203 437.413 80.3528C437.318 80.2906 437.214 80.2604 437.111 80.2612Z" fill="#13223E"></path>
<path d="M443.258 82.1867L443.341 82.147C443.368 82.147 443.385 82.1556 443.389 82.1591L443.342 82.3611L443.258 82.1867Z" fill="#231F20"></path>
<path d="M443.344 81.7175C443.17 81.7175 443.001 81.803 442.893 81.9619C442.721 82.214 442.785 82.5335 443.042 82.6993C443.137 82.7606 443.241 82.7899 443.343 82.7899C443.517 82.7899 443.687 82.7053 443.794 82.5464C443.965 82.2943 443.902 81.9757 443.645 81.8091C443.55 81.7469 443.446 81.7175 443.344 81.7175Z" fill="#13223E"></path>
<path d="M432.574 79.3026L432.656 79.2664C432.687 79.2664 432.707 79.2784 432.712 79.2819L432.667 79.4719L432.574 79.3026Z" fill="#231F20"></path>
<path d="M432.663 78.8276C432.49 78.8276 432.322 78.9148 432.214 79.0737C432.042 79.3267 432.099 79.6496 432.355 79.818C432.449 79.8802 432.553 79.9104 432.655 79.9104C432.829 79.9104 432.998 79.8223 433.106 79.6634C433.277 79.4105 433.22 79.0893 432.964 78.92C432.869 78.857 432.765 78.8276 432.663 78.8276Z" fill="#13223E"></path>
<path d="M440.246 77.7968L440.329 77.7588C440.358 77.7588 440.377 77.7692 440.383 77.7726L440.338 77.9695L440.246 77.7968Z" fill="#231F20"></path>
<path d="M440.338 77.3262C440.163 77.3262 439.995 77.4125 439.887 77.5705C439.715 77.8226 439.774 78.1438 440.029 78.3114C440.124 78.3735 440.227 78.4029 440.329 78.4029C440.503 78.4029 440.672 78.3165 440.78 78.1585C440.951 77.9064 440.893 77.5861 440.637 77.4177C440.543 77.3555 440.44 77.3262 440.338 77.3262Z" fill="#13223E"></path>
<path d="M434.863 85.8478L434.944 85.8098C434.972 85.8098 434.989 85.8202 434.994 85.8236L434.95 86.0222L434.863 85.8478Z" fill="#231F20"></path>
<path d="M434.948 85.3784C434.774 85.3784 434.604 85.4656 434.495 85.6254C434.323 85.8783 434.386 86.1987 434.643 86.3636C434.737 86.424 434.84 86.4534 434.942 86.4534C435.117 86.4534 435.288 86.3671 435.396 86.2065C435.566 85.9543 435.506 85.6357 435.248 85.4691C435.154 85.4078 435.05 85.3784 434.948 85.3784Z" fill="#13223E"></path>
<path d="M427.238 75.8538C427.067 76.1066 426.744 76.178 426.488 76.0092C426.232 75.8403 426.175 75.5173 426.346 75.2648C426.517 75.0126 426.84 74.9403 427.097 75.1098C427.353 75.2793 427.409 75.6007 427.238 75.8538Z" fill="#231F20"></path>
<path d="M426.798 75.0183C426.624 75.0183 426.455 75.1055 426.346 75.2653C426.175 75.5174 426.232 75.8403 426.487 76.0095C426.582 76.0717 426.685 76.1011 426.787 76.1011C426.961 76.1011 427.131 76.0139 427.239 75.8541C427.41 75.6011 427.353 75.2791 427.097 75.1098C427.003 75.0477 426.899 75.0183 426.798 75.0183Z" fill="#13223E"></path>
<path d="M422.871 72.7831L422.954 72.7451C422.979 72.7451 422.998 72.7538 423.009 72.7607L422.963 72.9506L422.871 72.7831Z" fill="#231F20"></path>
<path d="M422.963 72.3079C422.789 72.3079 422.62 72.3951 422.512 72.5548C422.341 72.8069 422.398 73.1299 422.653 73.2991C422.748 73.3613 422.851 73.3906 422.953 73.3906C423.127 73.3906 423.297 73.3034 423.404 73.1437C423.576 72.8907 423.519 72.5686 423.262 72.3994C423.168 72.3372 423.064 72.3079 422.963 72.3079Z" fill="#13223E"></path>
<path d="M446.457 85.3115L446.544 85.27C446.571 85.27 446.587 85.2804 446.592 85.2821L446.54 85.4859L446.457 85.3115Z" fill="#231F20"></path>
<path d="M446.539 84.843C446.367 84.843 446.199 84.9276 446.091 85.0856C445.92 85.3378 445.986 85.6572 446.24 85.823C446.335 85.8852 446.44 85.9145 446.543 85.9145C446.715 85.9145 446.884 85.8299 446.991 85.6719C447.161 85.4189 447.097 85.102 446.841 84.9345C446.746 84.8724 446.642 84.843 446.539 84.843Z" fill="#13223E"></path>
<path d="M436.566 95.6178C441.944 95.2671 444.914 93.0023 449.863 91.0497C451.288 90.4878 452.454 89.4461 452.432 87.9152C452.357 82.4721 452.628 80.3031 453.126 78.133C453.576 76.1724 453.196 75.3723 453.196 75.3723C453.196 75.3723 450.105 84.843 449.873 86.6444C448.528 88.1275 438.807 89.7844 436.566 90.4113C436.426 92.561 436.487 93.5203 436.566 95.6178Z" fill="#13223E"></path>
<path d="M423.549 54.9051C427.245 55.8178 431.419 56.747 435.142 57.6109C435.95 57.7986 436.458 57.5007 436.598 56.7948C436.639 56.5897 436.359 56.352 436.318 56.0968C436.178 55.2177 434.177 54.3825 433.625 54.1678C431.019 53.1556 423.811 50.7648 422.108 51.3438C420.405 51.9228 421.777 52.1512 421.384 52.8852C420.991 53.6192 422.747 54.707 423.549 54.9051Z" fill="#13223E"></path>
<path d="M426.389 59.9587C426.371 60.5635 425.89 61.0012 425.289 60.9877C424.688 60.9738 424.234 60.5122 424.253 59.9081C424.271 59.304 424.752 58.865 425.353 58.8795C425.954 58.8943 426.408 59.354 426.389 59.9587Z" fill="#262526"></path>
<path d="M418.576 56.1633C418.576 56.1633 416.12 64.45 414.715 68.2933C414.386 69.1933 414.938 70.1699 415.879 70.3495L419.234 70.9896" fill="#E5B976"></path>
<path fill-rule="evenodd" clip-rule="evenodd" d="M418.658 55.8891C418.81 55.934 418.896 56.0931 418.851 56.2446L418.577 56.1633L418.303 56.082C418.348 55.9306 418.507 55.8442 418.658 55.8891ZM418.577 56.1633C418.303 56.082 418.303 56.0819 418.303 56.082L418.195 56.445C418.125 56.6789 418.024 57.0174 417.898 57.4356C417.645 58.272 417.295 59.4273 416.9 60.7025C416.11 63.255 415.147 66.281 414.447 68.1951C414.058 69.2604 414.712 70.4177 415.827 70.6304L419.182 71.2705C419.337 71.3001 419.487 71.1984 419.516 71.0432C419.546 70.888 419.444 70.7383 419.289 70.7087L415.934 70.0685C415.166 69.922 414.716 69.1262 414.984 68.3915C415.69 66.4622 416.657 63.4232 417.447 60.8716C417.842 59.5947 418.193 58.438 418.445 57.6006C418.571 57.1819 418.673 56.843 418.743 56.6087L418.851 56.2446C418.851 56.2445 418.851 56.2446 418.577 56.1633Z" fill="#13223E"></path>
<path fill-rule="evenodd" clip-rule="evenodd" d="M428.896 77.8631C429.048 77.9064 429.136 78.0646 429.092 78.2165C428.805 79.2252 427.778 80.0741 426.599 80.5114C425.411 80.9524 423.977 81.0106 422.81 80.3324C422.674 80.253 422.627 80.078 422.707 79.9414C422.786 79.8048 422.961 79.7585 423.098 79.8379C424.074 80.4056 425.32 80.3762 426.4 79.9751C427.491 79.5704 428.325 78.8228 428.542 78.0597C428.586 77.9078 428.744 77.8198 428.896 77.8631Z" fill="#13223E"></path>
<path d="M482.237 33.3503C492.724 20.3694 440.359 9.83109 436.923 10.0021C428.464 10.4096 422.431 13.1536 421.524 22.8949C421.444 23.7117 421.41 24.0744 421.172 24.2669C420.775 24.5847 419.8 24.4482 417.124 25.1062C412.804 26.1604 418.33 45.713 418.92 43.4793C419.499 41.2568 422.635 42.9889 423.792 43.4879C430.584 46.2769 436.141 43.8506 443.897 43.3515C445.133 43.2617 447.957 43.2384 449.499 44.1908C449.919 44.4403 448.413 57.056 449.921 60.2197C450.34 61.1047 452.824 61.4561 453.346 60.2197C454.008 58.6307 455.339 56.59 456.311 55.1991C458.338 52.2964 462.623 51.7474 465.027 54.3461C465.958 55.3524 466.545 56.7043 466.519 58.2579C466.428 63.2478 463.22 67.0745 463.231 68.4016C463.231 69.8298 466.407 74.684 467.688 74.8878C471.827 75.5794 471.804 67.1194 475.535 62.3575C478.415 58.6715 491.342 38.3513 482.237 33.3503Z" fill="#13223E"></path>
<path d="M418.236 59.9335L419.815 53.8232L422.412 64.1305L421.773 70.4179L420.127 70.5886L418.704 70.1598L418.236 59.9335Z" fill="#E5B976"></path>
<path d="M429.344 577.395H429.344C432.36 577.395 434.806 574.95 434.806 571.934V558.481H423.883V571.934C423.883 574.95 426.328 577.395 429.344 577.395Z" fill="#E6B976"></path>
<path d="M432.396 282.171C432.795 288.284 446.845 425.561 446.845 425.561C446.845 425.561 484.036 556.845 484.203 562.388C484.3 565.592 508.451 564.587 508.281 561.386C507.981 555.736 477.283 422.644 477.283 422.644C477.283 422.644 496.475 288.695 497.442 282.768L432.396 282.171Z" fill="#FFE7C2"></path>
<path d="M426.276 253.084C425.973 265.261 403.643 400.662 403.643 400.662L404.606 407.967L410.604 444.663C411.861 457.813 413.223 470.959 414.268 484.118C414.842 490.695 415.385 497.274 415.837 503.856C416.325 510.438 416.81 517.018 417.184 523.604C417.873 534.417 416.99 551.303 417.333 562.131C417.457 566.021 441.553 565.023 441.352 561.135C440.794 550.317 441.925 533.416 441.713 522.583C441.538 515.989 441.474 509.39 441.413 502.791C441.317 496.194 441.311 489.593 441.336 482.991C441.284 469.791 441.548 456.577 441.708 443.368L442.617 403.723L442.462 406.958L450.022 371.347C450.022 371.347 496.489 284.928 499.5 273.125L426.276 253.084Z" fill="#9E6B93"></path>
<path d="M417.158 316.817L464.177 318.806C491.962 322.431 500.89 304.289 503.341 276.376L503.556 265.01L420.992 264.145L421.715 281.395H421.715C420.245 284.085 419.372 287.061 419.156 290.119L417.158 316.817Z" fill="#9E6B93"></path>
<path d="M438.189 106.894C442.932 106.314 463.075 99.3201 471.352 102.734C495.205 112.573 506.12 158.514 504.843 188.229C503.708 214.654 510.742 240.755 507.851 260.513C507.683 261.659 505.07 262.24 504.799 263.404C503.408 269.364 503.371 275.677 503.343 276.375C503.124 281.827 420.754 282.171 420.754 282.171C420.754 282.171 419.79 275.732 421.235 271.275C412.984 271.594 414.331 165.559 415.642 154.154C417.702 136.216 432.066 107.644 438.189 106.894Z" fill="#FFE7C2"></path>
<path d="M479.227 107.621C475.434 103.659 472.771 97.5999 471.745 90.4543C471.529 88.9551 469.94 88.0788 468.571 88.725L435.491 100.968C434.062 101.355 433.746 110.307 433.746 110.307L479.227 107.621Z" fill="#FFE7C2"></path>
<path fill-rule="evenodd" clip-rule="evenodd" d="M432.444 281.544C432.79 281.571 433.049 281.874 433.022 282.22C433.022 282.22 433.022 282.22 433.022 282.22L432.394 282.171C433.022 282.22 433.022 282.22 433.022 282.22M433.022 282.22L433.021 282.221L433.021 282.227L433.019 282.255C433.017 282.28 433.015 282.318 433.012 282.368C433.006 282.469 432.999 282.62 432.993 282.815C432.981 283.204 432.973 283.769 432.993 284.461C433.032 285.848 433.18 287.739 433.612 289.763C434.481 293.837 436.464 298.303 440.86 300.425C441.173 300.576 441.304 300.952 441.153 301.265C441.002 301.578 440.626 301.709 440.313 301.558C435.393 299.183 433.28 294.238 432.381 290.026C431.93 287.907 431.776 285.936 431.735 284.497C431.715 283.776 431.722 283.187 431.735 282.775C431.742 282.57 431.75 282.408 431.756 282.298C431.759 282.242 431.762 282.199 431.764 282.17L431.766 282.135L431.767 282.126L431.767 282.123C431.767 282.123 431.767 282.122 432.392 282.171L431.767 282.122C431.794 281.775 432.097 281.517 432.444 281.544" fill="#FFE7C2"></path>
<path d="M436.188 570.416C437.388 570.039 439.248 572.431 439.314 573.687C439.506 577.361 439.609 586.153 438.252 587.962C436.289 590.579 374.471 590.579 374.471 587.962C374.471 585.346 419.608 569.7 423.533 571.008C426.816 572.103 431.915 571.755 436.188 570.416Z" fill="#FFE7C2"></path>
<path fill-rule="evenodd" clip-rule="evenodd" d="M403.481 570.019C403.774 569.551 404.391 569.409 404.859 569.702L419.958 579.16C420.426 579.453 420.568 580.07 420.275 580.538C419.982 581.006 419.365 581.148 418.897 580.855L403.797 571.397C403.329 571.104 403.188 570.487 403.481 570.019Z" fill="#9E6B93"></path>
<path fill-rule="evenodd" clip-rule="evenodd" d="M392.487 572.136C392.78 571.668 393.397 571.526 393.865 571.82L408.964 581.277C409.432 581.57 409.574 582.187 409.281 582.655C408.988 583.123 408.371 583.265 407.903 582.972L392.803 573.515C392.335 573.221 392.193 572.604 392.487 572.136Z" fill="#9E6B93"></path>
<path fill-rule="evenodd" clip-rule="evenodd" d="M467.496 92.857C468.035 92.736 468.57 93.0748 468.691 93.6137L470.396 101.209C470.517 101.748 470.178 102.283 469.639 102.404C469.101 102.525 468.566 102.186 468.445 101.647L466.739 94.0518C466.618 93.5129 466.957 92.978 467.496 92.857Z" fill="#9E6B93"></path>
<path fill-rule="evenodd" clip-rule="evenodd" d="M460.023 95.1803C460.562 95.0593 461.097 95.398 461.218 95.9369L462.745 102.739C462.866 103.278 462.527 103.812 461.989 103.933C461.45 104.054 460.915 103.716 460.794 103.177L459.267 96.375C459.146 95.8362 459.484 95.3013 460.023 95.1803Z" fill="#9E6B93"></path>
<path fill-rule="evenodd" clip-rule="evenodd" d="M452.592 97.6871C453.131 97.5661 453.665 97.9049 453.786 98.4437L454.983 103.775C455.104 104.314 454.766 104.849 454.227 104.97C453.688 105.091 453.153 104.752 453.032 104.213L451.835 98.8819C451.714 98.343 452.053 97.8081 452.592 97.6871Z" fill="#9E6B93"></path>
<path fill-rule="evenodd" clip-rule="evenodd" d="M445.125 100.049C445.664 99.9284 446.199 100.267 446.32 100.806L447.536 106.223C447.657 106.762 447.318 107.297 446.779 107.418C446.24 107.539 445.705 107.2 445.584 106.661L444.368 101.244C444.247 100.705 444.586 100.17 445.125 100.049Z" fill="#9E6B93"></path>
<path fill-rule="evenodd" clip-rule="evenodd" d="M437.709 102.219C438.248 102.098 438.783 102.437 438.904 102.976L439.847 107.179C439.968 107.718 439.63 108.253 439.091 108.374C438.552 108.495 438.017 108.156 437.896 107.617L436.952 103.414C436.831 102.875 437.17 102.34 437.709 102.219Z" fill="#9E6B93"></path>
<path fill-rule="evenodd" clip-rule="evenodd" d="M497.326 267.041C497.875 266.985 498.366 267.385 498.423 267.934L499.575 279.162C499.631 279.712 499.231 280.203 498.682 280.259C498.133 280.316 497.642 279.916 497.585 279.366L496.433 268.138C496.377 267.589 496.776 267.098 497.326 267.041Z" fill="#9E6B93"></path>
<path fill-rule="evenodd" clip-rule="evenodd" d="M487.202 269.042C487.751 268.986 488.242 269.386 488.298 269.935L489.348 280.277C489.403 280.826 489.003 281.317 488.454 281.373C487.904 281.428 487.414 281.028 487.358 280.479L486.308 270.137C486.252 269.588 486.652 269.097 487.202 269.042Z" fill="#9E6B93"></path>
<path fill-rule="evenodd" clip-rule="evenodd" d="M476.18 270.237C476.73 270.181 477.22 270.581 477.276 271.131L478.279 281.012C478.335 281.562 477.935 282.053 477.385 282.108C476.836 282.164 476.345 281.764 476.29 281.214L475.286 271.333C475.231 270.783 475.631 270.293 476.18 270.237Z" fill="#9E6B93"></path>
<path fill-rule="evenodd" clip-rule="evenodd" d="M465.247 270.754C465.799 270.724 466.27 271.147 466.299 271.699L466.858 282.118C466.888 282.669 466.465 283.14 465.913 283.17C465.362 283.2 464.891 282.776 464.861 282.225L464.302 271.806C464.273 271.255 464.696 270.783 465.247 270.754Z" fill="#9E6B93"></path>
<path fill-rule="evenodd" clip-rule="evenodd" d="M454.227 270.753C454.779 270.761 455.22 271.216 455.211 271.768L455.047 282.304C455.038 282.857 454.583 283.297 454.031 283.289C453.479 283.28 453.038 282.825 453.047 282.273L453.211 271.737C453.22 271.185 453.675 270.744 454.227 270.753Z" fill="#9E6B93"></path>
<path fill-rule="evenodd" clip-rule="evenodd" d="M440.978 271.143C441.531 271.145 441.977 271.595 441.975 272.147L441.932 283.035C441.929 283.587 441.48 284.033 440.928 284.031C440.375 284.029 439.929 283.579 439.932 283.027L439.975 272.139C439.977 271.587 440.426 271.141 440.978 271.143Z" fill="#9E6B93"></path>
<path fill-rule="evenodd" clip-rule="evenodd" d="M426.753 271.615C427.305 271.585 427.777 272.007 427.807 272.559L428.384 282.976C428.414 283.527 427.992 283.999 427.441 284.03C426.889 284.06 426.417 283.638 426.387 283.086L425.81 272.669C425.78 272.118 426.202 271.646 426.753 271.615Z" fill="#9E6B93"></path>
<path fill-rule="evenodd" clip-rule="evenodd" d="M447.543 556.935C447.567 557.423 447.192 557.838 446.704 557.862L411.959 559.592C411.472 559.617 411.057 559.241 411.032 558.753C411.008 558.266 411.384 557.851 411.871 557.826L446.616 556.096C447.104 556.072 447.519 556.447 447.543 556.935Z" fill="#FFE7C2"></path>
<path fill-rule="evenodd" clip-rule="evenodd" d="M511.386 555.335C511.453 555.883 511.063 556.381 510.514 556.448L481.384 559.989C480.836 560.056 480.338 559.665 480.271 559.117C480.204 558.569 480.595 558.07 481.143 558.004L510.273 554.462C510.821 554.396 511.32 554.786 511.386 555.335Z" fill="#9E6B93"></path>
<path fill-rule="evenodd" clip-rule="evenodd" d="M463.636 56.0496C463.699 56.5983 463.305 57.094 462.756 57.1569L429.854 60.9272C429.305 60.9901 428.81 60.5963 428.747 60.0476C428.684 59.4989 429.078 59.0031 429.626 58.9402L462.529 55.1699C463.077 55.107 463.573 55.5009 463.636 56.0496Z" fill="#9E6B93"></path>
<path d="M456.115 67.2264C456.115 67.2264 456.703 69.3021 458.675 69.0254C462.335 68.5117 465.918 58.6968 463.254 56.1354C461.062 54.028 456.135 56.4722 456.287 60.4517" fill="#E5B976"></path>
<path fill-rule="evenodd" clip-rule="evenodd" d="M458.645 55.5762C460.232 54.674 462.28 54.5053 463.601 55.775C464.418 56.5603 464.696 57.8298 464.677 59.1649C464.658 60.5218 464.33 62.0604 463.807 63.5174C463.283 64.9748 462.552 66.3798 461.703 67.4631C460.868 68.5293 459.854 69.3648 458.745 69.5205C457.54 69.6896 456.74 69.1254 456.268 68.5449C456.037 68.2602 455.881 67.9694 455.782 67.7522C455.733 67.6427 455.697 67.5496 455.673 67.4821C455.661 67.4482 455.652 67.4206 455.646 67.4004L455.638 67.3756L455.636 67.3676L455.635 67.3647L455.635 67.3636L455.634 67.3631C455.634 67.3628 455.634 67.3626 456.08 67.2362L455.634 67.3626C455.559 67.0969 455.713 66.8205 455.979 66.7453C456.244 66.6701 456.521 66.824 456.596 67.0892C456.596 67.0892 456.596 67.0893 456.596 67.0893L456.596 67.0892L456.596 67.0892L456.596 67.0889L456.599 67.0987C456.602 67.1088 456.608 67.1255 456.616 67.1479C456.632 67.1928 456.657 67.2597 456.694 67.3405C456.768 67.5039 456.882 67.7146 457.044 67.9143C457.359 68.3025 457.839 68.6378 458.606 68.5302C459.327 68.429 460.133 67.845 460.916 66.8464C461.685 65.8649 462.369 64.5598 462.866 63.1791C463.362 61.7979 463.66 60.3705 463.677 59.1506C463.695 57.909 463.423 56.9911 462.908 56.4958C462.036 55.658 460.525 55.6578 459.139 56.4456C457.777 57.2198 456.719 58.6689 456.786 60.4326C456.797 60.7085 456.582 60.9408 456.306 60.9513C456.03 60.9619 455.798 60.7467 455.787 60.4708C455.702 58.2549 457.033 56.4922 458.645 55.5762ZM456.596 67.0889C456.596 67.0881 456.596 67.0879 456.596 67.088L456.596 67.0887L456.596 67.0889Z" fill="#13223E"></path>
<path d="M374.213 158.122L334.538 170.939L315.717 134.34L377.383 152.036L374.213 158.122Z" fill="#9E6B93"></path>
<path d="M374.213 158.122L334.538 170.938L315.717 134.339L377.383 152.035L374.213 158.122Z" fill="black" fill-opacity="0.26"></path>
<path d="M305.116 94.4407L289 105.532L334.584 171.765L350.7 160.673L305.116 94.4407Z" fill="#9E6B93"></path>
<path d="M377.394 152.09L350.642 160.732L305.109 94.4363L332.036 85.4949L377.394 152.09Z" fill="#000000"></path>
<path d="M315.001 143.314C319.758 150.226 328.14 154.017 336.365 152.357C338.794 151.867 341.109 150.976 342.965 149.472C350.389 143.455 349.881 140.577 352.59 143.625C355.299 146.672 350.634 160.731 350.634 160.731L340.061 177.656C340.061 177.656 330.156 176.832 322.736 172.181C316.464 168.251 312.464 160.732 312.63 157.395C312.993 150.109 314.37 142.397 314.37 142.397L315.001 143.314Z" fill="#E5B976"></path>
<path d="M419.335 234.603C412.027 234.603 406.004 231.172 401.31 228.5L398.851 227.107L340.428 188.433C332.044 181.717 334.613 177.128 341.331 168.744C348.049 160.36 354.873 157.407 363.256 164.124L410.211 194.496L440.874 127.823C445.641 118.195 459.566 114.443 469.192 119.213C478.82 123.979 486.876 137.384 482.11 147.011C482.11 147.011 436.469 229.972 419.335 234.603Z" fill="#000000"></path>
<path d="M364.854 125.329C364.854 125.329 350.075 127.847 351.316 131.685C352.558 135.522 371.022 139.635 371.022 139.635L369.584 130.871L364.854 125.329Z" fill="#E5B976"></path>
<g opacity="0.6">
<path opacity="0.7" d="M421.756 64.6094L419.805 61.5325L425.471 53.3813L428.387 55.3842L421.756 64.6094Z" fill="white"></path>
</g>
<path d="M424.714 66.0438C427.488 66.0438 429.737 63.3081 429.737 59.9335C429.737 56.5589 427.488 53.8232 424.714 53.8232C421.94 53.8232 419.691 56.5589 419.691 59.9335C419.691 63.3081 421.94 66.0438 424.714 66.0438Z" fill="white" fill-opacity="0.18"></path>
<path fill-rule="evenodd" clip-rule="evenodd" d="M424.714 54.8232C422.667 54.8232 420.691 56.9189 420.691 59.9335C420.691 62.9481 422.667 65.0438 424.714 65.0438C426.762 65.0438 428.737 62.9481 428.737 59.9335C428.737 56.9189 426.762 54.8232 424.714 54.8232ZM418.691 59.9335C418.691 56.1989 421.214 52.8232 424.714 52.8232C428.215 52.8232 430.737 56.1989 430.737 59.9335C430.737 63.6682 428.215 67.0438 424.714 67.0438C421.214 67.0438 418.691 63.6682 418.691 59.9335Z" fill="#9E6B93"></path>
</svg>
