<svg width="600" height="450" viewBox="0 0 800 600" fill="none" xmlns="http://www.w3.org/2000/svg" data-reactroot="">
<path d="M750.173 357.47H49.8267C27.831 357.47 10 339.639 10 317.643V157.827C10 135.831 27.831 118 49.8267 118H750.173C772.169 118 790 135.831 790 157.827V317.643C790 339.639 772.169 357.47 750.173 357.47Z" fill="#FFE7C2"></path>
<path d="M146.17 315.007C188.842 315.007 223.435 280.415 223.435 237.743C223.435 195.071 188.842 160.479 146.17 160.479C103.499 160.479 68.9062 195.071 68.9062 237.743C68.9062 280.415 103.499 315.007 146.17 315.007Z" fill="#9E6B93"></path>
<path d="M268.408 211.162H621.436" stroke="#78D2EE" stroke-width="5" stroke-miterlimit="10" stroke-linecap="round"></path>
<path d="M268.408 264.316H503.76" stroke="#78D2EE" stroke-width="5" stroke-miterlimit="10" stroke-linecap="round"></path>
<path d="M46.9199 428.598H399.947" stroke="#005B9D" stroke-width="5" stroke-miterlimit="10" stroke-linecap="round"></path>
<path d="M46.9199 481.752H282.272" stroke="#005B9D" stroke-width="5" stroke-miterlimit="10" stroke-linecap="round"></path>
<path d="M104.916 276.719V276.719C104.916 265.232 114.228 240.35 125.715 240.35H166.629C178.116 240.35 187.428 265.232 187.428 276.719V276.719C187.428 288.206 104.916 288.206 104.916 276.719Z" fill="#FFE7C2"></path>
<path d="M146.172 234.26C157.42 234.26 166.539 225.141 166.539 213.893C166.539 202.644 157.42 193.525 146.172 193.525C134.923 193.525 125.805 202.644 125.805 213.893C125.805 225.141 134.923 234.26 146.172 234.26Z" fill="#FFE7C2"></path>
</svg>
