<svg width="600" height="450" viewBox="0 0 800 600" fill="none" xmlns="http://www.w3.org/2000/svg" data-reactroot="">
<path d="M523.045 572.913H289.8C273.641 572.913 260.528 559.801 260.528 543.642V75.4297C260.528 59.2708 273.641 46.1582 289.8 46.1582H523.045C539.204 46.1582 552.316 59.2708 552.316 75.4297V543.642C552.316 559.801 539.204 572.913 523.045 572.913Z" fill="#75E0E6"></path>
<path d="M555.495 577.482H257.349C253.641 577.482 250.727 574.568 250.727 570.86V294.039C250.727 290.33 253.641 287.416 257.349 287.416H555.495C559.204 287.416 562.118 290.33 562.118 294.039V570.86C562.118 574.436 559.204 577.482 555.495 577.482Z" fill="none" stroke="#414042" stroke-width="1"></path>
<path opacity="0.2" d="M338.277 127.616C342.78 121.788 348.343 112.384 346.489 107.881C346.489 107.881 342.78 114.106 341.323 112.517C341.323 112.517 344.369 108.808 341.588 103.642C341.588 103.642 334.701 111.06 332.581 109.868C332.581 109.868 338.807 100.993 336.82 91.0596C336.82 91.0596 323.177 99.6688 319.866 99.4039C316.422 99.139 286.886 106.954 289.27 117.417C289.27 117.417 273.111 124.702 278.542 133.046C279.999 135.166 282.118 138.477 284.502 142.185C278.807 149.47 275.495 158.609 275.495 168.411C275.495 192.649 296.025 212.384 321.456 212.384C346.886 212.384 367.416 192.649 367.416 168.411C367.548 150 355.363 134.106 338.277 127.616Z" fill="black"></path>
<path d="M326.492 204.041C349.388 204.041 367.949 185.48 367.949 162.584C367.949 139.688 349.388 121.127 326.492 121.127C303.595 121.127 285.035 139.688 285.035 162.584C285.035 185.48 303.595 204.041 326.492 204.041Z" fill="white"></path>
<path d="M468.214 531.59H333.909C325.83 531.59 319.207 524.967 319.207 516.888V508.411C319.207 500.331 325.83 493.709 333.909 493.709H468.214C476.293 493.709 482.916 500.331 482.916 508.411V516.888C482.916 525.1 476.293 531.59 468.214 531.59Z" fill="#75E0E6"></path>
<path d="M482.121 157.815H419.869C416.161 157.815 413.115 154.768 413.115 151.06V144.305C413.115 140.596 416.161 137.55 419.869 137.55H482.121C485.83 137.55 488.876 140.596 488.876 144.305V151.06C488.876 154.901 485.83 157.815 482.121 157.815ZM419.869 138.874C416.823 138.874 414.439 141.258 414.439 144.305V151.06C414.439 154.106 416.823 156.49 419.869 156.49H482.121C485.167 156.49 487.552 154.106 487.552 151.06V144.305C487.552 141.258 485.167 138.874 482.121 138.874H419.869Z" fill="none" stroke="#414042" stroke-width="1"></path>
<path d="M352.981 231.458H300.001C297.749 231.458 295.895 229.604 295.895 227.352V226.292C295.895 224.041 297.749 222.187 300.001 222.187H352.981C355.233 222.187 357.087 224.041 357.087 226.292V227.352C357.087 229.736 355.233 231.458 352.981 231.458Z" fill="none" stroke="#414042" stroke-width="1"></path>
<path d="M477.221 166.954H423.579C422.519 166.954 421.592 166.027 421.592 164.967C421.592 163.908 422.519 162.98 423.579 162.98H477.221C478.281 162.98 479.208 163.908 479.208 164.967C479.208 166.159 478.281 166.954 477.221 166.954Z" fill="none" stroke="#414042" stroke-width="1"></path>
<path d="M477.221 172.848H423.579C422.519 172.848 421.592 171.92 421.592 170.861C421.592 169.801 422.519 168.874 423.579 168.874H477.221C478.281 168.874 479.208 169.801 479.208 170.861C479.208 171.92 478.281 172.848 477.221 172.848Z" fill="none" stroke="#414042" stroke-width="1"></path>
<path d="M368.078 317.02H264.634C262.382 317.02 260.528 315.165 260.528 312.914V309.073C260.528 306.821 262.382 304.967 264.634 304.967H368.078C370.329 304.967 372.183 306.821 372.183 309.073V312.914C372.183 315.165 370.329 317.02 368.078 317.02Z" fill="#B5CDFB"></path>
<path d="M388.479 320.465H264.638C261.989 320.465 259.869 318.346 259.869 315.697V304.042C259.869 301.393 261.989 299.273 264.638 299.273H388.479C391.128 299.273 393.247 301.393 393.247 304.042V315.697C393.247 318.346 391.128 320.465 388.479 320.465ZM264.638 300.598C262.783 300.598 261.194 302.187 261.194 304.042V315.697C261.194 317.552 262.783 319.141 264.638 319.141H388.479C390.333 319.141 391.922 317.552 391.922 315.697V304.042C391.922 302.187 390.333 300.598 388.479 300.598H264.638Z" fill="#75E0E6"></path>
<path opacity="0.1" d="M459.735 198.08H436.688L425.165 218.08L436.688 238.08H459.735L471.39 218.08L459.735 198.08Z" fill="black"></path>
<g opacity="0.1">
<path d="M451.394 248.543H445.169C436.295 248.543 427.95 243.775 423.579 236.093L420.4 230.662C415.897 222.98 415.897 213.444 420.4 205.762L423.579 200.331C428.083 192.649 436.295 187.881 445.169 187.881H451.394C460.268 187.881 468.612 192.649 472.983 200.331L476.162 205.762C480.665 213.444 480.665 222.98 476.162 230.662L472.983 236.093C468.48 243.642 460.268 248.543 451.394 248.543ZM445.169 189.205C436.824 189.205 429.01 193.709 424.771 200.993L421.593 206.424C417.354 213.709 417.354 222.715 421.593 229.868L424.771 235.298C429.01 242.583 436.692 247.086 445.169 247.086H451.394C459.738 247.086 467.553 242.583 471.791 235.298L474.97 229.868C479.208 222.583 479.208 213.576 474.97 206.424L471.791 200.993C467.553 193.709 459.871 189.205 451.394 189.205H445.169Z" fill="black"></path>
<path d="M456.558 239.271H450.863C442.783 239.271 435.233 234.901 431.127 227.881L428.346 222.98C424.24 215.96 424.24 207.218 428.346 200.199L431.127 195.298C435.233 188.278 442.651 183.907 450.863 183.907H456.558C464.637 183.907 472.187 188.278 476.293 195.298L479.074 200.199C483.18 207.218 483.18 215.96 479.074 222.98L476.293 227.881C472.187 234.901 464.77 239.271 456.558 239.271ZM450.995 185.232C443.313 185.232 436.293 189.338 432.452 195.96L429.67 200.861C425.829 207.483 425.829 215.695 429.67 222.318L432.452 227.218C436.293 233.841 443.313 237.947 450.995 237.947H456.69C464.372 237.947 471.392 233.841 475.233 227.218L478.015 222.318C481.856 215.695 481.856 207.483 478.015 200.861L475.233 195.96C471.392 189.338 464.372 185.232 456.69 185.232H450.995Z" fill="black"></path>
</g>
<path d="M352.981 248.147H300.001C297.749 248.147 295.895 246.292 295.895 244.041V242.981C295.895 240.729 297.749 238.875 300.001 238.875H352.981C355.233 238.875 357.087 240.729 357.087 242.981V244.041C357.087 246.292 355.233 248.147 352.981 248.147Z" fill="none" stroke="#414042" stroke-width="1"></path>
<path d="M381.058 453.974H264.634C262.382 453.974 260.528 452.119 260.528 449.868V448.808C260.528 446.556 262.382 444.702 264.634 444.702H381.058C383.309 444.702 385.164 446.556 385.164 448.808V449.868C385.164 452.119 383.309 453.974 381.058 453.974Z" fill="#B5CDFB"></path>
<path d="M381.058 471.325H264.634C262.382 471.325 260.528 469.471 260.528 467.219V466.16C260.528 463.908 262.382 462.054 264.634 462.054H381.058C383.309 462.054 385.164 463.908 385.164 466.16V467.219C385.164 469.471 383.309 471.325 381.058 471.325Z" fill="#B5CDFB"></path>
<path d="M562.249 584.304H250.726C246.753 584.304 243.441 580.993 243.441 577.02V287.88C243.441 283.907 246.753 280.596 250.726 280.596H562.117C566.091 280.596 569.402 283.907 569.402 287.88V577.152C569.534 581.126 566.223 584.304 562.249 584.304ZM250.726 281.92C247.415 281.92 244.766 284.569 244.766 287.88V577.152C244.766 580.463 247.415 583.112 250.726 583.112H562.117C565.428 583.112 568.077 580.463 568.077 577.152V287.88C568.077 284.569 565.428 281.92 562.117 281.92H250.726Z" fill="#1B2D34"></path>
<path d="M575.234 276.356H562.519V289.072H575.234V276.356Z" fill="none" stroke="#414042" stroke-width="1"></path>
<path d="M575.234 577.285H562.519V590H575.234V577.285Z" fill="none" stroke="#414042" stroke-width="1"></path>
<path d="M250.598 276.356H237.883V289.072H250.598V276.356Z" fill="none" stroke="#414042" stroke-width="1"></path>
<path d="M250.598 577.283H237.883V589.998H250.598V577.283Z" fill="none" stroke="#414042" stroke-width="1"></path>
<path d="M642.783 277.02H641.459V270.398H642.783V277.02ZM642.783 263.775H641.459V257.153H642.783V263.775ZM642.783 250.53H641.459V243.908H642.783V250.53ZM642.783 237.285H641.459V230.663H642.783V237.285ZM642.783 224.04H641.459V217.418H642.783V224.04ZM641.326 212.252H634.704V210.928H641.326V212.252ZM628.081 212.252H621.459V210.928H628.081V212.252ZM614.836 212.252H608.214V210.928H614.836V212.252ZM601.591 212.252H594.969V210.928H601.591V212.252ZM588.346 212.252H581.724V210.928H588.346V212.252ZM575.101 212.252H568.479V210.928H575.101V212.252ZM561.856 212.252H555.234V210.928H561.856V212.252ZM548.611 212.252H541.989V210.928H548.611V212.252ZM535.366 212.252H528.744V210.928H535.366V212.252ZM522.121 212.252H515.499V210.928H522.121V212.252ZM508.876 212.252H502.254V210.928H508.876V212.252ZM495.631 212.252H489.008V210.928H495.631V212.252ZM482.386 212.252H475.763V210.928H482.386V212.252ZM469.141 212.252H462.518V210.928H469.141V212.252Z" fill="#1B2D34"></path>
<path d="M462.651 196.225H444.903L436.161 211.589L444.903 226.821H462.651L471.393 211.589L462.651 196.225Z" fill="none" stroke="#414042" stroke-width="1"></path>
<path d="M158.41 327.617H157.085V320.994H158.41V327.617ZM158.41 314.372H157.085V307.749H158.41V314.372ZM158.41 301.127H157.085V294.504H158.41V301.127ZM158.41 287.882H157.085V281.259H158.41V287.882ZM158.41 274.637H157.085V268.014H158.41V274.637ZM158.41 261.392H157.085V254.769H158.41V261.392ZM158.41 248.146H157.085V241.524H158.41V248.146ZM158.41 234.901H157.085V228.279H158.41V234.901ZM158.41 221.656H157.085V215.034H158.41V221.656ZM158.41 208.411H157.085V201.789H158.41V208.411ZM158.41 195.166H157.085V188.544H158.41V195.166ZM158.41 181.921H157.085V175.299H158.41V181.921ZM158.41 168.676H157.085V162.054H158.41V168.676ZM158.41 155.431H157.085V148.809H158.41V155.431ZM158.41 142.186H157.085V135.564H158.41V142.186ZM158.41 128.941H157.085V122.319H158.41V128.941ZM318.807 121.127H317.483V119.802H318.807V121.127ZM158.41 115.696H157.085V109.074H158.41V115.696ZM318.807 113.18H317.483V106.557H318.807V113.18ZM158.41 102.451H157.085V95.8286H158.41V102.451ZM318.807 99.9345H317.483V93.312H318.807V99.9345ZM158.41 89.206H157.085V82.5835H158.41V89.206ZM318.807 86.6895H317.483V80.067H318.807V86.6895ZM158.41 75.961H157.085V69.3385H158.41V75.961ZM318.807 73.4444H317.483V66.8219H318.807V73.4444ZM158.41 62.716H157.085V56.0934H158.41V62.716ZM318.807 60.1994H317.483V53.5769H318.807V60.1994ZM158.41 49.4709H157.085V42.8484H158.41V49.4709ZM318.807 46.9544H317.483V40.3319H318.807V46.9544ZM158.41 36.2259H157.085V29.6034H158.41V36.2259ZM318.807 33.7093H317.483V27.0868H318.807V33.7093ZM158.41 22.9809H157.085V18.4775H160.529V19.802H158.41V22.9809ZM318.807 20.4643H317.483V19.802H312.847V18.4775H318.807V20.4643ZM306.225 19.802H299.602V18.4775H306.225V19.802ZM292.98 19.802H286.357V18.4775H292.98V19.802ZM279.735 19.802H273.112V18.4775H279.735V19.802ZM266.489 19.802H259.867V18.4775H266.489V19.802ZM253.244 19.802H246.622V18.4775H253.244V19.802ZM239.999 19.802H233.377V18.4775H239.999V19.802ZM226.754 19.802H220.132V18.4775H226.754V19.802ZM213.509 19.802H206.887V18.4775H213.509V19.802ZM200.264 19.802H193.642V18.4775H200.264V19.802ZM187.019 19.802H180.397V18.4775H187.019V19.802ZM173.774 19.802H167.152V18.4775H173.774V19.802Z" fill="#1B2D34"></path>
<path d="M318.145 23.7764C320.705 23.7764 322.78 21.7009 322.78 19.1406C322.78 16.5804 320.705 14.5049 318.145 14.5049C315.584 14.5049 313.509 16.5804 313.509 19.1406C313.509 21.7009 315.584 23.7764 318.145 23.7764Z" fill="#B5CDFB"></path>
<path d="M157.754 23.7745C160.314 23.7745 162.389 21.699 162.389 19.1387C162.389 16.5784 160.314 14.5029 157.754 14.5029C155.193 14.5029 153.118 16.5784 153.118 19.1387C153.118 21.699 155.193 23.7745 157.754 23.7745Z" fill="#B5CDFB"></path>
<path d="M157.754 332.251C160.314 332.251 162.389 330.176 162.389 327.615C162.389 325.055 160.314 322.979 157.754 322.979C155.193 322.979 153.118 325.055 153.118 327.615C153.118 330.176 155.193 332.251 157.754 332.251Z" fill="none" stroke="#414042" stroke-width="1"></path>
<path d="M301.851 173.841L290.99 184.569C290.99 184.569 294.699 190.132 300.394 194.768C303.97 197.682 308.871 199.669 312.315 201.523C318.143 204.702 330.593 205.099 339.864 201.788C349.136 198.477 355.891 192.251 355.626 191.589L332.182 183.112C332.315 183.112 302.513 181.126 301.851 173.841Z" fill="#543629"></path>
<path d="M312.184 152.781L305.164 178.079C305.164 178.079 327.946 193.179 335.23 191.722L341.588 169.205L324.634 140.331H318.144L312.184 152.781Z" fill="#E29771"></path>
<path d="M319.068 153.708L323.306 168.013C323.704 169.205 332.181 170.794 332.181 170.794L336.684 186.158L341.584 169.205L319.068 153.708Z" fill="#661F00"></path>
<path d="M318.146 153.444L323.179 165.497C323.709 166.689 324.769 167.616 326.093 167.881L354.173 172.914C356.159 173.311 358.014 171.987 358.411 170C358.676 168.941 358.676 167.616 358.411 166.159C358.014 164.305 355.365 162.053 354.702 159.669C354.04 157.417 352.716 152.517 352.716 152.517L358.544 149.47C358.544 147.219 347.55 135.563 347.55 135.563C347.55 135.563 342.782 124.04 339.868 121.258C339.868 121.258 326.226 116.225 320.795 121.258C315.365 126.292 314.438 141.788 314.438 141.788L318.146 153.444Z" fill="#E5B093"></path>
<path d="M326.491 204.702C303.312 204.702 284.372 185.762 284.372 162.583C284.372 139.404 303.312 120.464 326.491 120.464C349.67 120.464 368.61 139.404 368.61 162.583C368.61 185.762 349.802 204.702 326.491 204.702ZM326.491 121.788C303.975 121.788 285.696 140.067 285.696 162.583C285.696 185.1 303.975 203.378 326.491 203.378C349.008 203.378 367.286 185.1 367.286 162.583C367.286 140.067 349.008 121.788 326.491 121.788Z" fill="#1B2D34"></path>
<path d="M320.656 153.443C320.656 153.443 318.934 155.695 315.358 154.635C310.06 153.178 306.351 139.536 309.927 139.271C314.696 138.873 323.305 146.026 323.305 146.026L320.656 153.443Z" fill="#E5B093"></path>
<path d="M314.696 140.463C314.696 140.463 319.332 145.629 321.186 148.41C321.186 148.41 325.16 148.94 325.557 147.218C325.954 145.497 323.305 139.536 324.895 137.947C326.484 136.358 332.047 130.132 330.987 128.808C330.987 128.808 340.656 129.205 345.027 123.377C349.398 117.55 355.491 107.616 353.504 102.848C353.504 102.848 349.928 109.073 348.603 107.483C348.603 107.483 351.517 103.775 348.868 98.6092C348.868 98.6092 342.246 106.026 340.259 104.834C340.259 104.834 346.219 95.9601 344.365 86.0264C344.365 86.0264 331.385 94.6356 328.073 94.3707C324.762 94.1058 296.418 101.92 298.802 112.384C298.802 112.384 283.305 119.669 288.603 128.013C293.901 136.49 309.398 161.656 313.769 160.331C318.14 159.007 319.332 155.828 319.332 155.828L318.272 153.311C318.272 153.311 313.107 159.404 308.868 142.98C308.603 141.391 308.868 139.669 309.795 139.271C311.12 138.874 313.371 139.934 314.696 140.463Z" fill="#543629"></path>
<path d="M336.159 140.067L337.218 136.359L344.503 131.325C344.503 131.325 345.298 130.928 345.298 132.915C345.298 134.902 343.178 136.094 343.178 136.094C343.178 136.094 339.205 137.551 338.808 138.345C338.41 139.14 336.159 140.067 336.159 140.067Z" fill="#543629"></path>
<path d="M343.312 142.316C343.824 142.316 344.239 141.308 344.239 140.064C344.239 138.821 343.824 137.812 343.312 137.812C342.799 137.812 342.384 138.821 342.384 140.064C342.384 141.308 342.799 142.316 343.312 142.316Z" fill="black"></path>
<path d="M342.118 155.828C345.43 161.391 352.052 159.272 352.052 159.272L350.993 155.431L342.118 155.828Z" fill="#FEFFFF"></path>
<path d="M306.624 166.955C306.624 166.955 297.882 178.875 298.677 181.127C299.472 183.379 336.558 199.273 338.015 198.346C339.472 197.551 335.101 191.723 335.101 191.723C335.101 191.723 325.167 190.796 320.531 186.16C315.366 180.995 311.657 166.69 306.624 166.955Z" fill="#543629"></path>
<path d="M315.105 149.602C314.708 149.602 314.31 149.469 313.781 149.204C313.648 149.072 313.648 148.939 313.648 148.807C313.648 148.674 313.913 148.674 314.046 148.674C314.575 148.939 314.973 149.072 315.37 148.939C315.9 148.674 316.43 148.145 316.562 147.35C316.562 147.217 316.827 147.085 316.96 147.085C317.092 147.085 317.224 147.35 317.224 147.482C316.96 148.409 316.297 149.204 315.635 149.469C315.635 149.469 315.37 149.602 315.105 149.602Z" fill="black"></path>
<path d="M315.893 148.94C315.893 148.94 315.76 148.94 315.893 148.94C315.628 148.94 315.496 148.675 315.628 148.542C315.76 147.88 315.76 147.218 315.496 146.82C315.363 146.555 315.098 146.423 314.833 146.423C314.701 146.423 314.568 146.291 314.568 146.026C314.568 145.761 314.701 145.761 314.966 145.761C315.363 145.761 315.76 146.026 316.025 146.423C316.423 146.953 316.555 147.88 316.29 148.807C316.158 148.807 316.025 148.94 315.893 148.94Z" fill="black"></path>
<path d="M539.738 112.914C567.974 112.914 590.864 90.024 590.864 61.7879C590.864 33.5519 567.974 10.6621 539.738 10.6621C511.502 10.6621 488.612 33.5519 488.612 61.7879C488.612 90.024 511.502 112.914 539.738 112.914Z" fill="none" stroke="#414042" stroke-width="1"></path>
<path d="M539.735 113.576C511.126 113.576 487.947 90.3974 487.947 61.7881C487.947 33.1788 511.126 10 539.735 10C551.788 10 563.444 14.2384 572.716 21.7881L571.921 22.8477C562.914 15.4305 551.524 11.3245 539.735 11.3245C511.921 11.3245 489.272 33.9735 489.272 61.7881C489.272 89.6027 511.921 112.252 539.735 112.252C553.378 112.252 566.226 106.821 575.762 97.1523L576.689 98.0795C566.888 108.146 553.775 113.576 539.735 113.576Z" fill="#B5CDFB"></path>
<path d="M588.745 49.7364C587.95 46.2927 586.758 42.9814 585.168 39.9351L586.361 39.4053C587.95 42.5841 589.142 46.0278 589.937 49.4715L588.745 49.7364Z" fill="#B5CDFB"></path>
<path d="M523.841 84.039H513.643C512.848 84.039 512.053 83.3768 512.053 82.4496V51.3238C512.053 50.5291 512.715 49.7344 513.643 49.7344H523.841C524.636 49.7344 525.431 50.3966 525.431 51.3238V82.3172C525.298 83.2443 524.636 84.039 523.841 84.039ZM513.643 51.1913C513.51 51.1913 513.378 51.3238 513.378 51.4562V82.4496C513.378 82.5821 513.51 82.7145 513.643 82.7145H523.841C523.974 82.7145 524.106 82.5821 524.106 82.4496V51.3238C524.106 51.1913 523.974 51.0589 523.841 51.0589H513.643V51.1913Z" fill="#B5CDFB"></path>
<path d="M523.046 54.5036H528.609C531.39 54.5036 533.774 52.2519 533.774 49.338V36.4903C533.774 34.3711 536.159 33.0466 538.013 34.3711L539.735 35.5632C542.384 37.4175 543.841 40.4638 543.841 43.6427V50.3976C543.841 52.6493 545.695 54.3711 547.814 54.3711H560.927C564.106 54.3711 566.622 56.8877 566.622 60.0665V78.0797C566.622 82.3182 563.178 85.7619 558.94 85.7619H537.483C535.761 85.7619 534.039 85.0996 532.582 84.04L522.914 76.2254V54.5036H523.046Z" fill="#B5CDFB"></path>
<path d="M525.828 85.2321H515.629C515.099 85.2321 514.702 84.8347 514.702 84.3049V53.1791C514.702 52.6493 515.099 52.252 515.629 52.252H525.828C526.357 52.252 526.755 52.6493 526.755 53.1791V84.1725C526.755 84.8347 526.357 85.2321 525.828 85.2321Z" fill="#75E0E6"></path>
<path d="M479.07 535.032H333.905C325.428 535.032 318.54 528.145 318.54 519.668V504.568C318.54 496.092 325.428 489.204 333.905 489.204H479.07C487.547 489.204 494.434 496.092 494.434 504.568V519.668C494.434 528.145 487.547 535.032 479.07 535.032ZM333.905 490.661C326.222 490.661 319.865 496.886 319.865 504.701V519.8C319.865 527.482 326.09 533.84 333.905 533.84H479.07C486.752 533.84 493.11 527.615 493.11 519.8V504.701C493.11 497.019 486.885 490.661 479.07 490.661H333.905Z" fill="#1B2D34"></path>
<path opacity="0.1" d="M565.03 364.437H253.639V441.92H565.03V364.437Z" fill="black"></path>
<path opacity="0.3" d="M483.978 541.391H329.408C319.342 541.391 318.68 519.669 318.68 519.669L320.004 525.232C320.004 525.232 320.004 525.232 320.004 525.364C321.991 531.325 328.216 535.166 334.441 535.166L481.329 534.371C489.276 532.517 492.719 527.086 493.647 519.669C494.176 519.801 492.455 541.391 483.978 541.391Z" fill="#1B2D34"></path>
<path d="M567.424 428.277H234.708C223.185 428.277 213.781 418.873 213.781 407.349V385.363C213.781 373.84 223.185 364.436 234.708 364.436H567.424C578.947 364.436 588.351 373.84 588.351 385.363V407.349C588.351 418.873 579.079 428.277 567.424 428.277Z" fill="#B5CDFB"></path>
<path d="M580.793 430H232.184C220.263 430 210.594 420.331 210.594 408.411V378.344C210.594 366.424 220.263 356.755 232.184 356.755H580.661C592.581 356.755 602.25 366.424 602.25 378.344V408.411C602.382 420.331 592.714 430 580.793 430ZM232.184 358.079C220.925 358.079 211.919 367.218 211.919 378.344V408.411C211.919 419.669 221.058 428.675 232.184 428.675H580.661C591.919 428.675 600.925 419.536 600.925 408.411V378.344C600.925 367.086 591.786 358.079 580.661 358.079H232.184Z" fill="#1B2D34"></path>
<path d="M259.468 380.332C258.409 379.935 257.481 379.273 257.349 378.213C257.349 376.889 258.276 375.829 259.468 375.961C260.66 375.961 261.72 377.021 261.587 378.346C261.587 379.273 260.66 379.935 259.468 380.332Z" fill="#75E0E6"></path>
<path d="M229.544 377.815C229.279 379.139 228.484 380.199 227.292 380.199C226.232 380.199 225.305 379.271 225.173 378.079C225.173 376.755 226.1 375.828 227.292 375.695C228.484 375.828 229.146 376.887 229.544 377.815Z" fill="#75E0E6"></path>
<path d="M272.451 377.816C272.318 379.008 271.523 379.935 270.596 380.067C269.272 380.332 268.345 379.14 268.212 378.081C268.08 376.756 269.139 375.829 270.331 375.829C271.391 375.829 272.053 376.889 272.451 377.816Z" fill="#75E0E6"></path>
<path d="M281.195 375.696C282.254 376.359 283.447 376.888 283.182 378.213C283.049 379.272 282.122 380.2 281.062 380.2C280.003 380.2 279.076 379.272 278.943 378.08C278.943 376.756 280.003 376.226 281.195 375.696Z" fill="#75E0E6"></path>
<path d="M294.041 377.948C293.776 379.273 292.981 380.332 291.657 380.2C290.597 380.2 289.538 379.273 289.538 378.081C289.538 376.756 290.465 375.829 291.789 375.829C292.981 375.829 293.644 376.889 294.041 377.948Z" fill="#75E0E6"></path>
<path d="M272.589 420.863C272.191 422.055 271.529 423.114 270.47 423.114C269.145 423.247 268.218 422.055 268.218 420.863C268.218 419.671 269.145 418.611 270.47 418.744C271.662 419.009 272.191 420.068 272.589 420.863Z" fill="#75E0E6"></path>
<path d="M261.859 421.127C261.329 422.186 260.8 423.378 259.475 423.246C258.415 423.113 257.488 422.186 257.488 421.127C257.621 419.934 258.415 418.875 259.872 419.007C260.8 419.007 261.594 419.934 261.859 421.127Z" fill="#75E0E6"></path>
<path d="M222.252 396.49C220.795 396.225 220 395.431 219.735 394.371C219.47 393.046 220.53 392.119 221.722 391.987C222.914 391.854 223.709 392.914 223.973 393.974C224.371 395.431 222.781 395.695 222.252 396.49Z" fill="#75E0E6"></path>
<path d="M232.852 391.855C233.779 392.385 234.839 392.915 234.839 394.107C234.706 395.299 233.779 396.491 232.587 396.226C231.527 396.094 230.335 395.167 230.6 393.71C230.865 392.783 231.66 391.988 232.852 391.855Z" fill="#75E0E6"></path>
<path d="M318.415 413.312C319.74 413.445 320.534 414.24 320.799 415.299C321.064 416.624 320.005 417.551 318.813 417.816C317.62 418.081 316.826 417.021 316.561 415.962C316.296 414.505 317.62 413.975 318.415 413.312Z" fill="#75E0E6"></path>
<path d="M307.813 417.949C306.753 417.42 305.561 416.757 305.826 415.433C305.958 414.506 306.885 413.314 308.077 413.579C309.269 413.711 310.329 414.638 310.064 415.963C309.799 416.89 309.005 417.684 307.813 417.949Z" fill="#75E0E6"></path>
<path d="M299.472 415.696C299.074 416.756 298.412 417.815 297.353 417.815C296.028 417.815 295.101 416.888 295.101 415.564C295.101 414.504 296.028 413.444 297.088 413.444C298.412 413.444 299.074 414.504 299.472 415.696Z" fill="#75E0E6"></path>
<path d="M256.425 415.83C256.028 416.89 255.366 417.949 254.174 417.817C252.982 417.684 251.922 416.757 252.054 415.433C252.187 414.373 253.114 413.313 254.174 413.446C255.366 413.446 256.16 414.505 256.425 415.83Z" fill="#75E0E6"></path>
<path d="M245.698 415.828C245.301 416.888 244.639 417.947 243.579 417.815C242.387 417.815 241.327 416.755 241.46 415.563C241.592 414.504 242.52 413.312 243.844 413.576C244.771 413.709 245.566 414.504 245.698 415.828Z" fill="#75E0E6"></path>
<path d="M232.584 413.312C233.776 413.71 234.836 414.372 234.836 415.697C234.836 416.756 233.909 417.683 232.849 417.816C231.657 417.948 230.862 416.889 230.597 415.962C230.332 414.505 231.657 413.975 232.584 413.312Z" fill="#75E0E6"></path>
<path d="M234.969 404.835C234.571 405.895 233.909 406.954 232.85 406.954C231.657 406.954 230.598 406.027 230.73 404.57C230.863 403.511 231.79 402.451 232.85 402.584C233.909 402.848 234.571 403.776 234.969 404.835Z" fill="#75E0E6"></path>
<path d="M222.118 402.584C223.177 403.246 224.369 403.776 224.104 405.101C223.972 406.16 223.045 407.22 221.853 407.087C220.661 406.955 219.601 406.028 219.866 404.703C219.998 403.644 220.926 402.849 222.118 402.584Z" fill="#75E0E6"></path>
<path d="M224.241 415.299C223.843 416.756 223.181 417.683 222.122 417.683C220.797 417.815 219.87 416.756 219.87 415.564C219.737 414.372 220.797 413.577 221.857 413.445C223.181 413.18 223.446 414.769 224.241 415.299Z" fill="#75E0E6"></path>
<path d="M286.62 413.312C287.547 413.842 288.872 414.505 288.607 415.829C288.475 416.889 287.547 417.948 286.488 417.816C285.296 417.683 284.236 416.756 284.501 415.432C284.501 414.372 285.428 413.577 286.62 413.312Z" fill="#75E0E6"></path>
<path d="M281.195 423.378C279.87 422.981 278.943 422.319 278.943 420.994C278.943 419.935 279.87 419.007 280.93 418.875C282.122 418.743 282.917 419.67 283.182 420.729C283.447 422.186 282.254 422.716 281.195 423.378Z" fill="#75E0E6"></path>
<path d="M302.781 380.331C301.456 379.934 300.529 379.271 300.397 378.079C300.264 376.755 301.324 375.695 302.516 375.695C303.708 375.695 304.768 376.755 304.635 378.079C304.635 379.404 303.576 379.801 302.781 380.331Z" fill="#75E0E6"></path>
<path d="M248.876 380.332C247.817 379.935 246.89 379.273 246.757 378.213C246.625 376.889 247.684 375.829 248.876 375.829C250.068 375.829 251.128 376.889 250.996 378.213C250.863 379.273 249.936 379.935 248.876 380.332Z" fill="#75E0E6"></path>
<path d="M240.393 377.949C239.863 379.273 239.333 380.333 238.141 380.2C236.817 380.2 235.89 379.141 235.89 377.949C235.89 376.889 236.817 375.962 238.009 375.83C239.333 375.697 239.863 377.022 240.393 377.949Z" fill="#75E0E6"></path>
<path d="M319.08 374.902C317.623 374.77 316.696 373.843 316.563 372.916C316.298 371.591 317.358 370.664 318.55 370.399C319.742 370.267 320.537 371.326 320.802 372.253C321.199 373.843 319.742 374.24 319.08 374.902Z" fill="#75E0E6"></path>
<path d="M288.742 372.649C288.477 373.708 287.815 374.768 286.755 374.9C285.431 375.033 284.504 373.973 284.371 372.781C284.239 371.589 285.166 370.794 286.358 370.529C287.683 370.264 288.212 371.589 288.742 372.649Z" fill="#75E0E6"></path>
<path d="M254.305 375.034C252.98 374.504 251.92 373.842 252.185 372.518C252.318 371.458 253.113 370.398 254.305 370.531C255.629 370.663 256.556 371.59 256.424 372.915C256.159 373.974 255.232 374.637 254.305 375.034Z" fill="#75E0E6"></path>
<path d="M251.125 410.001C250.728 411.325 250.066 412.252 249.006 412.385C247.682 412.385 246.754 411.325 246.754 410.133C246.754 409.074 247.682 408.146 248.874 408.146C250.066 408.146 250.463 409.339 251.125 410.001Z" fill="#75E0E6"></path>
<path d="M229.544 388.543C229.279 389.868 228.616 390.928 227.292 390.928C226.1 390.928 225.305 390 225.173 388.808C225.173 387.484 226.1 386.557 227.292 386.557C228.484 386.557 229.014 387.616 229.544 388.543Z" fill="#75E0E6"></path>
<path d="M265.165 385.762C263.708 385.365 262.781 384.57 262.781 383.378C262.781 382.318 263.708 381.259 264.768 381.259C266.093 381.259 267.02 382.186 267.02 383.51C267.02 384.703 265.96 385.1 265.165 385.762Z" fill="#75E0E6"></path>
<path d="M224.242 383.379C223.712 384.438 223.183 385.631 221.858 385.498C220.798 385.366 219.871 384.438 219.871 383.379C219.871 382.054 220.798 381.127 222.123 381.26C223.183 381.392 223.845 382.319 224.242 383.379Z" fill="#75E0E6"></path>
<path d="M232.851 381.128C233.779 381.525 234.838 382.188 234.838 383.38C234.838 384.572 233.911 385.764 232.586 385.499C231.394 385.366 230.335 384.439 230.6 383.115C230.865 382.055 231.659 381.26 232.851 381.128Z" fill="#75E0E6"></path>
<path d="M254.439 385.631C253.114 385.366 252.187 384.571 252.054 383.379C251.922 382.319 252.982 381.392 254.041 381.26C255.233 381.127 256.028 382.054 256.293 383.114C256.558 384.439 255.366 385.101 254.439 385.631Z" fill="#75E0E6"></path>
<path d="M288.748 383.38C288.086 384.44 287.556 385.764 286.099 385.499C285.039 385.234 284.112 384.44 284.245 383.247C284.377 382.055 285.304 380.996 286.629 381.261C287.821 381.393 288.351 382.453 288.748 383.38Z" fill="#75E0E6"></path>
<path d="M299.472 383.247C299.074 384.439 298.412 385.499 297.353 385.631C296.028 385.631 295.101 384.572 295.101 383.38C295.101 382.32 296.028 381.393 297.22 381.393C298.545 381.261 298.942 382.453 299.472 383.247Z" fill="#75E0E6"></path>
<path d="M277.882 372.65C277.617 373.709 276.955 374.769 275.762 374.901C274.438 375.034 273.643 373.974 273.511 372.915C273.378 371.59 274.306 370.531 275.63 370.531C276.955 370.398 277.484 371.59 277.882 372.65Z" fill="#75E0E6"></path>
<path d="M238.009 391.061C236.949 390.663 236.022 390.001 235.89 388.942C235.89 387.617 236.817 386.557 238.009 386.69C239.201 386.69 240.261 387.75 240.128 389.074C239.996 390.001 239.201 390.796 238.009 391.061Z" fill="#75E0E6"></path>
<path d="M229.535 399.537C229.27 400.729 228.608 401.656 227.416 401.788C226.224 401.921 225.297 400.861 225.164 399.801C225.032 398.477 225.959 397.417 227.283 397.417C228.608 397.285 229.138 398.477 229.535 399.537Z" fill="#75E0E6"></path>
<path d="M229.535 410.133C229.005 411.325 228.476 412.385 227.283 412.385C225.959 412.385 225.032 411.325 225.164 410.001C225.297 408.941 226.224 407.882 227.416 408.014C228.608 408.279 229.138 409.339 229.535 410.133Z" fill="#75E0E6"></path>
<path d="M272.584 410.4C272.055 411.46 271.525 412.652 270.068 412.387C269.008 412.122 268.081 411.195 268.214 410.135C268.346 408.943 269.273 407.884 270.598 408.148C271.657 408.281 272.32 409.208 272.584 410.4Z" fill="#75E0E6"></path>
<path d="M294.044 410.267C293.646 411.326 293.117 412.386 291.925 412.386C290.6 412.386 289.673 411.326 289.673 410.002C289.805 408.942 290.6 407.883 291.925 408.015C293.117 408.148 293.646 409.207 294.044 410.267Z" fill="#75E0E6"></path>
<path d="M267.159 415.431C267.027 416.756 266.232 417.55 265.172 417.815C263.848 418.08 262.921 417.02 262.788 415.828C262.656 414.636 263.715 413.577 264.908 413.577C266.1 413.444 266.762 414.504 267.159 415.431Z" fill="#75E0E6"></path>
<path d="M277.88 415.697C277.483 416.757 276.82 417.816 275.761 417.816C274.436 417.816 273.509 416.889 273.642 415.565C273.642 414.505 274.569 413.578 275.628 413.445C276.953 413.445 277.615 414.505 277.88 415.697Z" fill="#75E0E6"></path>
<path d="M331.656 415.564C331.392 416.756 330.597 417.683 329.537 417.683C328.213 417.683 327.286 416.756 327.286 415.432C327.286 414.372 328.213 413.312 329.272 413.312C330.597 413.312 331.259 414.505 331.656 415.564Z" fill="#75E0E6"></path>
<path d="M235.89 421.391C236.022 419.802 236.817 419.007 237.876 418.875C239.201 418.61 240.128 419.67 240.261 420.994C240.393 422.186 239.333 422.981 238.406 423.246C236.817 423.511 236.552 421.921 235.89 421.391Z" fill="#75E0E6"></path>
<path d="M291.923 418.743C292.983 419.141 293.91 419.803 293.91 420.862C293.91 422.187 292.983 423.114 291.658 423.114C290.466 422.982 289.407 422.054 289.672 420.73C289.937 419.67 290.731 419.008 291.923 418.743Z" fill="#75E0E6"></path>
<path d="M302.65 423.379C301.458 422.982 300.398 422.32 300.398 420.995C300.398 419.935 301.325 419.008 302.385 418.876C303.577 418.743 304.372 419.671 304.504 420.863C304.902 422.187 303.709 422.717 302.65 423.379Z" fill="#75E0E6"></path>
<path d="M315.496 421.128C315.098 422.055 314.436 423.247 313.376 423.115C312.184 423.115 311.125 422.055 311.257 420.73C311.39 419.671 312.184 418.611 313.509 418.744C314.569 419.009 315.231 419.936 315.496 421.128Z" fill="#75E0E6"></path>
<path d="M248.741 423.247C247.682 422.717 246.754 422.187 246.754 420.995C246.754 419.803 247.682 418.876 248.741 418.876C250.066 418.876 250.993 419.936 250.86 421.26C250.86 422.32 249.933 422.982 248.741 423.247Z" fill="#75E0E6"></path>
<path d="M283.314 410.001C283.049 411.326 282.387 412.253 281.195 412.385C279.87 412.518 278.943 411.458 278.943 410.134C278.943 409.074 279.87 408.147 281.062 408.015C282.254 408.015 282.784 409.207 283.314 410.001Z" fill="#75E0E6"></path>
<path d="M261.851 410.399C261.321 411.458 260.791 412.65 259.334 412.518C258.274 412.385 257.347 411.458 257.48 410.266C257.612 409.074 258.407 408.015 259.864 408.147C260.923 408.279 261.586 409.207 261.851 410.399Z" fill="#75E0E6"></path>
<path d="M243.445 375.034C242.253 374.504 241.061 373.709 241.326 372.517C241.458 371.59 242.385 370.398 243.577 370.531C244.769 370.663 245.829 371.723 245.564 372.915C245.432 373.974 244.504 374.637 243.445 375.034Z" fill="#75E0E6"></path>
<path d="M310.204 372.784C309.807 373.843 309.144 374.903 308.085 374.771C306.76 374.771 305.833 373.711 305.966 372.386C306.098 371.327 307.025 370.135 308.35 370.4C309.277 370.665 309.939 371.592 310.204 372.784Z" fill="#75E0E6"></path>
<path d="M308.078 385.763C306.886 385.365 305.826 384.571 305.826 383.379C305.826 382.319 306.754 381.392 307.813 381.259C309.005 381.127 309.8 382.187 309.932 383.114C310.197 384.571 309.138 385.1 308.078 385.763Z" fill="#75E0E6"></path>
<path d="M277.88 383.378C277.615 384.438 276.953 385.497 275.893 385.63C274.569 385.762 273.642 384.703 273.642 383.378C273.642 382.318 274.569 381.391 275.761 381.259C276.953 381.259 277.483 382.318 277.88 383.378Z" fill="#75E0E6"></path>
<path d="M245.7 383.378C245.303 384.57 244.773 385.63 243.448 385.63C242.389 385.63 241.462 384.57 241.329 383.51C241.197 382.186 242.256 381.259 243.448 381.259C244.64 381.259 245.303 382.186 245.7 383.378Z" fill="#75E0E6"></path>
<path d="M240.261 399.669C239.863 400.729 239.201 401.788 238.009 401.788C236.817 401.788 235.89 400.861 235.89 399.669C235.89 398.477 236.817 397.285 238.141 397.417C239.333 397.417 239.996 398.477 240.261 399.669Z" fill="#75E0E6"></path>
<path d="M297.223 370.397C298.415 370.795 299.475 371.59 299.342 372.914C299.21 373.974 298.415 375.033 297.223 374.901C296.031 374.768 294.971 373.841 295.104 372.517C295.236 371.457 296.031 370.662 297.223 370.397Z" fill="#75E0E6"></path>
<path d="M238.148 408.015C239.208 408.412 240.135 409.074 240.135 410.266C240.135 411.326 239.208 412.385 238.148 412.385C236.824 412.385 235.896 411.326 236.029 410.001C236.161 409.074 236.956 408.28 238.148 408.015Z" fill="#75E0E6"></path>
<path d="M553.908 375.299C554.968 374.902 555.895 374.239 556.028 373.18C556.028 371.855 555.1 370.796 553.908 370.928C552.716 370.928 551.657 371.988 551.789 373.312C551.922 374.372 552.849 375.034 553.908 375.299Z" fill="#75E0E6"></path>
<path d="M583.975 372.916C584.24 374.241 585.035 375.3 586.227 375.3C587.286 375.3 588.214 374.373 588.346 373.181C588.346 371.857 587.419 370.929 586.227 370.797C585.035 370.797 584.373 371.856 583.975 372.916Z" fill="#75E0E6"></path>
<path d="M551.655 416.093C552.185 417.153 552.715 418.345 554.04 418.213C555.099 418.08 556.026 417.153 556.026 416.093C555.894 414.901 555.099 413.842 553.642 413.974C552.583 413.974 551.92 414.901 551.655 416.093Z" fill="#75E0E6"></path>
<path d="M591.13 391.59C592.587 391.325 593.381 390.53 593.646 389.471C593.911 388.146 592.851 387.219 591.659 387.086C590.467 386.954 589.673 388.014 589.408 389.073C589.143 390.398 590.6 390.663 591.13 391.59Z" fill="#75E0E6"></path>
<path d="M557.088 410.797C557.485 411.856 558.147 412.916 559.34 412.784C560.532 412.651 561.591 411.724 561.459 410.399C561.326 409.34 560.399 408.28 559.34 408.413C558.015 408.545 557.353 409.472 557.088 410.797Z" fill="#75E0E6"></path>
<path d="M567.813 410.796C568.211 411.856 568.873 412.915 569.932 412.783C571.124 412.783 572.184 411.723 572.052 410.531C571.919 409.471 570.992 408.279 569.668 408.544C568.74 408.677 567.946 409.604 567.813 410.796Z" fill="#75E0E6"></path>
<path d="M580.927 408.279C579.735 408.677 578.676 409.339 578.676 410.663C578.676 411.723 579.603 412.65 580.663 412.783C581.855 412.915 582.649 411.855 582.914 410.928C583.179 409.471 581.855 408.942 580.927 408.279Z" fill="#75E0E6"></path>
<path d="M591.392 397.551C590.332 398.213 589.14 398.743 589.405 400.067C589.537 401.127 590.464 402.187 591.656 402.054C592.849 401.922 593.908 400.994 593.643 399.67C593.511 398.61 592.584 397.948 591.392 397.551Z" fill="#75E0E6"></path>
<path d="M589.272 410.399C589.67 411.856 590.332 412.783 591.392 412.783C592.716 412.915 593.643 411.856 593.643 410.664C593.776 409.472 592.716 408.677 591.657 408.545C590.332 408.28 590.067 409.737 589.272 410.399Z" fill="#75E0E6"></path>
<path d="M564.638 375.3C565.698 374.903 566.625 374.241 566.757 373.181C566.89 371.857 565.83 370.797 564.638 370.797C563.446 370.797 562.386 371.857 562.519 373.181C562.651 374.373 563.578 374.903 564.638 375.3Z" fill="#75E0E6"></path>
<path d="M573.113 372.916C573.642 374.241 574.172 375.3 575.364 375.168C576.689 375.168 577.616 374.108 577.616 372.916C577.616 371.856 576.689 370.929 575.497 370.797C574.04 370.797 573.642 372.121 573.113 372.916Z" fill="#75E0E6"></path>
<path d="M559.205 370.001C560.529 369.471 561.589 368.809 561.324 367.484C561.192 366.425 560.397 365.365 559.205 365.498C557.88 365.63 556.953 366.557 557.086 367.882C557.218 368.941 558.278 369.604 559.205 370.001Z" fill="#75E0E6"></path>
<path d="M562.385 405.101C562.782 406.425 563.445 407.352 564.504 407.485C565.829 407.485 566.756 406.425 566.756 405.233C566.756 404.174 565.829 403.246 564.637 403.246C563.312 403.114 562.915 404.306 562.385 405.101Z" fill="#75E0E6"></path>
<path d="M583.975 383.643C584.24 384.968 584.902 386.027 586.227 386.027C587.419 386.027 588.214 385.1 588.346 383.908C588.346 382.584 587.419 381.657 586.227 381.657C585.035 381.524 584.373 382.716 583.975 383.643Z" fill="#75E0E6"></path>
<path d="M589.272 378.478C589.802 379.538 590.332 380.73 591.657 380.598C592.716 380.465 593.643 379.538 593.643 378.478C593.643 377.154 592.716 376.227 591.392 376.359C590.332 376.359 589.67 377.286 589.272 378.478Z" fill="#75E0E6"></path>
<path d="M583.975 394.505C584.24 395.697 584.902 396.624 586.094 396.757C587.286 396.889 588.214 395.829 588.346 394.77C588.478 393.445 587.551 392.386 586.227 392.386C584.902 392.386 584.373 393.445 583.975 394.505Z" fill="#75E0E6"></path>
<path d="M583.844 405.234C584.374 406.426 584.904 407.486 586.096 407.486C587.42 407.486 588.348 406.426 588.215 405.102C588.083 404.042 587.156 402.982 585.964 403.115C584.771 403.247 584.374 404.307 583.844 405.234Z" fill="#75E0E6"></path>
<path d="M577.615 416.491C577.483 414.902 576.688 414.107 575.628 413.974C574.304 413.71 573.377 414.769 573.244 416.094C573.112 417.286 574.171 418.08 575.098 418.345C576.555 418.478 576.82 417.021 577.615 416.491Z" fill="#75E0E6"></path>
<path d="M564.77 418.345C565.83 417.816 566.757 417.286 566.757 416.094C566.757 414.902 565.83 413.975 564.77 413.975C563.446 413.975 562.519 415.034 562.651 416.359C562.651 417.286 563.578 418.081 564.77 418.345Z" fill="#75E0E6"></path>
<path d="M551.655 405.366C552.185 406.426 552.715 407.618 554.172 407.486C555.232 407.353 556.159 406.426 556.026 405.234C555.894 404.042 555.099 402.982 553.642 403.115C552.583 403.247 551.92 404.174 551.655 405.366Z" fill="#75E0E6"></path>
<path d="M570.068 370.001C571.26 369.471 572.453 368.676 572.188 367.484C572.055 366.557 571.128 365.365 569.936 365.497C568.744 365.63 567.684 366.69 567.949 367.882C568.082 368.941 569.009 369.736 570.068 370.001Z" fill="#75E0E6"></path>
<path d="M575.234 403.112C574.175 403.51 573.248 404.172 573.248 405.364C573.248 406.424 574.175 407.483 575.234 407.483C576.559 407.483 577.486 406.424 577.354 405.099C577.354 404.039 576.559 403.245 575.234 403.112Z" fill="#75E0E6"></path>
<path d="M302.517 408.015C303.709 408.28 304.504 409.074 304.637 410.134C304.769 411.326 303.842 412.253 302.782 412.385C301.458 412.65 300.531 411.458 300.398 410.266C300.398 409.074 301.458 408.412 302.517 408.015Z" fill="#75E0E6"></path>
<path d="M267.152 372.783C266.755 373.842 266.225 374.902 264.901 374.77C263.708 374.77 262.781 373.842 262.781 372.65C262.781 371.458 263.708 370.266 265.033 370.399C266.225 370.664 266.887 371.591 267.152 372.783Z" fill="#75E0E6"></path>
<path d="M644.901 308.809H639.338C631.258 308.809 623.709 304.438 619.603 297.418L616.821 292.517C612.715 285.497 612.715 276.756 616.821 269.736L619.603 264.835C623.709 257.815 631.126 253.444 639.338 253.444H645.033C653.113 253.444 660.662 257.815 664.768 264.835L667.55 269.736C671.656 276.756 671.656 285.497 667.55 292.517L664.768 297.418C660.53 304.57 653.113 308.809 644.901 308.809ZM639.338 254.901C631.656 254.901 624.636 259.007 620.795 265.63L618.013 270.53C614.172 277.153 614.172 285.365 618.013 291.987L620.795 296.888C624.636 303.511 631.656 307.617 639.338 307.617H645.033C652.715 307.617 659.735 303.511 663.576 296.888L666.358 291.987C670.199 285.365 670.199 277.153 666.358 270.53L663.576 265.63C659.735 259.007 652.715 254.901 645.033 254.901H639.338Z" fill="none" stroke="#414042" stroke-width="1"></path>
<path d="M160.662 355.165H154.967C146.887 355.165 139.338 350.794 135.232 343.774L132.45 338.874C128.344 331.854 128.344 323.112 132.45 316.092L135.232 311.191C139.338 304.172 146.755 299.801 154.967 299.801H160.662C168.742 299.801 176.291 304.172 180.397 311.191L183.179 316.092C187.285 323.112 187.285 331.854 183.179 338.874L180.397 343.774C176.291 350.794 168.742 355.165 160.662 355.165ZM154.967 301.258C147.285 301.258 140.265 305.364 136.424 311.986L133.642 316.887C129.801 323.509 129.801 331.721 133.642 338.344L136.424 343.245C140.265 349.867 147.285 353.973 154.967 353.973H160.662C168.344 353.973 175.364 349.867 179.205 343.245L181.987 338.344C185.828 331.721 185.828 323.509 181.987 316.887L179.205 311.986C175.364 305.364 168.344 301.258 160.662 301.258H154.967Z" fill="none" stroke="#414042" stroke-width="1"></path>
<path d="M453.777 218.079C457.362 218.079 460.267 215.173 460.267 211.589C460.267 208.004 457.362 205.099 453.777 205.099C450.193 205.099 447.287 208.004 447.287 211.589C447.287 215.173 450.193 218.079 453.777 218.079Z" fill="#75E0E6"></path>
<path d="M642.121 287.749C645.706 287.749 648.612 284.843 648.612 281.259C648.612 277.674 645.706 274.769 642.121 274.769C638.537 274.769 635.631 277.674 635.631 281.259C635.631 284.843 638.537 287.749 642.121 287.749Z" fill="none" stroke="#414042" stroke-width="1"></path>
</svg>
